<?xml version="1.0" encoding="utf8"?>
<!DOCTYPE svg PUBLIC "-//W3C//DTD SVG 1.1//EN" "http://www.w3.org/Graphics/SVG/1.1/DTD/svg11.dtd">
<svg enable-background="new 0 0 643 45" viewBox="0 0 643 45" xml:space="preserve" xmlns="http://www.w3.org/2000/svg"><defs><linearGradient gradientUnits="userSpaceOnUse" id="SVGID_1_" x1="7" x2="633.4072">
	<stop offset="0" stop-color="#e41e25"></stop>
	<stop offset=".25" stop-color="#fde70d"></stop>
	<stop offset=".5" stop-color="#6cbe45"></stop>
	<stop offset=".75" stop-color="#4bc8f3"></stop>
	<stop offset="1" stop-color="#374da1"></stop>
</linearGradient></defs>

<path d="m367.968,7.4c.344.296.454.825.479,1.44-.832-.116-.612-.911-.479-1.44zm.72,1.44h.48v-.48h-.48v.48zm-42.48,1.2c-1.147-.667-.582.787 0,0zm33.6.24c1.131-.243 1.505.24 2.16-.48-.871.009-1.895-.134-2.16.48zm-49.441,1.2c.652-.405 1.124.381 1.44-.48-.597-.036-.07-.813 0-.96-.979.252-.483.911-1.44,1.44zm-1.679-.24c.413.013.615-.185.72-.48-.413-.013-.616.185-.72.48zm-44.16,1.68c.036-.444.813-.147.96-.48-.038-.282.041-.681-.24-.72 .428.931-1.646.564-.72,1.2zm1.68-.72c-.241.001-.286-.194-.48-.24-.229.87 1.036.244 1.2.72 .07-.147.597-.924 0-.96-.24.33-.396-.102-.72.48zm1.68-.48c-1.119.425.224,1.125 0,0zm17.04.24c-.491-.137-1.801.073-.96.48 .134-.571.722.267.24.48 .633.073.618-.501.72-.96zm93.84.24c-.97-.844-.567.772 0,0zm.48-.24c-.035.284-.428.544 0,.72 .034-.284.427-.544 0-.72zm.239.72c.833-.193.923.357 1.681.24-.012-1.319-.492-.677-1.44-.96 .01.331-.114.527-.241.72zm-118.079-.24c-.147-.07-.924-.597-.96,0 .147.07.924.597.96,0zm45.36.72c.413.013.615-.185.72-.48-.378.023-.833-.032-.72.48zm-20.161-.24c-.003.317-.421.219-.479.48 .343.094.404.288.72,0-.054-.186-.007-.473-.241-.48zm99.121.48c.413.013.615-.185.72-.48-.413-.013-.616.184-.72.48zm-117.84.72c1.112.206.251-.378.72-.48 .384.208 2.748.793 2.4-.48-1.132.586-2.075.085-3.12.48 .29.051.147.266 0,.48zm122.639-.48c.331-.011.527.113.721.24-.011-.331.112-.527.239-.72-.446.033-.801.158-.96.48zm-145.199.72c.013-.413-.185-.615-.48-.72-.013.413.184.615.48.72zm16.799.48c.524.043.764-.196.72-.72-.645-.165-.463.496-.72.72zm340.32-.24c-1.569-.703-1.476.897 0,0zm-32.399.72c.01-1.076 1.273-.042 1.68,0-.151-1.082-.741-.481-1.92-.72 .038.282-.041.681.24.72zm54.24-.24c.041.359-.086.886.239.96 .067-.567.642.275.96.24 .065-.995-.314-.935 0-1.68-1.35.08.164,1.392-1.199.48zm-56.641.24c.504.077 2.079.037 1.2-.48-.072.358-1.009-.26-1.2.48zm61.201,0c.319.312.893.316.96-.24-.601-.03-.751-.458-.96.24zm-28.8.24c1.419.128 1.715-.397 2.399,0 .157-.773-2.555-.773-2.399,0zm13.439.24c.591-.669.245-1.015-.479-.48 .317.003.22.421.479.48zm-248.159-.24c-.49-.419-.471.179-.961-.24-.384.668 1.037.663.961.24zm215.52.24c.413.013.615-.185.72-.48-.378.023-.833-.032-.72.48zm51.36,0c.595.036 1.164.045 1.199-.48-.427.133-.996.123-1.199.48zm-223.92.48c.307.013.332.308.72.24-.038-.283.041-.681-.24-.72-.003.317-.421.22-.48.48zm137.279,0c-.147-.07-.924-.597-.96,0 .148.07.924.597.96,0zm4.561,0v.48c.591.374.705-.815.239-.72-.013.147-.035.284-.239.24zm13.92.24h.479v-.48h-.479v.48zm37.92-.48c-.497.143-1.577-.297-1.68.24 .497-.143 1.576.297 1.68-.24zm6,.48c.003-.317.421-.219.479-.48-.492-.275-1.143.377-.479.48zm-389.52-.24c.01.331-.113.527-.24.72 .452.222 1.111,1.281 1.44.24-.679-.067-.817-.179-1.2-.96zm388.8,0c-1.537-.277-.527.733 0,0zm-377.28.72h.48v-.48h-.48v.48zm95.76.24c.193-1.453-1.1-.16 0,0zm-108-.48c-.013.413.185.615.48.72 .013-.413-.185-.615-.48-.72zm155.04.24c-.23-.231-.762.438-.479.72 .136.137.473-.726.479-.72zm-159.36.96c-.771.211-.329-.791-.96-.72-.116.543.601,1.441.96.72zm207.6-.24c.203.225 1.529.513 1.68,0-.282-.037-.681.042-.72-.24 .146-.014.284-.036.24-.24-.428.133-.997.123-1.2.48zm-195.361.24h.72v-.48h-.72v.48zm374.161,0c.596.035 1.165.044 1.2-.48-.428.133-.997.123-1.2.48zm-40.08.24c.413.013.615-.185.72-.48-.413-.013-.616.185-.72.48zm-76.56.48c.807-.453.786,1.086 1.199.24-.252-.013-.188-.308.24-.24v-.48c-.313-.317-1.27-.053-1.439.48zm6.96,0c.282-.038.681.041.72-.24-.472.072-.477-.324-.72-.48v.72zm-285.6-.24c.01.331-.113.527-.24.72 .746.113.9-.646.24-.72zm227.999.24c1.439.739 1.176-.888 0,0zm-64.08,0c-1.254-.247-1.41.604-1.439.96-.302-.053-.491-.374-.48.24 .592-.032 1.156-.036 1.44.24-.191-.83.266-1.013.479-1.44zm-170.159.96c.035-.284.427-.544 0-.72-.035.284-.428.544 0,.72zm254.4-.72c-1.652-.149-1.503,1.256 0,0zm15.839.48c.278.585 1.131-.268.48-.48-.002.317-.42.219-.48.48zm25.681,0c1.235.672.59-1.142 0,0zm.96,0c.414.418 1.483.266 1.68-.24-.447-.021-1.487-.431-1.68.24zm1.92,0c.377-.023.832.032.72-.48h-.479c-.001.241-.196.286-.241.48zm-453.6.24c.031-.431-.238-.562-.72-.48-.012,1.441.218-.184.72.48zm168.96-.24c-1.906.127 1.175-.078 0,0zm182.4.24c-1.241.1-2.128-.564-3.12-.24 .777.192 2.323.865 3.12.24zm39.12-.48c-.359.041-.886-.086-.96.24 .318.311.892.316.96-.24zm168.479.72c.809.729.729-.887 0,0zm-222.96.48c.014.146.036.284.24.24 .07-.5.649.356.72-.48-.324-.076-.458-.342-.96-.24v.48zm108-.48c-.422.138-1.409-.29-1.439.24 .533.104 1.301.551 1.439-.24zm-458.639.48c-.489-.418-.471.179-.96-.24-.385.668 1.036.664.96.24zm251.04.48c.646.166.464-.496.72-.72-.646-.165-.464.496-.72.72zm327.84-.24c.854-.407 1.239-.021.48.48 .82.1 1.367-.073 1.199-.96-.678.041-1.646-.206-1.679.48zm2.639-.24c-1.905.127 1.176-.078 0,0zm-338.159.72c.573-.146 1.741.301 1.92-.24-.317-.003-.22-.42-.48-.48-.244.139-1.11.076-1.44.72zm3.84,0c.21-.495-.623-1.078-.72-.48 .342.057.404.395.72.48zm97.92-.72c-1.537-.277-.528.733 0,0zm3.36.24c-.808-.729-.728.887 0,0zm85.44-.24c-.844.97.772.566 0,0zm-63.361.24c-.422.138-1.409-.29-1.439.24 .373.395 1.12.102 1.439-.24zm-131.999.48c-.578.098-.521-.438-1.2-.24-.371.724 1.242.631 1.2.24zm110.88,0c-.897.021-.685.269-1.44,0-.221.872 1.584.549 1.44,0zm22.56.24c-.44-.093-.813-.381-1.2,0 .145.138 1.138.562 1.2,0zm179.28.24c1.146.667.581-.788 0,0zm16.56-.24c-.051.29-.267.148-.479,0-.378,1.004 1.465.262.479,0zm-546.24,1.2c-.072-.472.324-.476.48-.72-.146-.014-.284-.036-.24-.24h-.48c.041.359-.086.886.24.96zm346.079-.48c.073.979-.501.128-.96.24 .143.766-.45.743 0,1.2 1.053.104.788-.735 1.681-.24 .113-.754-.3-.981-.721-1.2zm-134.4.96v-.72c-.538-.184-.765,1.108-1.2.24 .186-.054.473-.007.48-.24h-.72c-.337,1.057.791.65 1.44.72zm-190.079-.24c-.053.187-.201.279-.48.24-.054-.187-.007-.474-.24-.48-.313.319-.147.724.24.96-.042-.325 1.389-.311.48-.72zm93.119-.24c-.492-.275-1.144.377-.48.48 .003-.317.421-.219.48-.48zm359.521,0v.72c.869.13.869-.85 0-.72zm-225.84.24c-.061.323-1.271-.085-1.44.72 .797-.077.907.533 1.44.72-.146.014-.284.036-.24.24 .429-.292 1.396-.044 1.681-.48-.976.096-.74-1.022-1.441-1.2zm224.4.24c2.881.128-1.114-.799-.24.24 .013-.146.036-.284.24-.24zm-492.24,0v.72h.48c-.023-.377.032-.832-.48-.72zm488.399.72c.419-.222 1.289.008 1.2-.72-.497.143-1.576-.297-1.68.24 .346.531.586-.302.72.24-.146.014-.284.036-.24.24zm3.361,0c.454-.106 1.446.327 1.2-.48-.596-.036-.996.124-1.2.48zm-414.72.48c.418-.018.746.054.96.24v-.48c-.014-.146-.036-.284-.24-.24-.001.721-.667-1.011-.96,0 .187.053.279.201.24.48zm48.96-.24c.576-.576-.788-.622-.72-.24-.003-.017.812.148.72.24zm.96.24c.413.013.615-.185.72-.48-.413-.013-.616.185-.72.48zm233.76.24c.871-.009 1.895.135 2.16-.48-.759-.358-1.642-.049-2.16.48zm-365.76,0c.377-.023.832.032.72-.48h-.48c0,.241-.195.286-.24.48zm387.36.48h.72c-.038-.282.041-.681-.24-.72-.054.187-.007.474-.24.48-.037-.283.042-.682-.239-.72-.001.32-.001.64-.001.96zm-325.44,0h.72c-.022-.377.032-.832-.48-.72 .01.33-.113.527-.24.72zm50.88-.24c.339-.767-1.436-.607-1.44-.24 .586.239.511.08 1.44.24zm.96-.24c-.307-.013-.332-.308-.72-.24-.373.591.815.706.72.24zm16.8.24c.808.729.727-.888 0,0zm119.039.24c.296-.798-1.622-.587-1.68-.24 .662.516 1.004-.139 1.68.24zm-183.599-.24c-.729.808.887.728 0,0zm29.28.48c.284.034.544.427.72,0-.284-.035-.545-.428-.72,0zm55.2.24c-.789.116-1.266-1.125-1.68,0 .424.531 1.19.544 1.68,0zm221.28.24c.483-.912-1.091-.952-1.2-.48 .765-.206.742.378 1.2.48zm-151.68,0c.413.013.615-.185.72-.48-.413-.013-.616.185-.72.48zm-239.04.72c.418-.018.746.054.96.24-.043-.524.196-.764.72-.72 .054.187.007.474.24.48v-.72c-.418.018-.747-.054-.96-.24 .231.871-1.079.202-.96.96zm129.119-.24c.21-.495-.622-1.078-.72-.48 .379.022.189.612.72.48zm35.52.24c.734.174.706-.414 1.44-.24v-.72h-.72c.131.955-.849-.259-.72.96zm87.601-.48c-.097.753.935,1.604 1.44.96-.447-.033-.802-.158-.96-.48 .494.21 1.078-.623.48-.72-.209.362-.36-.066-.96.24zm2.64.72c-.018-.418.054-.747.24-.96-.655-.022-.483.399-.96,0-.042.601.537.583.72.96zm1.44-.96c-.547-.067-.902.058-.96.48 .424.155 1.191,1.184 1.68.48-.374-.063-.167-.526 0-.72-.749-.121-1.162.566-.72-.24zm9.36.48c.353-.7-1.072-.7-.72,0h.72zm142.799.24c.577-.576-.787-.622-.72-.24-.002-.017.813.148.72.24zm26.401-.24c-1.379-.713-.79.757 0,0zm3.599.24c.548.067.902-.058.96-.48-.446.033-.801.158-.96.48zm-195.599.24c-.585.278.268,1.13.48.48-.318-.003-.22-.421-.48-.48zm163.44.24c-.146.014-.284.036-.24.24 1.093.135 2.427,1.1 3.359,0-1.136.042-2.278-.175-2.64-.24-.014-.146-.036-.284-.24-.24-.013.147-.035.284-.239.24zm114.72.24c.512.516 1.307.089 1.439-.48-.635.004-1.413-.133-1.439.48zm-303.84.48c.359-.041.886.085.96-.24-.319-.312-.894-.317-.96.24zm295.199.24c.203-1.141-3.059-.699-2.88.24 .648-.4 1.088-.665 1.44.24 .575-.646 2.995.212 2.399-1.2-.769-.211-.327.791-.959.72zm-107.76,0c.561-.479 1.353.448 1.92-.24-.744.295-1.825-.921-1.92.24zm59.281.72c.359-.041.886.085.96-.24-.453-.026-.167-.793-.72-.72 .018.418-.054.746-.24.96zm-59.04.48c.613-.027.84-.44 1.2-.72-.578.099-.521-.438-1.2-.24 .189.823.675-.021 0,.96zm64.08-.48c-.017-.153-.783-.807-.72-.24 .061.549.764.635.72.24zm-267.6,0c.033.447.158.802.48.96 .067-.547-.058-.902-.48-.96zm205.92,0c-1.119.425.224,1.126 0,0zm.239.72c1.437-.311 1.526.253 2.4-.48-.877-.179-1.802-.398-1.92.24-.317-.003-.22-.421-.48-.48v.72zm-207.839,0c.418-.018.747.054.96.24-.072-.472.324-.476.48-.72-.69-.05-1.219.061-1.44.48zm-30,.48c-1.538-.277-.527.733 0,0zm31.2,1.2c.206-.606 2.694-.17 1.92-.96-.747.219-2.39.16-3.12.48 .738-.179.461.659 1.2.48zm-10.8,0c.013.146.036.284.24.24 .051-.29.266-.148.48,0 .054-.187.007-.474.24-.48 .317.002.219.42.48.48v-.72c-.83-.195-1.013.448-1.44,0v.48zm-5.04.72c.655.021.483-.4.96,0v-.48c-.014-.146-.036-.284-.24-.24-.075.413-.834-.312-.72.72zm8.4-.48c-.275.492.377,1.144.48.48-.133,0-.272-.194 0-.24 .014.146.036.284.24.24 .031-.431-.239-.562-.72-.48zm-11.04.96c1.441.012-.184-.218.48-.72-.431-.031-.562.238-.48.72zm9.12.96h.48v-.48h-.48v.48zm2.639.24c-.139.965.71-.119 1.44.24 .027.292.072.568.48.48 .021-.655-.4-.483 0-.96-.824-.105-1.344.095-1.92.24zm-7.199.24c-.204-.204-.685.174-.72.24-.227.421.885-.074.72-.24zm-2.64.72c.808.729.727-.887 0,0zm1.44.72c.013-.413-.185-.615-.48-.72-.013.413.184.615.48.72zm-5.52.24h.72c.21-.494-.623-1.078-.72-.48 .29.051.147.266 0,.48zm-18.24,1.44c.165-.646-.496-.464-.72-.72-.144.623.096.864.72.72zm10.32-.72c-.051.29-.266.147-.48,0-.376,1.004 1.465.262.48,0zm173.76-28.56c.914.194.736-.704 1.439-.72 .124,1.023 2.812.933 2.641.24-.659-.386-1.108-.016-1.92.24-.058-.343-.396-.405-.48-.72-.565-.005-.706.414-1.439.24 0-.133-.194-.272-.24,0 .408.098-.052.309-.001.72zm7.92,0c-.146-.014-.284-.036-.24-.24 .187-.054.474-.007.48-.24-1.33-.358-1.587-.643-2.881-.24 .283.037.682-.042.721.24-.878.052-.921.33-1.681,0v.48c.014.146.036.284.24.24 .762-.535 2.499-.266 3.361-.24zm-10.8-.48c.177,1.203-.885-.319-.96.48 .187.053.278.201.239.48 1.37-.096 2.808-.209 2.641-.72-.014.146-.036.284-.24.24-.095-.413.356-.615 0-.72-.586.531-.936.674-1.68.24zm15.12.72c-.904-1.041-3.027-.526-3.841-.48 .244,1.155 2.182.673 2.4.24-.21,1.119.622-.331.72.48-.106.693-1.813-.213-1.92.48 .819.013 2.577,1.406 3.601.24-.104.119-.818-.079-.721-.24 .758.118.848-.433 1.681-.24 .165-.646-.496-.464-.721-.72-.522.789-1.067.729-2.399.96 .771.21.497-.623.96-.72-.001.133.194.273.24,0zm5.76,1.92c1.133-.099 1.317-.076 2.16-.72 .01.331-.113.527-.24.72 .859.02 1.387.373 2.16.48 .054-.187.006-.474.239-.48 .36.636.801-.034 1.921.48-.011.33.112.527.239.72-.422-.345-.547-.22-.479.48 .893.253.471-.809.96-.96 1.074.058 2.744,1.495 3.359.48-.316-.002-.219-.42-.479-.48-.058.422-.413.547-.96.48 .354-1.074-.703-.737-.48-1.68-.817-.178-.396.884-.96.96 .072-.472-.324-.476-.479-.72 .282-.038.681.042.72-.24-1.433-.313-.344.013-1.2.48-.41-.689-1.642-1.236-2.16-.48 .014-.307.309-.333.24-.72-.894-.254-.774.505-1.2.72-.01-.331.113-.527.24-.72-1.798-.026-1.979-.336-4.08-.72 .036.756-1.339.101-.96,1.2 .633-.062.788-.494.72.48 .651-.069 1.132-.309 1.44-.72 .217.658.884-.469.96.48-.704.337-1.181-.275-1.681.48zm-25.2-1.2c.396.004.134.666.479.72 0-.133.195-.272.24,0-.776.507-1.914-1.552-1.92,0 .001-.133.193-.272.24,0-.377.103-.205.755-.96.48 .094-.343.288-.405 0-.72-.597.026-.743.45-1.2,0-.131.349.28,1.241-.24,1.2-.476-.494-.476-.226 0-.72-.882-.496-1.327.064-2.16.24 .765-1.135-2.355.004-2.399-.48 .413.013.615-.185.72-.48-.929.5-.392-.358-1.439-.24-.072.472.323.476.479.72-.938.379-.497-.623-.96-.72-.037.283.041.681-.24.72 .013-.413-.185-.615-.479-.72-.028.74-1.67-.447-.96.24 .732.388-.705,1.248-.96.72-.188.593-.08.71-.721,1.2-.509-.236-1.069.073-1.68-.48-.054.186-.007.473-.24.48 .261-.78.568-1.512 1.2-1.92h-1.68c.13,1.49-1.882.838-1.92,2.16 .349.131 1.24-.28 1.2.24-1.333-.066-.872,1.292-1.2,1.68-.142-.499-.462-.818-.96-.96-.173.896-1.649.499-2.4.72-.258.076-.191.471-.72.48-.625.011-1.022-.498-1.68-.24-.588.319.264.893-.24.96 .002-1.236-3.478-.648-4.08-.48 .413-.013.615.185.72.48-1.19.391-.765-.835-1.68-.72 .341,1.07-1.118.217-1.44.24-.087.006.02.479-.24.48-.001,0 .002-.48 0-.48-2.246-.049-5.466.268-8.159,1.44-1.496-.328-1.832-2.075-4.08-2.16-.038.282.041.681-.24.72 .037-.321-.377-1.323-.48-.72 .496.474-.165.64-.72.72v-.96c-2.147-.089-3.143,1.07-5.52.24-.038.282.041.681-.24.72-.292-1.536-2.04.061-2.64-.72 .261-.058.576-.395.239-.48-.116.427-.256-.104-.479-.24 .029.601.458.751-.24.96-.248-.254-.495-1.714-.96-.96 .328.19-.873.872-1.2,1.2 .094-.342.288-.405 0-.72 .241,0 .286.195.48.24 .01-.331-.113-.527-.24-.72 .187-.054.474-.006.479-.24-.832.192-.922-.357-1.68-.24-.053.187-.201.279-.479.24-.095.413.355.615 0,.72-.728-.407-2.689,1.744-2.4.72-.601-.041-.751.369-.96.72 .359.041.886-.086.96.24-1.855.71-1.002.307-3.6.72-.175,1.051.477-.193.479.48-.377.103-.205.755-.96.48 .035-.284.428-.544 0-.72 .066.449-1.69-.505-1.92.24 .146.414 1.139-.019 1.2.48-.679-.198-.622.338-1.2.24 .019-.418-.054-.746-.24-.96-1.417.069-1.6.352-2.88-.24 .755-.731 2.185.169 2.16-.72 .051.29.267.147.48,0-.035.284-.428.544 0,.72 .358-1.333.849-1.058 1.92-1.68 .054.186.006.474.239.48-.306-.601.122-.751-.239-.96-1.911-.383-3.409.472-5.761.72-.095.413.356.615 0,.72-.569-.49.33-.95-.239-1.44-.914.797-2.424-.151-2.4.24 .187.054.474.006.48.24-1.325.182-3.65,0-3.841.72 .24-.243 1.309-.091 1.681.24-1.907.32-5.557.465-7.44,1.44 .105-.055.295.237 0,.24-1.736.133-3.812-.34-5.04.72 .087-1.017-1.04-.21-1.44-.24-.184.538 1.108.765.24,1.2-.485-.874-.937-1.336 0-1.92-1.248.394-3.226-.474-3.36.48-1.645-.194-4.759.1-7.44,1.2 .591-.373.706.815.24.72-.273-1.089-1.512-.124-1.68-.96-.063.337-.526.274-.72.48-.037-.049.047-.464 0-.48-1.971-.65-3.88.093-5.28-.24 .191.026.728.793.24.72-.325-.582-.48-.149-.72-.48 .427-.116-.104-.256-.24-.48 .736-.384 2.096-.143 2.16-1.2-1.066.754-1.723-.426-2.16.48-.554-.148-1.448-.476-.96-.96h-.48c-.27.051-.374.266-.48.48 .293.027.568.072.48.48-1.052-.175.193.477-.48.48-.051-.29-.266-.147-.48,0-.029-.611-.349-.931-.96-.96-.276.425-.047,1.876-.72,1.2-.211.771.791.329.72.96-2.319.455-4.874.422-6.72.48-.452.423.328.743-.48.96v-.48c-1.081.2-2.332.229-3.12.72-2.282-.747-4.676,1.039-6.48.24 .116.836-1.171.269-1.2.96-.051-.29-.266-.148-.48,0-.054-.187-.006-.474-.24-.48 .041.949-.369-.077-.72.48 0-.241.194-.286.24-.48-.679-.425-.797.629-1.44.72 .053-.007-.45-.453-.72-.48-.991-.098-3.184.235-1.92.96 .027-.292.072-.568.48-.48-.495.423-.21.743-.48.96-.413-.538-3.488.476-4.08.24 1.466.707.051,1.891-.48.24 .017.051.398-.102.24-.24 .063.055-.982-.157-.96-.24 .15-.571-1.119.292-.72-.72-.908.649-5.522.303-4.32,1.2-1.909-.848-3.697,1.288-4.32.48-.254.175-.028.722-.48,1.2 .613-.126.84-.318 1.2.24-.947-.545-1.104.488-1.68.96 .071-.631-.931-.189-.72-.96 .566.353.446.507 1.2.24-.396-.534.051-1.301-.24-1.44-.209.362-.359-.066-.96.24-.095.413.356.615 0,.72h-.48c.035-.284.427-.544 0-.72-.534.722-.283.838-.24,1.92-.349-.131-1.24.28-1.2-.24 .628.068 1.033-.088.96-.72-.292-.027-.568-.072-.48-.48-1.239-.368-1.057,1.622-1.68.48 .016,1.077.52,2.12-.48,1.68 .186-.054.473-.006.48-.24-.317-.003-.219-.421-.48-.48-.117.427-.256-.104-.48-.24 .211.495-.791.909-.72.48 .571-.481-.436-.063-.48.24-.206-.56.839-1.034.24-1.2-.249.198-1.088.131-.24.72-.307.013-.333.308-.72.24 .072-.472-.324-.476-.48-.72-2.348.571-4.592-.004-6.48,1.2-.098-.302-.309-.49-.72-.48 .013.413-.185.615-.48.72-.269-.993-3.45-.167-3.84.24-.698-.666-2.503-.245-2.88.72 .5-1.219-1.755-.517-2.16,0-.205.26.222-.294-.72-.24-.584.034-1.309.66-1.68.72-.621.1-1.6-.051-2.16,0 .186-.054.473-.007.48-.24-.187-.054-.474-.006-.48-.24 .929.266.854-.849 1.44-.24-.041-.359.085-.886-.24-.96-.703.498-1.477.923-2.64.96 .572-1.394-.878.362-1.2-.72-.334.306-.104,1.175-.72,1.2 .498-.477-.255-.549-.48-.96-.256.224-.074.885-.72.72-.762-.493.678-.479 0-.72-.554-.073-.267.693-.72.72 .01-.039-.013-.479 0-.48-1.727.146-.881.231-2.16,0-.446-.081-.861.225-1.44.24-1.264.033-4.032-.95-3.6,0-.547-.33-.902.619-.96,0 .002-.317.42-.219.48-.48-1.125.076-2.906.503-3.6.24-.231.871 1.079.201.96.96-.75-.074.61.693-.24.72 .013-.449-.185-.508-.48-.24-.101-.459-.087-1.033-.72-.96-.45.057.136.395-.24.48-.232-1.268-.828.23-.96-.72-.578-.098-.521.438-1.2.24-.041.359.085.886-.24.96-.12-.437-2.163-.979-1.68-.48 .638.083.81.63.96,1.2-.475-.583-3.413-.905-4.08.24 .168-1.229-1.026.406-1.2-.48 .997-.033.048-.158 0-.48 1.102-.118.186-1.323.48-.72-.67.084-2.057,1.079-3.36.72 .186-.054.473-.007.48-.24-1.777-.746-2.659.31-3.6.48 .868-.946-1.834-1.03-1.68,0-.334-1.985-4.14-.5-6-.96-.414.146.019,1.139-.48,1.2-.027-.293-.072-.568-.48-.48-.587.319.264.893-.24.96-.358-.442-.758-.842-1.2-1.2-.341.889-.562.507-1.44.96-.208-.351-.359-.761-.96-.72-.189.499-1.327.77-1.68.72 .003-.317.421-.219.48-.48-1.25.013-3.287.077-4.32.96 .58-.608-.714-.696-1.44-.72-.526.593-.635,1.605-1.68,1.68 .783-.779-1.049-.169-.72-1.2 .167-.474 1.339.059 1.44-.48-.284-.276-.848-.272-1.44-.24-.027.613-.44.84-.72,1.2-.447-.033-.802-.158-.96-.48 .62.521 1.361-.221.72-.72-.489.42-1.256.02-1.68,0 .312.595-.536,1.165 0,1.2 .058-.261.396-.576.48-.24-.116.284-.256.544-.48.72-.597.037-.743-.377-1.2-.48-.033.447-.158.802-.48.96 .175-1.051-.477.193-.48-.48 .343-.094.405-.288.72,0 .296-.777-.776-.184-.48-.96 .502.506.902-.316 1.2-.72-.788.092-1.059.702-1.68.96 0-.241-.194-.286-.24-.48 .003-.317.421-.219.48-.48-.715-.172-2.258-1.227-2.64-.24 .645-.166.464.496.72.72-.849.129-1.236-.204-1.44-.72 .712.636.38-.711.24-.72-.815.631-5.855-1.345-5.52.72 .088-.809-1.009-.431-.96-1.2-2.218.682-2.837-1.446-6.48-.96 .056.744.851.749 1.44.96 .023-.377-.032-.832.48-.72-.136.584-.206,1.234-.96,1.2v-.48c-2.57-.517-4.852.103-6-.96 .067.975-.088.542-.72.48-.027.293-.072.568-.48.48-.33.547.619.902 0,.96-.003-.317-.42-.219-.48-.48 .337-.063.273-.526.48-.72-.373-.347-.935-.505-1.44-.72-.095.413.356.615 0,.72-.125-.355-.355-.605-.48-.96-1.843-.093-3.264.123-4.08.24 .963-.138-2.118-1.108-2.16.24 .379-.939-.623-.497-.72-.96 .553.073.267-.694.72-.72-.348,1.148 1.004.597 1.68.72-.054-.454.271-.53.24-.96-.854-.373-.145.815-.72.72-.054-.186-.007-.474-.24-.48-.054.186-.006.473-.24.48-.803-.495-.209-.21 0-.48-.502-.138-.685-.595-1.44-.48-.33.547.619.902 0,.96-.194-.161-.311-1.563-.72-.72 .28.041.261.379.24.72-.343.058-.405.395-.72.48 .527-.715.05-.877-.24-.96 .261-.058.576-.395.24-.48-.724-.15-3.034-.362-3.84.24v-.72c-.592-.032-1.156-.037-1.44.24-.035.914-.026,1.499-.24,1.68 .128-.346-.935-.585-.24-.72-.001.133.194.272.24,0-.624-.646-.724.294-1.44.24 .001-.241-.194-.286-.24-.48 .359-.041.886.086.96-.24-.146-.013-.284-.036-.24-.24-.014-.146-.036-.284-.24-.24-.236.388-.641.553-.96.24 .049.689-.061,1.219-.48,1.44 .24-.623.421-1.607-.24-1.92-.333.147-.036.924-.48.96-.058-.343-.395-.405-.48-.72 .754.114.98-.299 1.2-.72-1.604-.438-2.586.585-3.36-.48 .141.673-1.134.512-.48,0-.472-.072-.476.324-.72.48 .2-1.167-3.626-1.188-2.64-.24 .058-.261.395-.576.48-.24-.247.149.031,1.002-.96.96-.312-.563.122-.537-.48-.96 .392.175 1.044-.477.48-.48-.071.224-.649.224-.72,0 .188-.347-.419-.32.48-.72-1.125-.329-2.906-.124-3.6-.24-.033.768.236,1.836-.72,1.68-.205-.765.209-.911.48-1.2-.477-.003-.305-.655-.96-.48-.054.186-.007.473-.24.48 .067-.547-.058-.902-.48-.96-.976.742-1.026,1.133-1.92,1.68-.29-1.009.388-1.052.48-1.68h-2.4c-.306.601.122.751-.24.96-.424-.507-.834-.417-.48-1.2-.88-.511-1.435.478-2.16.48-.022,0 .029-.461 0-.48-.438-.282-2.529.174-.96.48-1.22-.325-2.018.13-2.64-.48 .126.613.318.84-.24,1.2 .292-1.142-.921-.927 0-1.44-.96.08-1.333-.428-2.4-.24-.076.557.039.921.24,1.2-.167.188-1.339.534-1.44,0 .054-.187.006-.474.24-.48 .054.186.007.473.24.48-.058-.855.277-.03.48-.48 .003-.008-.212-.961-.24-.96 .019-.001-.894,1.217-1.68,1.44-.761.216.058-.267-.48.48-.395-.478-.965-.548-.24-.96-1.002-.269-2.273.428-1.44,1.2 .003-.242.42-.302.48,0-.29.051-.147.267 0,.48-.566-.867-.917.911-1.44,0 .781-.045.173-.417.48-1.2-.359.004-.981-.892-1.2-.24 .588.027.051.793-.24.72-.241-.677-.352-.602-.48-.96-.518.138-3.035-.335-3.36.72-1.115-1.113-3.139-.417-3.6,0-.028-.246 1.035-.485.24-.72-.098.409-.31-.051-.72,0 .064,1.956-.873,1.442-2.16,1.92 .14-.917-.008-.751.72-1.2-1.646.306-2.519.144-3.84.48 1.266-.129.249.388 0,.72-.103-.846-1.834-.028-.72-1.2h-1.2c.956,1.458-1.872.831-.48.96-.86-1.773-3.375.617-4.08,0 .661-.233.701,1.341.48,1.2 .039-1.114-1.477-.002-.96-.96-.831-.075-3.059,1.241-1.92.24-2.057.328-2.474.855-4.56,1.2-.588.32.433.724-.24.96-.343-.058-.405-.395-.72-.48 .043.92-.196.087-.72.24-.367.378.342,1.338-.48,1.68-.054-.186-.006-.473-.24-.48-.084,1.032.859.665.72,1.2 .063-.337.527-.274.72-.48-.071.489-.649.47-.72.96 1.034.313.759-.681 1.2-.96 .688,1.157.151-.685 1.2-.48-.211.139-.761,1.294-.24.72 .193-.984.988.125 1.44-.48 .211-.771-.791-.329-.72-.96 1.956.905 1.456.679 3.6-.96v.72c-.278-.585-1.13.268-.48.48 .041-.28.379-.261.72-.24 .248-.904.931-1.357.24-1.92 1.015.016.568.548.24.96 .43.53 1.334.586 1.92.96-.489-.205-1.491.209-.72.48 1.214-.231 2.598-1.008 2.4-1.92 .175.545 1.015.425 1.44.72-.238-1.219 1.15.011.72,0 .538.014.372-.336.96-.48 .721-.176 1.824-.054 2.4-.48 2.033.526 3.516-1.419 5.04-.48 .054-.186.006-.473.24-.48-.03.601-.458.751.24.96 .077-1.143 1.37-.139 1.44.24 .308-.412.958-.482 1.2-.96-.043.92.197.087.72.24v.72c1.456-.396 2.325.097 3.12-.96-.601.03-.751.458-.96-.24 .572-.501 1.259.336 1.44.96 .833.193.922-.357 1.68-.24-.392-.529.029-1.324.48-.72-1.349.187.953.139 0,.72 1.116-.387 2.366-.158 3.12,0 .038-.283-.041-.681.24-.72 .348,1.061.353.375.96,0 .236.325.64.48.96.72 .379-.939-.623-.497-.72-.96 1.014.054 1.55-.37 2.4-.48 .095.413-.356.615 0,.72 .063-.337.526-.273.72-.48-.013.307-.308.333-.24.72 .672-.336 1.059-.956 1.2-1.2 .405.375 1.079-.289 1.44.48 .317.601-.949.751-.24.96-.008-.145 1.208-.145 1.2,0-.003.396-.666.134-.72.48 1.729.14 2.289.388 3.36-.24 .312.954 1.792.365 1.92,0 .295,2.069 3.78.791 4.56,1.44-.104-1.063.507-.56.96-.48 .317-.601-.949-.751-.24-.96 .527,1.049 1.651,2.538 2.4,1.44 .275.728.942-.06.48.72 1.597.465 2.57-.157 3.36,0-.413-.013-.615.185-.72.48 .418-.018.746.053.96.24 .054-.186.006-.473.24-.48 .282.939 1.928.784 2.64.96-.179-.044-.508.235-.48.24 1.685.328 2.302.065 3.6.24-.285-.639 1.183-1.388 1.68-.48-.645-.165-.464.496-.72.72 .83-.218 1.152-1.086 1.2-1.44 .388,1 1.038.34 0,1.2 .908-.347.461.66 1.2.48 .461-.487.951-.573.96-.96 .641.16.879.721 1.2,1.2 .637-.002 1.371.09 1.68-.24 .426.472 2.268.571 2.16.24-.596.036-.996-.124-1.2-.48 1.021-.193 1.332.578 2.16-.24-.041.681.812.468.48,1.44 .664-.03.824-.458.48.24 .755.275.583-.377.96-.48 .745.288 1.171.292.48.96 .592.032 1.157.036 1.44-.24-.268.346-.258.586.24.72 .041-.28.379-.261.72-.24 .275-.755-.377-.583-.48-.96 1.184.09.875.837 1.44,1.2-.508-.326.99-.655.48.24 1.625.346 1.879-.681 2.64-1.2 .278.355.278.605 0,.96 .967.462 1.354.355 2.64.72 .095-.413-.356-.615 0-.72 .236.324.641.479.96.72 .106-.453-.326-1.446.48-1.2-.552.604 1.283,1.817 1.92,1.2-.957.109.372-.859.72-.96-.33.308-.418,1.436.24,1.44 .293-.347.916-.364 1.2-.72 .094.342.288.405 0,.72 .497-.143 1.577.296 1.68-.24-.389.172-.389-1.132 0-.96-.013.449.185.508.48.24-.119.754.827.634.24,1.2 1.04,0 .597-1.483 1.68-1.44-.01.331.113.527.24.72-.613.027-.84.44-1.2.72 1.318-.323 1.625.045 2.88.24 .33-.547-.619-.902 0-.96 .742.138.75,1.01 1.68.96 .211-.771-.791-.329-.72-.96 1.022.338 1.501,1.219 2.64,1.44 .588-.319-.264-.893.24-.96 .679.198.622-.338 1.2-.24-.733.632.974.808.24,1.44 1.408-.338 2.911.992 3.36-.96-.413-.095-.615.356-.72,0 .504-.075.763-1.611 1.44-.72-.292.027-.568.072-.48.48 .307.328 1.133.328 1.44,0-.079,1.115 1.631.623 1.92,1.92 1.692.172 3.902.277 5.28-.48-.651-.149-1.905.305-2.16-.24 .854.373.145-.815.72-.72-.241.801.333.787.96.72 .452-.423-.328-.743.48-.96 .018.418-.054.747-.24.96h.72c.146-.014.284-.036.24-.24-.389.171-.389-1.132 0-.96 .151,1.458.742-.192 1.92.24 0,.241-.194.286-.24.48 1.032-.267.307-.112.72.24 .678-.412-.089-.944.72-.96 .175.655-.477.483-.48.96 .972.393 1.105-1.27 1.68-.48-.392-.175-1.044.477-.48.48 .013-.252.308-.189.24.24 .574-.146 1.742.301 1.92-.24-.293-.027-.568-.072-.48-.48 1.688,1.09 2.992-.974 4.8-1.2-.097,1.297 1.709.691 2.4,1.2-1.186-.228-.131.935-1.2.24 .243,1.409 1.946-.015 2.64.72-.744.136-1.825-.065-1.92.72 .791-.277 1.417.236 1.44-.48 .836.071-.02.649.48.72 .242-.155.826-.146 1.68-.24 .072-.472-.324-.476-.48-.72 .982.103 1.253-.507 1.68-.96-.314,1.034 1.143.297.96,1.2 .655.022.483-.4.96,0 .095-.413-.356-.615 0-.72 .525,1.107 1.655-.251 2.16.24 .166-.646-.496-.464-.72-.72 .37.724-1.242.631-1.2.24 1.946-1.138 1.64.241 3.12-.96 .417,1.218-1.042.558-.96,1.44 1.212-.218 1.333-1.124 2.16-.24 .582-.325.149-.48.48-.72 .932.306 2.745,1.098 2.88-.48 .331.31.237,1.042.24,1.68 .655.021.483-.4.96,0 .362-.359.072-1.369.96-1.2 .617.023.343.937.96.96 .179-.739-.659-.461-.48-1.2 .241,0 .286-.195.48-.24-.199.678.338.622.24,1.2 .739.179.461-.659 1.2-.48v-1.2c.85-.21.59-.03 1.44-.24v.72c.753-.267.634-.112 1.2.24-.209-.77.37-.751.72-.96-.018.336.054.918.24.48 .229-.447-.719-.802 0-.96 .352.566.506.447.24,1.2 .954.233.099-1.341.96-1.2 .023.377-.032.833.48.72 .45-.058-.136-.395.24-.48 .053.187.201.279.48.24 .054-.186.006-.473.24-.48 .407,1.097-.161,1.665-1.2,1.2 .072.472-.324.476-.48.72 .9-.094 1.566-.104 2.88-.24-.281-1.394 2.466-1.274 1.2-.48 .906.106 1.127-.473 1.68-.72-.168,1.532.619.691.72.72 .052.015-.051.448 0,.48 .419.261 1.627.025.96-.24-1.151.091-.204-.416-.96-.72 .912-.032 1.417.343 1.68.96 .809-.071 1.64-.121 2.16-.48-.495.211-.909-.791-.48-.72 .001.655 1.46,1.079 1.92.48-.261-.057-.576-.395-.24-.48 .387.041 1.237.806 1.44.24 .076-.544.715-.636 1.2-1.44 1.104.129 1.214.009 1.92.72-.186.054-.473.007-.48.24 .922.042.931-.829 1.68-.96 .125.355.355.605.48.96-.353-.66-1.206.193-.48.48 .243-.397 1.02-.261 1.44-.48-.807.728 1.047.232.24.96h.48c.466-.257.523-.681 1.92-.48 0,.241-.194.286-.24.48 .601.317.751-.949.96-.24 .02.337-.698.274-.24.48 .553.073.267-.694.72-.72-.046,1.422.381-.293 1.2.48 .308-1.226-.699-.254-.72-.72 .175-.885.722.103 1.2-.48-.201.279-.316.644-.24,1.2 .818-.339-.089-.919.96,0 .053-.187.201-.279.48-.24 .238-.666-1.364-.679-.48-1.2-.041.949.369-.077.72.48-.033-1.323.546.311.96-.96 .027.453.793.167.72.72-.853-.373-.145.815-.72.72-.057-.368-.395-.035-.48.24 2.176.041 4.458-1.029 4.32-.72-.102-.778-1.283-.478-1.68-.96 .876.572 1.409-1.017 1.68-.96 .085.018.314.81.48.72 .333-.181-.106-.813.24-.96 1.42,1.672 3.105,1.692 5.04,1.2-.941.152.123-.913.72-.72v.72c1.119.21-.331-.623.48-.72 .142,1.463 1.192.32 1.92.24 1.484-.164 3.598.542 4.56-.48-.372-.217-.125-.884 0-.96h.48v.96c.418-.018.746.053.96.24 .204-.805 1.196-.148 1.68-1.44-.547.067-.902-.058-.96-.48 .849.421 1.237-.806 1.44-.24-.61.646-.106,1.282-.48,1.68 1.023.271 2.205-.815 3.36-.72 .018-.71.431-1.381 1.2-1.92 .205.765-.209.911-.48,1.2 .558.435 1.234-.194 1.2-.48 .59,1 .923-.404 1.44-.48-.018.002-.184.495-.24.48 .732.188 2.567-.547 3.6-.24 .095-.413-.356-.615 0-.72 .235.325.809.311.96.72 .347-1.041.536.252 1.44,0 .371-.873.88-.891.24-1.68 .241.001.286-.194.48-.24 .547.992-.417,1.193 0,1.68 .051-.29.267-.147.48,0-.1-1.189.073-.782.96-.72 .317-.601-.949-.751-.24-.96 .489.333 2.534.652 4.08,1.2 .729-.471.243-2.156 1.2-2.4 .038.282-.041.681.24.72 .022-.377-.032-.832.48-.72-.094.342-.288.405 0,.72-.491.012-1.789.42-.96.96 .072-.355 1.009-1.033 1.2-.48-.413-.013-.615.185-.72.48 1.08-.208.57.464 1.44-.24-.247.806.747.374 1.2.48 .333-.147.036-.924.48-.96-.405,1.525 2.097.144 2.4.96-.359.041-.886-.086-.96.24 1.104.555 2.3-.043 2.64-.96 .652,1.56 3.567-.577 4.32-.48 .041-.359-.086-.886.24-.96 .163.478.798-.237.96.24-.191.026-.728.793-.24.72 .308-.12 1.143-.9 1.2-.48 .024.27-.349.374 0,.48 .591-.482 1.646.346 2.16-.48-.646.166-.464-.496-.72-.72 .754-.802.75.674.48.48 .712.512 1.213.07 1.92.96 .23-1.143.918-.688.96-1.44 .836.07-.021.649.48.72 .529-.507-.308-.709-.24-1.44 .528.217 1.124-.127.96,1.2 .418.018.747-.054.96-.24-.01.331.113.527.24.72-.32-.313-.725-.148-.96.24 1.078.039 1.885-.194 2.4-.72-.29-.051-.147-.267 0-.48-.853-.373-.145.815-.72.72-.269-.051-.374-.266-.48-.48 .427-.213.61-.67 1.44-.48-.03.601-.458.751.24.96 .823-.502-.115-.902.24-1.2 .093.68 1.13-.896 1.44,0-.325.235-.48.64-.72.96 1.721-.538 2.924.065 4.32,0-.497.863-2.688.032-2.64,1.44 1.013-.498 2.165-.45 3.36-1.2-.58.898.375-.177.48.72-.336-.018-.918.054-.48.24 .752-.048.981-.619 1.44-.96-.252,1.128.81-.394.96.48-.252.013-.189.308.24.24 .231-1.031-1.179-.421-1.2-1.2 .771.21.498-.622.96-.72 .5.909 1.94-.342 3.36,0 .164-.754-.028-.981.24-1.2 0,.241.194.286.24.48-.013.307-.308.333-.24.72 .717-.019 1.338.561 2.16,0-.15-.649-.123-.042-.72-.48 1.823-.138.966-1.183 2.64-.72 .095-.413-.356-.615 0-.72 .013.307.308.332.24.72 .677-.123 1.019-.581 1.68-.72 .821,1.241 2.275.099 2.64-.24 1.058,1.454 1.737-.778 2.4.48 .333-.147.036-.924.48-.96-.332,1.388 1.662,0 .96,1.2 1.329-.092.501-.139.72-.72 .602.66 2.138.607 3.12.72 .037-.283-.042-.682.239-.72 .749-.114 1.162.299.721.72 1.791-.485 2.761-.471 4.8,0-1.31.05-2.717.003-3.36.72-.278-.971-1.488.088-1.68,0 .188.053.279.201.24.48 .7.06.828-.452 1.2-.72 .169,1.14 3.3.889 4.319.24-.686,1.104 1.374.021 1.2,0 .406.051.971.982 1.2,0 .013.307.308.333.24.72-1.039.25-3.689,1.88-2.16,2.4 .175-1.051-.478.193-.48-.48 .355-.125.605-.355.96-.48 .026,1.065-.636,1.444-1.2,1.92 .269-.346.259-.585-.239-.72-.328.446.203,1.487.239,1.68-.001-1.124 1.477-.097.48-.96 .449.013.508-.185.24-.48 .985-.294 1.621-.939 2.16-1.68-.067.547.058.902.479.96 .229-.447-.719-.802 0-.96 .793-.29.587,1.623 1.2.72-.218-.066-.807-.894-.24-.96 .821,1.071 2.316-.002 3.12.96-.689.335-1.219-.654-1.44,0 .187.054.474.006.48.24-.336-.018-.918.054-.48.24 1.175-.392 2.286-.125 1.44-1.44 .65.654.598-.621 1.44-.48 .21.424.761.701.239,1.2h1.44c.238-.666-1.363-.679-.48-1.2 .827,1.164 1.749.305 2.4-.96 .427.502-.188.902.24,1.2 .521-.693 2.791-.392 4.56-.48-.274.755.377.583.48.96-.841.528-.733-.332-.96-.72-.79.678-3.562.337-1.2.96-.587.257-1.996.152-.96.72-.585-.155-1.234-.484-1.2.48 .447.229.802-.719.96,0-.242.003-.302.421 0,.48-.112-.752.604-.676.96-.96 .036.32-.976.725-.24.96 .099-.409.31.051.721,0 .041-.359-.086-.885.239-.96 .69.335 1.22-.654 1.44,0-.956.078-.65,1.137-1.44.24-.021.655.4.483 0,.96 .655.021.483-.4.96,0 .038-.282-.041-.681.24-.72 .282.038.682-.041.72.24-.345.531-.585-.302-.72.24 .852.094 1.525.178 2.16-.24-1.267.834.258-1.135 0-.48-.319.035-.893-.807-.96-.24 .894.07-.706.597-.48,0 .7-.63.903-.266 1.921-.48-.077-.796.533-.907.72-1.44 .133,1.186.123-.25.479-.24 .369.511 1.398.362 1.681.96 .329-.547-.619-.902 0-.96 .508.292.696.903 1.439.96 .702-.774 3.477.18 3.84-.72-.057-.45-.395.136-.479-.24 .742-.315 1.288-.969 1.68-.48v.48c-.489-.419-.471.179-.96-.24 .241.677.352.602.48.96 .024-.616.894-.386 1.199-.72-.487.524.737.627.961.48-.392.042-.485-1.57.239-1.2-.201.279-.316.644-.239,1.2 .822.341 1.235.179 1.199.96 1.15.022 2.914-.597 3.36-.48-.021.378-.612.188-.48.72 1.207.316 1.934-1.093 2.4-.72-.133-.001-.272.194 0,.24-.035-.319.808-.893.24-.96 .001.133-.194.272-.24,0 .051-.269.267-.374.48-.48 .655.551.956.927 1.439,0 .014.146.036.284.24.24-.48.073-.934,1.523.24,1.2-.586-1.708 1.216-.29 2.399-.96-.632.61.615.403.721.96 .057-.663.892-.547 1.199-.96-.282-.038-.681.042-.72-.24 .349.131 1.24-.281 1.2.24-.346.134-.586.375-.72.72 .744.024 1.146-.293 1.68-.48 .011-.331-.113-.527-.24-.72 1.101-.322.994-.075 2.16,0 .179-.304.03-1.369.72-.72-.186.054-.473.006-.479.24 1.253.127 2.362.557 3.359-.72 .347.571.364.589.721.72-.324.556-1.806-.045-1.92.72 1.02-.199 2.395.169 2.399-1.2 .116.284.256.544.48.72 .01-.331-.113-.527-.24-.72h.72c.011.331-.113.527-.24.72 1.583-.162 2.32-.716 3.841-.72-.014.307-.308.333-.24.72 .89-.23 1.784-.456 2.399-.96 .076.324.342.458.24.96 .889.168.414-1.026.96-1.2 .688,1.848 1.491-.825 2.641.24 .093-.343.288-.405 0-.72 1.219-.652 2.582,1.009 3.6-.24-.319-.589-.725.432-.96-.24 .355-.125.604-.355.96-.48-.635.779.973.169.24,1.2h1.2c-.036-.596-.045-1.165.479-1.2-.011.331.113.527.24.72-.302-.053-.491-.374-.48.24 .03.53 1.019.102 1.44.24-.044-.524.196-.764.72-.72-.305.924 1.475.026 2.88.24-.283-.958 1.534-.858.24-1.44 .165.646-.496.464-.72.72-.049-.306-.698-1.176-.24-1.2 .651-.171-.172,1.132.48.96-.035-.319.807-.893.239-.96-.729.65.655-.548 0-.48-.36.106-3.037.107-2.399.24 .377.023.832-.032.72.48-.458-.451-.435.143-1.2,0-.029-.846-.35-.066-.96-.48-.241.319-.227.893-.72.96-.206-.766.378-.742.479-1.2-1.545.036-3.874.382-2.64-.96-.664-.215-2.253.493-2.16-.48 1.138.177 1.65-.27 2.641-.24 .21-1.119-.623.331-.721-.48 .494-.066.227-.894.721-.96-.392.529.028,1.324.479.72-.314-.003-.306-.666 0-.72 .054.186.007.473.24.48 .354-.924 2.514.044 3.12-.24-.011.331.112.527.239.72-.576-.468-1.813-.594-1.439,0 .225-.435 1.082.243.24.48 1.901-.415 2.433.078 4.08.72-.021.333-1.727.147-.96.48h1.199c-.234-.885.902-1.231.96-.48-.346-.269-.585-.259-.72.24 .349.371 1.229.211 1.92.24v-1.2c1.193-.329 3.455.755 4.32.48-.571.481.436.063.479-.24-.309,1.014.323.882-.96.72 .343,1.074 1.131.414 2.4.72-.687-1.019-.573-1.306-.96-2.16 .666.337 1.568-.275.72.48 1.105.018 1.39-.791.72-.72 .478-.003.306-.655.96-.48 0,.241.195.286.24.48-.422.058-.547.413-.479.96 2.06.064 3.486.185 4.08.96-.504.424-1.164-.451-.721.72-.354-.125-.604-.355-.96-.48-.229,1.109 1.562.199 1.44,1.2-.324-.075-.458-.341-.96-.24 .098.578-.438.521-.24,1.2 1.786.48 2.541.333 3.6.72 .763-.493-.678-.479 0-.72 1.234,1.84 3.634-1.372 3.841.24-.361-.383-1.011.007-1.2.48 1.206.562.492-.316 1.439-.24-.671.569.547.996.96.48-.307.947.7.581.721,1.2-.315-.308-.885-.308-1.2,0-.054-.186-.007-.473-.24-.48-.548.645.937.812.96.96-.013-.079-.637.164-.479.24 .593.289.822-.212 1.68.24 .072-.472-.324-.476-.48-.72 .331.01.527-.113.721-.24-.03.829 1.057.72 2.399,1.2-.013-.413.186-.615.48-.72-.419.489.179.471-.24.96 .926.083 1.989.025 1.44.96 .833-.205.911.007 1.68-.48-.5.38.146,1.906-.96,1.68 .011-.255-.113-.609-.24-.24-.001.241.194.286.24.48 .655.022.483-.399.96,0 .146-.495-.388-1.667.48-1.44-.358.731.078.934-.24,1.44 .547-.33.902.619.96,0-.322-.158-.447-.513-.48-.96 .283.038.682-.041.721.24-.187.054-.474.006-.48.24 1.294.005.688-.022.48.72 .349-.131 1.24.28 1.199-.24-.313-.458 1.444-.529 2.16-1.2 .66-.081 1.165,1.21 1.681.48-.399-.572.202-2.188 1.199-2.16 1.356.498.737,3.821 2.4,2.64-.211.771.622.498.72.96-.447.229-.802-.719-.96,0 .965.732 1.506-.685 1.92.24 .027-.293.072-.568.48-.48-.463.78.204-.008.479.72 .027-.848.44.025.721-.72-.473,1.271 1.432.168.96,1.44 1.253.191 1.682.683 2.399-.24 .229.447-.719.802 0,.96 .054-.186.007-.473.24-.48 .531.346-.302.586.24.72 .051-.27.266-.374.479-.48-.01.33.113.527.24.72 1.157-.133.469.234 1.44-.48-.117.546-.477,1.226 0,1.68 1.825.057 1.641-.14 2.88.24 .188-.989-1.149-.451-.96-1.44 .146.138 1.138.562 1.199,0-.283-.116-.544-.256-.72-.48 1.094-.083.138-.726.72-1.2v.48c.895-.467 1.25.537 2.641.24v-.72c-.771.199-.498.204-.96-.24 .073.291-.693.828-.721.24 .413.013.615-.185.721-.48-.613.126-.84.318-1.2-.24h.96c.063-.782-.285-1.155-.96-1.2-.037.283.041.682-.24.72v-.72c-.929.104-.854.263-1.439-.24-.589.32.433.724-.24.96 .041-.601-.369-.751-.72-.96-.229.447.719.802 0,.96-.102-1.154-.087.286-.721,0-.035-.32.977-.724.24-.96-.614.397-2.629-.749-2.88,0 .359.041.886-.086.96.24-1.014.214-1.355-.245-1.68-.72-.059.619-.413-.33-.96,0-.033.997-.158.048-.48,0-.026.453-.793.167-.72.72 .27.051.373.267.479.48-.675-.041-1.063,1.014-1.68-1.2h.72c-.075.324-.342.458-.239.96 .566-.156.285-.919 1.199-1.2-1.269-.258-4.02-.779-6-1.2-.772-.165-.93-.675-1.68-.48-.38.099-.319.822-.72.72-.368-.093-1.298-1.22-.96-1.44-1.606.064-2.983-1.766-4.08-.72 .551-1.122-1.559-1.416-2.16-2.16-.054.454.271.529.24.96-.283-.038-.682.042-.721-.24 1.07.035-.214-.615 0-1.2 .331.01.527-.113.721-.24 .507,1.467 1.937.587 3.12,1.2 .121-.704.453-.137.72-.96h.479c.137.777-.072,1.207-.479,1.44 .654-.175.483.477.96.48 .144-.675 1.814-.377 1.2.24h.96c.071-.472-.324-.476-.48-.72 .418.018.747-.054.96-.24-.01.331.113.527.24.72-.413-.013-.615.185-.72.48 1.174-.183 1.101.435 2.399,0-.702.594 2.028.757 2.4.24 .139.685 1.974.563 2.64.72 .231-1.149-1.078.125-.96-.48 .302-.098.491-.31.48-.72-1.226.307-.254-.7-.72-.72-.014.146-.036.284-.24.24 .332-.147.036-.924.479-.96 .596-.035 1.165-.044 1.2.48-.459.101-1.033.087-.96.72 1.106-.302.654,1.675 1.68.72-.525,1.142 1.633,1.153 2.641.96-.341-.971.134-1.095-.48-1.2 .041-.28.38-.261.72-.24-.152,1.112.915,1.005 1.44,1.44-.598.444-.015.439.48.24-.058.343-.396.405-.48.72 1.588.479 2.507-.061 3.84-.24-.587-.026-.051-.793.24-.72-.284.836 1.55.766 1.2,1.92 .418-.018.746.054.96.24-.067-.651 1.9.568 2.88-.48-.813,1.041 3.281.938 2.16-.24-.021.333-.612.252-.48-.24 .464.152 1.311.058.721.96 .453.106 1.446-.326 1.199.48 1.451-.412 2.297-.347 3.12.24 .287-.69 1.897.669 2.641-.48-.797.783 3.457.828 3.84.72 .16-.045-.083-.492.239-.48-.039-.001.134.449.24.48 .985.29-.038-.474 0-.48 1.521.613 1.754-.426 1.681.72 .515-.533.902-1.335 1.439-1.2-.425-.916 1.618-.337 1.92-.96-.399.754.893.981.24,1.2-.1-.604-1.851-.782-1.92,0 .591.965 1.242-.464 1.68.48 .219-.422.841-.439 1.2-.72-.076.563-.743.538-.96.96 .781-.38 1.247.345 2.16.48 .095-.413-.356-.615 0-.72 .521-.041.108.851.24,1.2-.436-.688-.796.252-1.2.48-.126.071-1.547-.295-.48.48 1.596-.167 2.062-.503 2.88-.72-.285.076-.76.218-.72,0 .204-1.097.984.296 1.44,0-.22-.235 1.017-1.051 1.439-1.44-.076,1.318.533.394.72,0 .041.359-.085.886.24.96 .236-.388.641-.552.96-.24 .589-.319-.433-.724.24-.96 .156,1.684 2.565-.147 3.12.48 .414-.146-.019-1.138.479-1.2 .054.186.007.473.24.48 .054-.187.007-.474.24-.48 .316.601-.949.751-.24.96 .593.054 2.151.006 2.641-.24-.134,0-.272.194 0,.24 .339-1.014 1.076-1.535 1.68-1.68-.134.001-.272-.194 0-.24 .808.217.028.537.479.96-.636.003-1.413-.133-1.439.48 .836.071-.021.649.479.72 .193-.846 1.234-.852 1.681-.24 .168-.739.168-.461 0-1.2 .358.041.886-.085.96.24-.809.217-.028.537-.48.96 .896.255.38-.9 1.2-.72-.744,1.02.629.176 0,.96 .994-.216.813.106 1.68.48 .041-.359-.085-.885.24-.96 .355.278.605.278.96,0-.01.331.113.527.24.72-.346-.269-.586-.259-.72.24 1.956.036 3.907.068 4.8-.96v.72c.757.118.848-.433 1.68-.24 .495-.423.21-.743.48-.96 .462.898 1.743.977 2.88,1.2 .151-.728 1.101-.659 1.439-1.2-.476.554.061.267.24.72-.294-.077-1.482.039-.72.24 2.766-.293 3.438.362 5.04-.48 .118,1.063 1.173.214.96,0 1.131.826 2.405.018 3.6.72-.804-.148-1.632.907-1.2,1.2 .695-.027-1.242.296-.96-.48-.335.798-.985-.064-.96.72-.553-1.261-1.47.625-2.399,0 .265-.268 1.245.051.72-.48-.4.17-2.085-.118-2.4.24 .167-.423.266-.743 0-.96-.338.486-2.687-.15-2.64.72 .209.709.359-.557.96-.24 .036.596-.124.996-.479,1.2 .802-1.876-.709.528-.721-1.2h-1.68c-.037.282.041.681-.24.72 .013-.413-.185-.615-.479-.72 .305.908-1.314-.559-.721.48 .269-.695.259.368-.239.24-.429-.837-2.345-.062-2.641.72 .123-1.118-1.252-.418-1.92-1.2 .147-.333.924-.036.96-.48-1.204.156-3.034-.314-3.84.24 .52.077-1.099,1.264-1.439.48 .674.246 1.668-.374.96-.72-1.88-.005-4.083,1.14-4.32.24-.003.477-.655.305-.48.96 .561-.178 1.353-.167 1.92.24-1.033.086-1.606.633-2.159,1.2 .497-.75-.256-.404-.48,0-.583-.544-1.272-.531-1.2,0-1.188-.91-3.431.053-4.319-.48 .016.009-.381-1.158-.24-.48 .16.816-1.021,1.518-1.44.96 .729.001.426-.84 0-1.2-.432.849-1.462,1.098-2.399,1.44 .013-.307.308-.332.239-.72-1.308-.108-1.972.428-3.359.24 .566.952-.398.994-.96,1.44 .449-.013.508.185.24.48 .501.18 2.605.906 2.159.48-.002-.317-.42-.219-.479-.48 .058-.422.413-.547.96-.48-.067.975.088.542.72.48-.399.477.021.305 0,.96 2.202.448 2.285-1.152 3.601-.48-.036-.595-.045-1.165.479-1.2-.575,1.042 1.092.157 0,1.2 1.149-.631 1.439-.077 2.4-.48-.393.175-1.044-.477-.48-.48 .153.202 1.122.751 1.2.24-.275-.291.961-1.107 1.44-1.44-.138.514-.986,1.147 0,1.44 .745-1.227 1.192-.343.96.24 .469-.331 1.264-.336 1.439-.96 .301,1.304 2.303,2.172 3.36,1.92-.493-.067-.479-.641-.721-.96 .343.094.405.288.721,0-.044.679.902.559.24,1.2 .948-.244 1.067.137.479-.72 .761.522 1.185-1.625 2.4-.72-.338.063-.274.526-.48.72 .884.67 2.255-.447 2.16.24 1.018.057.902-1.018 1.92-.96 .068.423-1.13.743-.479.96 .41-.229.483-.796.96-.96-.035.284-.428.544 0,.72 1.885-.114 2.655-.388 3.84-.24-.51-.077.343-.743.479-.96 .053.187.201.279.48.24-.269.346-.259.586.24.72 .021-.333.611-.252.479.24 .812.091 1.024-.416 1.44-.72-.669.384-.664-1.037-.24-.96 .271.529 1.057.543 1.68.72-.255-1.026.075-1.223.24-1.68 .063.374.526.167.72,0 .005,1.294-.022.687.72.48-.074,1.617 1.963,1.26 2.4,0v.72c1.487-.356 2.886.146 3.84,0-.028.004.151-.442.24-.48 .343-.146.597.183.72.24-1.432-.664.393.811.48.48-.607.205-2.15.713-1.92.96 .888-.487 1.429.163 2.64,0 .222-.579.702-.897 1.2-1.2-.368-.057-.035-.395.24-.48 .342,1.142-.674.927-.96,1.44 1.196.226 1.071-.747 1.68-1.2 .074-.055 1.129.039 1.2-.72 1.572-.255 2.322.917 3.6.24 .026.597.45.743 0,1.2 1.25.411 1.475-.505 2.4-.72v-1.2c-.733-.013-.576.864-1.44.72 .498-.75-.256-.404-.479,0 .01-.331-.113-.527-.24-.72-1.932.177-2.505-.118-3.84.24 .277-.355.277-.605 0-.96 .868.404 1.237-.54.239-.48 .452-.497 1.248-.277 1.44-.48-.322-.158-.447-.513-.479-.96 1.153-.101-.286-.087 0-.72 .977-.002.946.831 1.439.72-.125.355-.355.605-.479.96h1.199c.373-.854-.814-.145-.72-.72 .241.001.286-.194.48-.24 .492.067.479.641.72.96 .99.03 1.503-.417 2.64-.24 .072-.472-.324-.476-.479-.72h1.2c-.014.307-.309.333-.24.72 .613-.027.84-.44 1.2-.72-.413-.094-.615.356-.721,0 .16-.64.722-.878 1.2-1.2-.001.241.194.286.24.48-.346-.269-.586-.259-.72.24 .643.187.957.08.239.72 1.158.409 1.862-.145 3.36,0 .175-1.051-.477.193-.48-.48 .308-.013.333-.308.721-.24-.196,1.077 1.812-.051 1.68.96-1.243.243-1.179.469-1.92.96-.17-.265-2.043-.166-2.16.24 .349.131 1.24-.28 1.2.24-1.503.467-2.609-.363-4.561.24 .302.099.491.31.48.72 .689.049 1.219-.061 1.44-.48-.283-.038-.682.041-.721-.24 .548-.067.902.058.96.48-1.167.157-.1.688-.479.96-.306-.049-1.176-.698-1.2-.24 .421.359-.212,1.001.72,1.2 .583-.324.149-.479.48-.72h.479c.001.241-.194.286-.239.48 .654.021.482-.4.96,0-.05-.69.061-1.219.479-1.44-.13.956.85-.259.72.96-.186.054-.473.006-.479.24 .834-.332 5.217-1.506 4.32-.72 1.561.344.209-.734 1.199-.96 .54,1.88 3.848-.06 4.561.72 .106-.613.336-1.104.72-1.44 1.072.603.509-2.321 1.92-1.44-.352.208-.761.359-.72.96 .595-.035 1.165-.044 1.2.48-.489-.481-.64-.063-.96.24-.051-.27-.267-.374-.48-.48-.197.583-.314.475-1.2.72 .041.359-.086.886.24.96 .027-.848.44.025.72-.72 .466,1.054 1.137-.099 1.92.48 .73-.423-.654-.743 0-.96 .229.59.298-.955.96-.72-.307.947.7.581.721,1.2-.652.404-1.124-.381-1.44.48 1.481-.188 4.002-.081 5.521-.48-.75-.388.492-.76.479-1.2-.446-.033-.802-.158-.96-.48 .291.073.828-.693.24-.72-.094.369-.288.036 0-.24h-.96c-.333.147-.036.924-.48.96-.037-.282.042-.681-.239-.72 .073.554-.693.267-.721.72 .421.219 1.198.083 1.44.48-1.023.31-2.174-.701-2.88-1.44-1.669.03-3.983.101-4.8.24 .39-.072.646.324.239.48-.586-1.142-.918-.127-1.92-.24-.036-.004.229-.486.24-.48-.95-.468-2.568.478-2.64.48 .008,0 .188-.478.239-.48-.831.029-2.687.862-3.6-.48 1.408.849 4.33-.073 6.24-.24 .095-.413-.356-.615 0-.72 1.01,1.292.687.29 1.92,0 .094.342.288.405 0,.72 1.419-.1 2.922-.118 3.359-1.2 .482.489-.105.471-.239.96 1.548-.016.271-.666 1.68,0-.073-.98.501-.128.96-.24 .589-.319-.433-.724.24-.96 .413.074-.312.833.72.72 .73-.423-.655-.743 0-.96 .246.234.485.474.72.72-.87.615-1.489-.01-1.92.96h1.2c-.073-.633.501-.619.96-.72 .445.903.956.321.96-.24 .583.325.149.48.48.72 .841-.183 3.094-.264 3.6-.96 .038.282-.041.681.24.72 .234-.246.475-.485.72-.72 .431.589 1.649-.564 1.68.72 .767.264.794-1.416 1.44-.48-.187.054-.474.007-.479.24 1.058.508 3.272-.289 4.319.72-.408.896.142.38.24,1.2-1.015.181-1.278.398-.96,1.44-.84.188-.732-.082-.96.72 .011-.331-.113-.527-.24-.72 .07-.489.649-.471.72-.96-.803.237-1.728.352-2.159.96 .384-.944-1.037-.083-.96-.72 .074-.505 1.787-.587.96-1.2v.48c-.308-.013-.333-.308-.721-.24-.383.177.055,1.175-.72.96-.035-.319.807-.893.24-.96-.358.513-2.397.282-1.2.96-.99-.19-1.494.106-1.68.72-.338-.063-.274-.526-.48-.72 .346.268.586.258.72-.24-.776-.137-1.207.073-1.439.48-.085-.944-.719.068-1.2-.48-.187.593-.079.71-.72,1.2 .034-.675-.588-.692-1.2-.72-.394.582-.721,1.062 0,1.44 .121-.754-.565-.98.24-1.2 .134.499.374.508.72.24-.018.418.054.747.24.96 .935-.584 1.834-.127 1.68-.96 .116.284.256.544.48.72 .451-.423-.328-.743.479-.96 .333.147.036.924.48.96 .054-.187.006-.474.239-.48 .014.307.309.332.24.72-1.026.559-1.223-.694-1.68.24 1.604.37 3.952-.241 3.84,1.44 .544-.549 2.395-.059 2.4-.48-.28-.041-.261-.379-.24-.72h1.2c.024.27-.35.374 0,.48 .003-.242.42-.302.479,0-.427.133-.996.124-1.2.48h1.681c.095-.413-.356-.615 0-.72 .717.651 1.774-1.363 2.16,0 .949-.666 1.963-1.382 2.64,0 .729-.045 3.195.147 3.6-.96 .3.826 1.229.264.721.96 .939-.044 1.286-.611 1.68-.72 1.478-.408 1.142.361 2.399.72-.045-.013.332-.497.48-.48 .046.005-.239.481-.24.48 .217.261.988-.242.96-.24-.12.007.823.048.96,0-.137.048.757-.474 1.2-.72-.092.051-.016-1.741 1.92-.48 .071-.489.48-.64.72-.96-.77-.21-.497.622-.96.72-.164-.805.403-.877.96-.96 .4.477-.021.305 0,.96h.961c.229-.447-.719-.802 0-.96 .302.581.85,1.147.479,0 .241.001.286-.194.48-.24 .699.93 2.23.69 3.119.24 .231,1.223 2.583-.521 3.36.48-2.061.622-.998.212-2.64.72 1.089.463 1.981.61 3.12,0-.261-.058-.576-.396-.24-.48 .036.597.813.07.96,0-.072.632.332.788.96.72-.467-1.139.724-.438 1.439-.96 .125.355.355.605.48.96 2.385-.424 3.152.208 4.8-1.2-.526-.27-.526-.93 0-1.2 .348.453.536,1.064 1.44.96-.313-1.374.681.061.96-.72-.261-.057-.576-.395-.24-.48 .589.616.522.145.72.72 .378-.183.359-.761.96-.72 .028,1.276.046.193.721.24-.332,1.571 1.662.184.96,1.2 1.355-.279 1.973.003 2.88-.24-.284-.116-.544-.256-.72-.48 .316-.003.219-.421.479-.48 .419.489-.179.471.24.96 .943-.177 1.739-.5 2.64-.72 .011-.33-.113-.527-.24-.72 .454.054.53-.271.96-.24 .534.187.937.504 1.681.48 .095-.413-.356-.615 0-.72 .417,1.464 2.282-.117 2.16,1.44 .979-.548 1.707-.313 1.68-.24 .146-.013.284-.036.24-.24-.147-.333-.924-.036-.96-.48 .063-.337.526-.273.72-.48-.472.621.807,1.361 1.439.96-.189-1.536-.52-1.161-.96-.48 .054-.454-.271-.53-.239-.96 .24,0 .285-.194.479-.24 .478.003.306.655.96.48-.326-1.472-2.642-.638-1.439-.24-.76.708-1.452.264-1.92-.48-.33.547.618.902 0,.96-.316-.42-1.441-1.264-1.44,0 .282.038.682-.042.72.24-1.077.328-1.071-1.06-1.68-.48 .461-.789-.466-.477-.48-.48 .078.019-2.85.244-2.399-.96-.854.712-1.051-.125-1.68.24 .779.465-1.086-.42-.24.48-.507-.423-.71-.541-1.44-.24 .048.688.03,1.31-.72,1.2 .531-.558.212-.643.479-1.2-1.012-.373.053,1.333-.96.96-.05-.089.257-.475.24-.48-1.266-.412-4.63.57-6.72.48-.469.657-.469,1.023 0,1.68-.146-.415-1.139.019-1.2-.48 .435-.048.78-.619.48-.96 .112.25-1.303.05-1.44-.24 1.563-.197 3.652.132 4.08-1.2-1.052-.175.193.477-.48.48-.629-.946.458-.74-.239-1.68 .707.386 1.395,1.058.96,1.92 1.771-.126 2.903-.431 3.359-.96 .008-.437-1.207.458-1.199-.48 .972.332.759-.521 1.439-.48-.38.359-.177.982.24,1.2 .032-1.178.893-.007.96,0 .923.091 1.976-.526 2.4-.72-.513.234.702-.341.72.24 .026-.454.793-.167.72-.72-.346-.531-.586.302-.72-.24 .343-.058.404-.396.72-.48-.146,1.019.871.642 0,1.2 .85.129 1.052-.388 1.44-.72 .258,1.121 1.838-.619 1.199.48 1.36.129-.209-1.279 1.2-1.2 .038.282-.041.681.24.72 .552-.795 2.127-.204 3.12-.72-.293-.027-.568-.072-.48-.48 1.268.307 1.004-.917 1.92-.96-.363,1.012-.907,1.014 0,1.68-.753.266-.634.112-1.199-.24v.48c-.146.014-.284.036-.24.24 2.618-.456 2.023-.55 3.6-.48-.494.211-.908-.792-.479-.72 .436.843.826.237 1.439,0 .036.32-.976.724-.239.96 .219-.268.445-.076 1.199-.24 .212-.771-.791-.329-.72-.96 .643.316.913.155 1.44,0 .075.325.341.458.239.96 3.123-.061 3.835-.523 5.761-.72-.293-.027-.568-.072-.48-.48 .875.623 1.564-.233 2.88.24-.282.038-.681-.041-.72.24h1.2c.027-.293.071-.568.479-.48-.053.302-.373.491.24.48 .5-.134-.356-.722.48-.24-.358-.56.081-1.034-.24-1.2-.065.219-1.063.637-.96.24 .003-.317.421-.219.479-.48-1.114.334-1.391-.671-2.399.24 .094-.343.288-.405 0-.72-.651.069-1.132.309-1.44.72-1.214-.775-.664-.707-1.92-1.44-.037.282.041.681-.24.72-.32-.239-.471-.648-.96-.72-.037.282.042.681-.239.72-1.303-.292-1.732.085-2.881-.48-.075,1.142-1.087-.144-1.92.24-.041.359.086.886-.239.96-.119-.969-1.97-.211-.48-.96-1.046-.326-.868.572-1.44.72 .313-.756-.013-1.598-.479-1.2 .45.057-.136.395.24.48-.001-.133.194-.272.239,0-.24-.001-.285.194-.479.24-.134-.489-.722-.47-.24-.96h-1.2c-.054.454.271.53.24.96-.654-.175-.482.477-.96.48 .103-1.387-1.076-1.141-1.92-1.2-.019-.001.21-.484.24-.48-1.249-.169-2.145.087-3.12.48 .596-.036 1.165-.045 1.2.48-1.371-.097-1.663.668-3.601.48-.24.319-.227.893-.72.96-.037-.282.041-.681-.24-.72-.037.283.042.682-.239.72-2.255-1.595-6.177-.089-8.16-.24-.383.897-.543,2.018-1.44,2.4 .322-1.126-1.208-1.122-.479-1.92-.83.19-1.014-.267-1.44-.48-.031.592-.036,1.157.24,1.44-.359-.041-.886.085-.96-.24 .993-.252-.98-.928-.96-1.68-1.047.739-1.459.678-2.88,1.92 0-.241-.194-.286-.24-.48 1.367.141-.023-1.134.479-.48-.636.36-1.698-.226-2.399.48 .723-.898-1.642-.313-2.4-.48-.095.413.356.615 0,.72-.503-.722-1.633-.075-2.64-.24-.072.472.324.476.479.72-1.462-.07-1.53-.057-1.92-1.2 1.476.354 2.961-1.193 3.12,0 .584-.376 1.333-.587 1.68-1.2-.776.296-.183-.777-.96-.48-.15.409-.725.395-.96.72 .359.041.886-.085.96.24-2.568-.119-2.58.72-4.8.24 .802.241.787-.333.72-.96h-.72c-.081.849-.014,1.237-.24,1.44-1.354.347-1.618.196-1.439.96-.386.252-.442-.665-.72-.72-.375-.074-1.403.892-2.4,0 1.335-.265 3.188-.011 4.08-.72-.475-.588-1.277.066-1.68-.24-.907-.69.637-.418-.48-.24 .238-.038-1.026-.364-1.68-.48-.106.509-.869.839-1.2.24-.175.545-.722.718-1.2.96-.035-.32.976-.725.24-.96-.396.809-1.018.847-1.44.24-.28.359-.298.982-.72,1.2 .281-1.132-1.325-.522-.24-1.2-1.092.996-2.763-.063-3.359,0 .487-.073-.05.693-.24.72 .158-1.339-.897-.49-.96,0-.278-.355-.278-.605 0-.96h-1.44c-.588.319.433.724-.239.96-.187-.054-.474-.007-.48-.24 .013-.307.308-.332.24-.72-1.793.242-2.026-.222-1.44.96-.33-.01-.526.113-.72.24-.488-.762-1.837-.142-3.12-.72-.227,1.787-2.293-.701-3.36.48 .346.531.586-.302.721.24-.086.343-1.224.82-1.44.24 .359-.041.886.086.96-.24-.619-.853-1.686.063-2.64.24 .492-.883-3.343-.681-3.36.24-.412-.523-2.321-.822-2.64,0-.453-.026-.167-.793-.72-.72 .029.601.458.751-.24.96 .067-.547-.058-.902-.48-.96-.066.493-.641.479-.96.72 .014-.307.308-.332.24-.72h-.96c.237,1.701-.99,1.336 0,1.92 .108.392-1.309.392-1.2,0 .772-.798-.141-.553 0-1.44 .073.75-.693-.61-.72.24 .561.199.512.841.24,1.2-.571-.39-.382-1.538-1.681-1.2-.299,1.02.799.642.96,1.2-.972.393-1.104-1.27-1.68-.48 .368.215-.689.373-.479.72-.274-.145-.296-.219-.721-.24 .023.001-2.114-.188-3.12.24 .387-.103.806.895.24.96-.256-.224-.074-.885-.72-.72-.072.472.324.476.479.72-.316.002-.219.42-.479.48-.035-.536-.604.312-1.2,0-.096-.818-.739-.396 0-.96-1.479.007-1.453.026-2.16.72-.886-.701-2.347-.556-2.88,0 .022-.742-.725-.715-1.439-.72 .013.413-.186.615-.48.72 .039-.679-1.479.2-1.44-.48 .495.211.909-.791.48-.72-.255.544-1.509.091-2.16.24-.328,1.857-3.007.153-3.84,1.2-.051-.27-.267-.374-.48-.48 .431.987 1.092.453 1.681,1.44-1.16.04-1.831-.409-1.92-1.44-.551.165-1.549.156-2.16-.24-.182-1.322 2.176-1.484 1.92-1.44-.842-.53.016-.312.24-.96-.284-.276-.849-.271-1.44-.24-.168.739-.168.461 0,1.2-.565-.309-.446.032-1.2-.24-.054.186-.006.473-.239.48-.575-1.02.497-1.113.239-1.44-.795.565-2.842-.122-3.359.72 .678.241-.762.227 0,.72-.715.318-1.218.246-1.681-.24 .207,1.729 2.847-.336 3.841.72-1.854-.091-3.751,1.045-5.28.48 .512-.437 1.307-.217 1.439-.48-.457-.103-.434-.686-1.199-.48-.038.282.041.681-.24.72-.094-.342-.288-.405 0-.72-1.058.715-2.668-.663-3.36-.24 .187.054.474.007.48.24-.241-.001-.286.194-.48.24-.204-.356-.604-.516-1.2-.48v.48c.014.146.036.284.24.24 .054-.187.007-.474.24-.48v.48c.808.152 2.229-.31 2.64.24-.331.748-4.039-.634-3.359.72 .07-.56.649-.56.72,0-1.921-.006-2.792.02-4.32-.24-.28.359-.298.982-.72,1.2-1.045-.086-1.104-.037-1.68-.24-.095.413.355.615 0,.72 0-.241-.194-.286-.24-.48-.128-.346.936-.586.24-.72-.983.767-.793-.062-2.16.48-.2-.771-.204-.498.24-.96-.423.138-1.41-.29-1.44.24 .282.038.682-.042.72.24-.547.067-.902-.058-.96-.48 .913-.688 2.628-.572 2.88-1.92-.948.253-1.067.711-.479-.24-.628-.125-.817,1.393-1.44.48 .284-.117.544-.256.721-.48-1.985,1.074-3.784-.351-4.801,0-.161.056-.182.479-.479.48 .074,0-.326-.942-.48-.24-.031,1.085.768.116 1.2.24-.003.317-.421.219-.479.48 .349.131 1.24-.281 1.199.24-.595-.035-1.164-.044-1.199.48 .358.041.886-.085.96.24-1.263.19-2.176.479-3.36.48 .314.003.306.666 0,.72-.648-1.818-3.072-1.13-4.56-.72 .525-.833-.215-.229-.48-.24-1.143-.048-3.095-.398-3.36,0 .338.063.274.526.48.72-.349-.131-1.24.28-1.2-.24 .248-.087-.309-.222-.24-.72-.084.298-1.383-.198-2.16,0-.055.425.242,1.202-.479.96 .581-.977-.16-.812-.72-1.2 .767-.662 1.7-.008 2.16-1.2-.34,1.247 2.008.661 1.199,0-.054.186-.006.473-.239.48-.245-.315-.235-.885-.48-1.2-1.213-.125-1.255.925-1.44,0-.389.643-.551.913 0,1.44-.828-.708-1.122.655-1.92.72 .678-.943-1.443-.329-1.68,0-.011-.331.113-.527.24-.72-.592.032-1.156.037-1.44-.24-.637.618.033,1.153-.72,1.44-.654.021-.483-.4-.96,0 .383-.361-.007-1.011-.48-1.2-.116.284-.256.544-.479.72-.776-1.16-1.598-.1-3.36-.72-.104.776-.808.953-1.2,1.44-.032-.447-.157-.802-.479-.96-.037.283.041.681-.24.72-.036-.596.124-.996.48-1.2 .423.209.743.803.96,0-.679.198-.622-.338-1.2-.24-.724.875-3.537-.369-4.56.72 .476-.553-.061-.267-.24-.72 .954-.406 2.531-.188 3.84-.24 .037-.282-.041-.681.24-.72 .24,1.058.352.068.479,0h.48c-.269.346-.259.586.239.72 .572-.347.59-.364.721-.72 .302.053.49.374.479-.24-2.053.402-4.175-.587-6,.48 .278-.355.278-.605 0-.96-1.162.081-1.984-.035-2.88.72-.071.472.324.476.48.72-1.37.05-1.852.42-2.641-.24-.07,1.67 3.157.042 3.84.96-1.084.196-3.022-.463-3.359.48 .293.027.568.072.479.48-.853-.374-.145.815-.72.72-.582-.736-.149.276-.479.24-.187-.054-.474-.007-.48-.24 .281-.358.997-.283.96-.96-1.342-.176-3.114.922-3.84-.48 .431-.689 1.581-.659 2.16-1.2-.507-.047-1.508-.95-.24-.72 .034-.754-.615-.825-1.2-.96-.279.44-.627.813-.96,1.2-.037-.597.377-.743.48-1.2-1.309-.137-1.932,1.07-3.12,1.68-.054-.187-.007-.474-.24-.48-1.086,1.04-3.016.916-3.12,1.44 .965.359-2.303-.222-.479-.72-1.659-.116-2.704-.559-3.36.24v-.96c-2.52-.277-4.686-.797-6.48-1.2-.395.478-.672.84 0,1.2-1.45-.07-.78-.75-.479-1.44-1.558-.155-1.652-.113-2.64-.72 1.242.354 3.734.26 2.399-.96 .447.033.803.158.96.48-.29.051-.147.266 0,.48-.351-.344-.761-.184-.72.48 .978-.321 1.731.227 2.16,0-.832.412 1.51.005.479.72 .982-.268 1.136.295 2.16.24-.21-.771.623-.498.72-.96-.409-.417-2.108-.31-.96.24-.623.144-.863-.096-.72-.72-1.533.683-.872-.139-2.64-.48 .692.19 2.103-.106 1.2-.72-.233,1.075-2.525-.932-3.12.48-.67-.53-1.302-1.098-2.641-.96 .054-.716-.886-.816-.239-1.44-1.195-.061-1.021-.1-1.921-.24-.042.971.812-.098.961.48-.447,1.086.862.417.96.96-.833.192-.923-.357-1.681-.24-.103.377-.755.205-.479.96 .527.531.797-.42 1.439-.48-.525.651-.266.597-.479,1.44 .743-.016.932-.42 1.439,0-1.309.961-2.623-.593-3.6.48-.011-.33.113-.527.24-.72-1.34.623-2.024-1.121-2.88-.24 .282.038.681-.041.72.24-.051.269-.267.374-.48.48 .128-.579-.538-.953-.239-1.44 .115.603-1.101-.579-1.2.24 .133,0 .272.194 0,.24-.051-.29-.267-.148-.48,0 .495-.423.21-.743.48-.96 .425.303 1.015.25 1.439-.24-.186-.054-.473-.006-.479-.24 .034-.284.427-.544 0-.72-.24.4-1.11.17-1.2.72 .179-.739-.659-.461-.48-1.2 .554-.073.268.693.721.72-.225-1.086-2.512-1.823-3.36-1.2-1.142.012-.581-.559-.96-.96-.058.45-.396-.136-.479.24 .599,1.039-1.223.496-1.2,1.44-.633-.281-.836-.299-.24-.72-.565-.005-.707.414-1.44.24-.147,1.882 2.139-.131 1.921,1.68 1.01-.418.493-1.215 1.439-1.92 1.847.875 2.171.177 3.36,1.2h-1.2c.099.578-.438.521-.24,1.2 .622-.041 1.909.207 1.2-.48 .33.01.527-.113.72-.24-.399.477.021.305 0,.96-2.644-.239-4.497.124-5.76-.24 .19.027.728.793.24.72-.839-.998-1.212-1.399-2.4-1.68-.175.545-.722.718-1.2.96 .024-.479 1.169-1.041.721-1.2-.741.6-1.381,1.178-1.92.96 .675-.556.892-.177 1.439-.96-.921.689-1.37-.821-1.92.24-.018-.418.054-.747.24-.96-1.022.282-2.986-1.053-1.92,0-.578-.098-.521.438-1.2.24 .054-.454-.271-.53-.24-.96-.757.118-.848-.432-1.68-.24-.307.601.122.751-.24.96-.201-.279-.316-.644-.24-1.2-.894-.254-.774.505-1.199.72-1.542.317-1.836-1.151-1.681-.96-.234.246-.475.485-.72.72 .232-1.264-.936-.528-1.2-.24 .054-.454-.271-.53-.24-.96-2.369-.023-3.521-.057-4.8-.72-.211.771.791.329.72.96-.522.611-2.093-.455-2.64.48-.539-.868-1.932.047-2.16-.72-.531.346.303.585-.24.72-.463-.097-.021-1.099-.96-.72-.312.596.704.996 0,1.2-.109-.74-1.111-.736-.239-1.2-.793.248-2.045.035-2.4.72-.489-.134-.471-.722-.96-.24 .037-.597-.377-.743-.479-1.2 .654.022.482-.399.96,0 .314-1.034-1.144-.297-.96-1.2 .425-.055 1.201.242.96-.48-2.801-.489-5.286.982-6.721-.24-.116.284-.256.544-.479.72-.095-.413.355-.615 0-.72-.06,1.003-.895-.273-1.202.48zm36,6.48c.058-.619.413.33.96,0v.48c-.204-.044-.227.094-.24.24-.553.073-.267-.693-.72-.72zm17.04.72c.477.399.305-.022.96,0 .118.468-1.192.864-.96,0zm50.88,5.04h.48v.48h-.48v-.48zm23.52-.48v.48c-.49-.419-.471.179-.961-.24-.102-.387.896-.805.961-.24zm36-2.16h.479v.48h-.479v-.48zm45.119-.24c.296.105.493.307.48.72-.279-.039-.427.053-.48.24-.618-.058.33-.413 0-.96zm-6.479,6.48c1.839.788-.771-.33 0,0zm-21.12,2.16c-.046.272-.24.133-.24,0-.213.106-.429.211-.479.48-.725-.303.533-.98.719-.48zm-4.56-5.28c.104-.356.307.095.72,0 .175.655-.477.483-.48.96-.842-.066.602-.894-.24-.96zm-2.16,0c.085-.376.422.21.479-.24 .546.236.595,1.202-.24,1.2-.019-.38.116-.915-.239-.96zm-15.36.72c.058-.619.413.33.96,0-.037.597-.813.07-.96,0zm-1.68-1.44c-.851.027.51.793-.24.72-.822-.106-.207-.506-.24-1.2 .777-.296.184.777.96.48v1.44c.431.031.507-.293.96-.24 .073.633-.501.619-.96.72-.159-.971-.721-.419-1.2-.72 .074-.326.602-.199.961-.24 .101-.502-.166-.635-.241-.96zm-5.28,1.92c.224.256.886.075.72.72-.842-.363-1.018.351-.72-.72zm-16.56,5.28c.104-.295.307-.493.72-.48-.105.295-.308.493-.72.48zm-23.761-2.4c-.203.356-.772.347-1.199.48 .035-.525.605-.515 1.199-.48zm-44.88-4.8c1.139-.399.266.893.721.24 .909.409-.521.395-.48.72-.327-.074-.2-.601-.241-.96zm0-.48c.709.209-.557.359-.24.96-.194-.045-.238-.241-.479-.24v-.48c.341.021.679.04.719-.24zm-7.2,5.76c-.127-.193-.25-.39-.239-.72 .192.127.39.25.72.24-.135.345-.374.585-.72.72-.269.695-.259-.368.239-.24zm-53.279-11.76c.787.581-.668,1.147 0,0zm-173.521,14.64c.167-.781 1.093-.431 1.2-.72 .204-.044.227.094.24.24v.48c-.448-.47-.879-.074-1.44,0zm-98.159-1.2c-.429.068-.493-.227-.24-.24 .367-.893.681-.579.24.24zm-44.64-6.48c.03.431-.294.506-.24.96-.701-.217-.07-.883-.48-.96 .176-.427.436-.035.72,0zm20.88.96c-.166.474-.64.64-1.2.72 .166-.474.64-.64 1.2-.72zm1.2-.72c-.348-.505-.816.187-.72.24-.559-.31.627-1.456.72-.24zm20.88,3.36c-.788-.581.667-1.147 0,0zm22.56,2.4c-.407.81-1.209-.266-.96,1.2-.346-.269-.585-.259-.72.24-.336-.084-.021-.422.24-.48-.02-.38.115-.915-.24-.96 .647-.486.931.01 1.68,0zm29.52,1.2c-.733-.527.277-1.537 0,0zm48-2.16c-.369.381-1.066,1.065-1.68.48 .363-.357 1.053-.387 1.68-.48zm12.72-.72c-.456,1.407-.532-1.559-.24.24 .204.044.226-.094.24-.24zm4.559-1.44v.48c-.512.112-.457-.343-.48-.72 .195.045.24.241.48.24zm4.081-1.2c.784.071.596,1.812-.24,1.68 .256-.801-.076-.819.24-1.68zm39.6-7.2c.043.523-.196.764-.72.72-.044-.523.196-.764.72-.72zm38.639-1.44c-.543-.582 1.06-1.024 0,0zm4.801,2.4c-.744.42-2.16-.72-.24-.48-.004-.001.024.651.24.48zm5.76-3.12c-.085.315-.423.377-.48.72-.272-.045-.133-.241 0-.24-.006-.233-.293-.187-.479-.24 .208-.698.358-.27.959-.24zm35.28,0c-.06.26-.478.163-.48.48-.261-.06-.163-.478-.479-.48 .156-.719.512.23.959,0zm11.76-3.84c1.04.1-.253,1.393 0,0zm36,2.16c.272.045.133.241 0,.24-.044.204.094.227.24.24-.303.739-.722-.268-.24-.48zm-2.16.96c.295.105.493.307.479.72-.387.067-.413-.227-.72-.24 .046-.194.242-.239.241-.48zm-71.76.48c.354.125.604.355.96.48-.076.509-1.138.052-.96-.48zm6.239,0c.525.035.516.604.48,1.2-.356-.203-.347-.773-.48-1.2zm25.2.24c.046-.272.241-.133.24,0 .204.044.227-.094.24-.24 .74.303-.267.721-.48.24zm-49.92.24c.778.049-1.347-.084 0,0zm41.521-.24c-.527.733-1.537-.277 0,0zm24.72.72c-.315-1.259.162.65 0,0zm-10.8.96c-.592.528-1.707.533-2.4.96 .066.566.895-.022.96-.24 .623.181-.813,1.549-.24,1.68-.448.627-1.24-1.292-.96-1.44-1.41.59-3.055.945-4.56,1.44-.042-.758-.949-.65-1.68-.72-.489.15-.067,1.212-.96.96 .096-1.376-1.297-1.263-2.641-1.2 .286-.489 2.876-.72 2.88-.72 1.856-.101 5.161.167 7.681-.24 .661-.298.694-1.226 1.199-1.68 .147.07.925.597.961,0 .839.633-1.667.645-.24,1.2zm22.559-1.2c.431-.031.507.293.96.24 .078.424-1.343.428-.96-.24zm-34.559.48c-.686-.278.387-.278.479,0 .045.204-.094.226-.239.24-.531.695.302-.368-.24-.24zm5.04.72c.239-.321.648-.471.72-.96h.96c-.039.281-.438.203-.72.24 .783.477-.85.549 0,.96-.209.709-.359-.557-.96-.24zm3.84-.24c-1.745-.769.338-.999 0,0zm1.2-.72h.479c-.127.193-.25.39-.24.72-.498-.134-.508-.374-.239-.72zm28.8,0c.429-.071.015.931-.48.72-.133-.532.458-.342.48-.72zm-31.441.48c-.087-.603-.01.602.48.72-.298.429-.698-.187-1.2.24-.369-.127-.016-.25.24-.24-.106-.214-.211-.429-.48-.48 .361-.805.719.947.96-.24zm14.88,0c.147-.049 1.535-.034 1.44.48-.679.198-.622-.338-1.2-.24 .641,1.125 1.697.491 3.36.72 .74.451-1.389.029-1.44.48 .246.159 1.607.926 1.44,0 .14,1.738-2.05.334-3.12,1.92-.281-.039-.202-.438-.24-.72-.32.239-.471.648-.96.72 .097.463 1.1.021.72.96-.895-.408-.38.142-1.199.24 .07-.557.603-1.125-.48-.96-.629-.266.946-.306 1.2-.48-.6-.176-1.809-.39-3.12-.48-.55-.107 1.516-.847 1.68-.24 .9-.189.016-.839.48-1.2 .892-.165.627-.116 1.68-.24-.588-.319.263-.893-.241-.96zm-30.239.48c.484-.33.781-.313 1.199-.24-.172-.031-1.033.719-.96.72-.086-.001-.367-.393-.239-.48zm7.92,0c1.1.16-.193,1.453 0,0zm.72,0h.72v.48h-.72v-.48zm59.759.24h.48v.72c-.193-.127-.39-.25-.72-.24 .046-.194.241-.239.24-.48zm-129.359.96c.427.176.035.437 0,.72-.428-.176-.035-.436 0-.72zm333.6,0c.356.204.516.604.48,1.2-1.229-.157-.604.589-.48-1.2zm-250.321.72c-.067-.381 1.297-.336.721.24 .092-.092-.724-.257-.721-.24zm52.801,0c.77-.33-1.839.788 0,0zm.48-.24c.388.235.553.64.24.96-.326-.074-.199-.601-.24-.96zm-137.76.48c.312-.741.316.689-.24.48-.458-.207.259-.143.24-.48zm125.04-.24c1.199.106-.529.506-.24,1.2-.281-.039-.202-.438-.24-.72 .408.088.453-.187.48-.48zm-133.921.24c-.097.462-.93.189-.72.96-.969-.258.14-.868.72-.96zm131.041.24c.038-.281.438-.202.72-.24v.96c-.281-.039-.202-.438-.24-.72h-.48zm19.439,0c-.727.887-.808-.729 0,0zm-147.599,0c.261.06.163.478.48.48-.104.664-.755.012-.48-.48zm27.12,0c.233.007.186.294.239.48 .205.044.227-.093.24-.24 .672.328-.755.775-.479-.24zm252.72.24c.586.149 1.07,1.002 0,.96v-.96zm6.96,0h.72c-.006.233-.293.186-.479.24 .338.356.766.516-.24.48-.001-.24-.001-.48-.001-.72zm-281.76.48c-.768-.613.981.223.72-.24 .619.058-.33.413 0,.96-.951-.074.268-.833-.72-.72zm171.84.96c-.272-.045-.133-.241 0-.24 .044-.205-.094-.227-.24-.24 .046-.272.241-.133.24,0 .302-.06.242-.477 0-.48 .176-.427.437-.035.72,0-.071.489-.65.471-.72.96zm.479-.48h.48v.96c-.233-.006-.187-.294-.24-.48-.204-.044-.227.094-.24.24-.427-.176-.034-.436 0-.72zm-188.159-.24c-.83.717-1.261-.595 0,0zm-4.081.48c.589-.741-.432.52.24.48 .741.587-.689-.264-.48.24-.487.074.05-.693.24-.72zm78.24.48c-.98-1.106 2.406-.329 3.601-.48-.95.471-3.066,1.303-3.601.72 .241.319.228.893.721.96-.152.092-1.639.025-.96-.48-1.109.679-3.487-.038-4.32.96-.322-.158-.447-.513-.479-.96 .665.62 1.412-.776.96.24h.72c-.274-.697 1.908-.607 3.358-.96zm-1.439,1.2c.909.409-.521.395-.48.72-.355-.105.095-.307 0-.72 .213.147.429.29.48,0zm33.84-1.68c-.095-.466 1.093-.351.72.24h-.479c.043-.204-.095-.227-.241-.24zm57.12,0c.213-.646.67.416.479.96-.894-.023-.015-.937-.479-.96zm114.719,0c.015-.017-.017-.237 0-.24 1.153-.203-1.139,1.542 0,.24zm-168.479.24c.157-.719.513.229.96,0-.036.597-.813.07-.96,0zm69.359-.24c.247.806-.746.374-1.199.48 .203-.357.773-.347 1.199-.48zm-108.479.24h.479c.112.512-.343.457-.72.48 .046-.194.242-.239.241-.48zm25.439.24c.771-.33-1.838.788 0,0zm66-.24c.428.176.035.437 0,.72-.192-.127-.39-.25-.72-.24 .055-.346.717-.084.72-.48zm61.441.48c-.349-.371-1.229-.211-1.92-.24-.764-.219 2.285-.682 1.92.24zm87.599-.48h.48v.48h-.48v-.48zm-322.079.48c.048-.777-.085,1.348 0,0zm162.239,0c-.369-.127-.015-.25.24-.24-.756,1.183 1.054.732 1.68,1.2-.204.704-.604-.312-1.2,0-.525,1.465-3.273-.085-.479.48-.502-1.13-2.154-.479-2.16-.48-.645-.086-1.243-.605-2.64-.48 .764-1.008 3.362.461 4.559-.48zm-68.16.24c.389-.603-.636,1.524 0,1.44-.549.508-.85-.107-1.68.24 .726-.703.974-.736 1.68-1.68zm85.441,0c-1.055.881-.912-.664 0,0zm-179.761.96c.684-1.324 1.548-.459 0,0zm338.161-.96c.621.637-.408,1.247 0,0zm-251.04.24h.479v.48h-.479v-.48zm110.64,0c.854-.373.145.815.72.72-.29.723-1.049-.037-.72-.72zm64.32,1.2c-.074-.488.693.049.72.24 .122-.074.463-.833-.24-.72 .708-1.286.821.914 1.44.24 .233.007.186.294.239.48-.204-.044-.226.094-.239.24-.573-1.077-.741.328-1.681.24 .021-.341.04-.68-.239-.72zm9.6-.72c.986.762.374,1.559 0,2.4-.819-.778.215-1.187 0-2.4zm-280.8.48c1.371-.546 1.094.691 0,0zm233.519,0c-.359.28-.587.693-1.2.72v-.72c.739-.168.462-.168 1.2,0zm1.92-.24c.499.134.509.374.24.72h-.479c.127-.193.25-.39.239-.72zm-413.999.48c.045-.272.241-.133.24,0 .204.044.227-.094.24-.24 .739.303-.268.722-.48.24zm7.92,0c.287-.039 1.933-.654.96.48-.655.175-.483-.477-.96-.48zm515.999,0c.016-.017-.017-.237 0-.24 1.154-.203-1.139,1.542 0,.24zm-513.119,0h.48v.48h-.48v-.48zm207.12,0c.244.156.248.552.72.48-.074.326-.601.199-.96.24 .126-.193.25-.39.24-.72zm1.92.24c1.934.021-2.618.393 0,0zm2.4-.24c-.527.733-1.538-.277 0,0zm200.639.48c.172-1.147 1.514.958 0,0zm30.481-.48c.244.156.248.552.72.48-.038.281-.438.202-.72.24v-.72zm-274.8.24c.619.058-.33.413 0,.96-.193-.127-.39-.25-.72-.24v-.72c.41-.05.621.409.72,0zm229.92,0c-.104.295-.308.493-.72.48-.112-.512.343-.457.72-.48zm32.16,0c1.1.16-.193,1.453 0,0zm-23.521.24c.272.045.134.241 0,.24 .345.698.185.27-.479.24 .059-.261.476-.163.479-.48zm-431.519.72c.074-.326.601-.199.96-.24-.075.326-.601.199-.96.24zm42-.24c1.04.1-.253,1.393 0,0zm148.559,0c.807-.247.374.746.48,1.2-.41.051-.622-.409-.72,0-.846-.413.694-.393.24-1.2zm18.96,0c.747.532-.946.635-1.44.72-.659.267 1.423-.794 1.44-.72zm333.121.24c-.016-.273 1.232.185 1.2.72-.346-.488-1.521-.228-.96-.48 .044-.204-.094-.227-.24-.24zm-340.8.48c-1.126.224-.425-1.119 0,0zm12.719-.24c.621-.826.581,1.234 0,0zm162.481,0c.392.969.007.509-.24,1.2-.324.041-.479-1.22-.72-.48-.62.447.252-.979.96-.72zm157.439.48c-.169.506.015-1.426.96-.48-.285-.286-1.169,1.108-.96.48zm-87.12,0c-.581.787-1.146-.667 0,0zm-453.599,0c.059,1.279-1.436.074-.72.48 .244-.156.248-.552.72-.48zm6.24.24c.344-.708.184.557-.48.24-.438-.187.143-.258.48-.24zm210,0c.777.049-1.348-.084 0,0zm-220.8.48c.352.209.761.359.72.96-.633.073-.619-.501-.72-.96zm537.84.24c.046-.272.24-.133.239,0 .205.044.227-.094.24-.24 .695.135-.368.375-.24.72-.271-.045-.133-.241 0-.24 .045-.204-.093-.226-.239-.24zm-150.721.24c.036-.065.517-.443.721-.24 .166.166-.947.661-.721.24zm78.96,0c-.095-.465 1.094-.351.721.24h-.48c.043-.204-.094-.227-.241-.24zm-.479.48c-.928-.557.287-.283.24,0-.062.364-.206.021-.24,0zm6.96-.24c-.581.787-1.147-.668 0,0zm-414.48,0c.322.158.447.513.48.96-.204.044-.227-.094-.24-.24-.233.006-.186.293-.24.48-.704-.203.143-.773 0-1.2zm116.64.72c.084-.376.422.21.48-.24 .281.039.202.438.24.72-.315-.085-.378-.423-.72-.48zm220.8.72c-.256-.224-.074-.885-.72-.72 .946-.538 2.328.545 3.359.72-.636.435-1.76-.461-2.639,0zm-212.4-.72c1.04.1-.253,1.393 0,0zm-113.52.48c.423.526.833.696.48-.24 .214.147.429.29.48,0 .261.06.163.477.48.48-.156.244-.552.248-.48.72-.357-.284-1.073-.208-.96-.96zm128.4,0c-1.079-.825 1.706,1.305 0,0zm-29.52,0h.72c-.256.224-.075.885-.72.72v-.72zm288.96.24h.48v.48h-.48v-.48zm-261.36.72c-.632.592-1.391-.692 0,0zm-2.88,0c-.167.193-.374.657 0,.72-.342,1.054-.989-1.128 0-.72zm-29.28.48c-.045.272-.241.133-.24,0-.233.006-.187.293-.24.48-.651-.212.202-1.065.48-.48zm232.56,0c.092-.457.306.153.24.48-.092.457-.306-.153-.24-.48zm39.12,0c-.235.388-.641.552-.96.24 .209-.698.359-.27.96-.24zm-316.8.24c.091-.457.305.153.24.48-.092.457-.306-.154-.24-.48zm343.92-.24h.479v.48h-.479v-.48zm-23.76.24c-.527.733-1.537-.277 0,0zm37.92,0c-.527.733-1.537-.277 0,0zm-48.48.72c-1.557.29-.56-1.191 0,0zm-332.4.24c.84.407-.469.617-.96.48v-.96h.72c.418.213-.179,1.051.24.48zm39.6,0c-.632.592-1.391-.693 0,0zm22.8-.24c.431-.031.506.293.96.24-.158.322-.513.447-.96.48v-.72zm292.08.24h.48v.48h-.48v-.48zm-354.72.96c-.741-.312.689-.316.48.24-.207.458-.143-.259-.48-.24zm38.16.24c.897.021.684.269 1.44,0 .035.754-.615.825-1.2.96-.187-.213-.259-.542-.24-.96zm-39.601.24c.888.728-.728.808 0,0zm43.201,0c.664.375-.239,1.179-.72,1.2 .215-.424.579-.701.72-1.2zm1.44.72c.044-.204-.093-.227-.24-.24 .302-.739.721.268.24.48-.273-.046-.134-.241 0-.24zm347.279-5.28c-.387-.41-1.236-.22-1.439.24 .569.07.239.32.479.72 .227.444-1.373.147-.479.48-.085.376-.423-.21-.48.24-.878-.511.883-1.645.24-1.92 .396-.475 1.553-.644 1.679.24zm-171.599-14.88c1.013.373-.053-1.333.96-.96 .095.413-.356.615 0,.72 .361-.671 1.035-.429 1.44,0-.081-.56-.246-1.034-.721-1.2-.723.561-1.819.234-1.679,1.44zm-93.6,5.52c.205.041-.092.56.48.48 .093-.013-.009-.456.24-.48 .891-.086 2.838.305 2.64-.72-.063.337-.526.273-.72.48-.325-1.754-.564-.62-1.92-.96 .175,1.051-.477-.193-.48.48 .283.116.544.256.72.48-1.668-.116-1.991-.489-3.84-.96 .515.87-1.629.244-.72.72 .896.257.684-.596 1.44-.48-.07.147-.597.924 0,.96-.155-.855 1.74-.338.96.48 .476.607.79-.562 1.2-.48zm-59.52,9.6c.396.004.134.666.48.72 .038-.283-.041-.682.24-.72 .023.377-.032.832.48.72-.032-.978-.974-1.025-1.2-.72zm-61.92,6.48c.468.114 1.228-.646.72-.72 .095.575-1.093-.133-.72.72zm243.12-18.48c.255.895-.9.38-.72,1.2 .524-.181 1.719-.914.72-1.2zm51.359,6.72c-.103.605.751,1.458.961.96-.617-.023-.344-.937-.961-.96zm30.24,4.32h-1.439c-.114.988.646-.231.72.72-.437.59-2.084-.297-1.44.48 .087-.449.577.675 1.44.24-.209-.929.586-.854.719-1.44zm47.281,3.6c.135-.346.374-.586.72-.72 .516.758 1.644.142 1.2.96 .454-.054.529.271.96.24v-.96c-1.026-.014-1.758-.322-2.64-.48-.027.292-.072.568-.48.48-.266.846.848,1.267.24.48zm104.4-7.68c-2.137.347-3.438.192-5.04,1.2 .449-.623-1.473-.467-1.44-.48-.624.242-.692,1.15-.72,1.2 .224-.406-.796.757 0,.72-.187.054-.474.006-.48.24 1.009-.347 3.125.231 3.601-1.2 .018.464 1.118-.415.479.48 .854.373.145-.815.72-.72 .837.071-.02.649.48.72 .051-.27.267-.374.479-.48 .001.241-.193.286-.239.48 .95-.282 1.698.304 2.399-.48 .784.477-.849.549 0,.96 .87-.41 2.055-.506 3.36-.48 .054-.454-.271-.53-.24-.96 .284.276.849.271 1.44.24 .138-.146.562-1.138 0-1.2-.402,1.332-1.711.295-2.4,1.2 .356-.704-.271-.891.48-1.2 .044.355.58.22.96.24 .192-.912-1.135-.305-1.681-.48-.037.283.042.681-.239.72-.551-.064-1.031-.678-1.44,0-.601-.306-.751.122-.96-.24 .27-.051.375-.266.481-.48zm-1.2,1.44c-1.783-.32 1.601.287 0,0zm-3.84.72c-.582.787-1.147-.667 0,0zm9.359-.24c1.583-.225 1.737-.046 3.36-.48-1.124-.029.261-.349 0-.96-1.108-.19-.687.267-.96.48-.094-.342-.288-.405 0-.72-.33.01-.527-.113-.72-.24-.041.359.085.886-.24.96 .316-.664-.949-.824-.24-.48 .183,1.062-.934.825-1.2,1.44zm-35.759-5.76c.273.904-.229,1.093.48,1.44-.104-.904.507-1.093.96-1.44 0,.241-.194.286-.24.48 .431.031.562-.238.479-.72-.834.018-1.115,1.308-1.679.24zm-120,2.64c-.051.29-.267.147-.48,0-.075.324-.341.458-.239.96 .413-.095.615.356.72,0-.744-.023.741-.937-.001-.96zm-30.241-2.16c-.027-.293-.071-.568-.479-.48-.085.53-.719.649-1.2.48 .011.331-.113.527-.24.72h1.92c-.316-.601.949-.751.24-.96-.014.146-.036.284-.241.24zm-21.12-3.36c-.018-.418.054-.747.24-.96-.578.098-.521-.438-1.2-.24 .257.896-.596.684-.479,1.44 .96-.08 1.332.428 2.399.24-.094-.413.356-.615 0-.72-.064.219-1.062.637-.96.24zm-30.239-4.8c-.011-.33.112-.527.239-.72-.663.137-1.346.254-1.199,1.2 .847.612 1.433-.696 2.159-.96-.013.307-.308.333-.239.72 .722.242.425-.535.479-.96-.848-.129-1.051.388-1.439.72zm2.88-.72c-.058.619-.413-.33-.96,0 .095.413-.356.615 0,.72 .042-.385 1.787-.256.96-.72zm4.56.72c-.317-.003-.219-.42-.479-.48-1.614.608-.353.762.479.48zm-49.201,1.44c1.004.629-.202.826-.239,1.68 1.428-.541 2.318.936 3.359-.24 .133.972 1.125-.009 2.4.24 .054-.454-.271-.529-.24-.96 .68.228 1.022-.469 1.92.24 .304-1.344-1.275-.804-1.92-1.2-.234.246-.475.485-.72.72 .013-.413-.185-.615-.48-.72-.678.961.09-.066-.72,0-.85.026.51.793-.24.72-.309-.331-.496-.064-1.2,0-.032-.447-.157-.802-.479-.96-.041.359.086.886-.24.96-.45-.139.286-1.294-.24-.72-.163,1.107-.798-.367-.961.24zm3.601.72c.197-.585.988.753.479.96-.651.172.172-1.132-.479-.96zm-2.4,0c.826.62-1.235.58 0,0zm-1.201,0c-.996-.033-.048-.158 0-.48-.427-.213-.609-.67-1.439-.48-.192.833.357.922.24,1.68-.241,0-.286.195-.48.24-.158-.719-.513.229-.96,0-1.295.202.721.314 1.2.24 .053-.187.201-.279.479-.24 .041-.359-.085-.886.24-.96-.209.842.623.25.72,0zm6.241,0c-.209.423-.803.743 0,.96 .027-.293.072-.568.48-.48-.011.255.112.609.239.24-.134-.345-.374-.586-.719-.72zm-10.081,0c.317.003.22.42.48.48-.129-.346.935-.585.239-.72 .075.75-.692-.61-.719.24zm12.96-.72c-.084.182-.602.178 0,1.2 .621-.221.056-1.32 0-1.2zm.96.96c-.128-.345.936-.585.24-.72-.014.146-.036.284-.24.24 .317-.664-.948-.824-.239-.48 .04.359-.086.886.239.96zm-16.799.48c.011-.255-.113-.609-.24-.24 .725,1.091.956-.295 1.681,0-.686,0 1.043-1.308.239-.72-.611.269-1.171.59-1.68.96zm14.4,0h.96c.071-.472-.324-.476-.48-.72 .261-.058.576-.396.24-.48-.075.566-.834.446-.72,1.2zm66-.72c-2.316-.104 1.021.046 0,0zm-91.92,1.2c.418-.542 1.763-.157 1.92-.96-.708-.516-2.317.471-1.92.96zm-8.16-.24c-1.117.317-.804-.797-1.92-.48 .512.995-.498.901 0,1.44 1.237-.722 1.011-.202 1.92-.96zm-17.521.24c.128-.695-.935.368-.239.24 .162-.267.797.048.96-.72-.473-.072-.476.324-.721.48zm-12.239-.24c-.068.627.088,1.032.72.96 .095-.413-.356-.615 0-.72 .282.038.681-.041.72.24-.997.033-.048.158 0,.48-.33-.01-.527.113-.72.24-.011.33.113.527.24.72-.282.038-.681-.041-.72.24h.96c-.003-.803.608-.992.96-1.44-.037.321.377,1.323.48.72-.269-.346-.259-.585.24-.72-.165.645.496.464.72.72-.409-1.271-1.911-1.449-3.6-1.44zm-14.64,2.16c-.197.23-1.778.008-2.16.72 1.479-.907 2.606,1.22 3.36.24-.478-.242-.841-.6-1.2-.96zm20.4-1.68c-.651.229-1.655.105-1.44,1.2h.48c.146-.014.284-.036.24-.24-.186-.054-.474-.006-.48-.24 .331.01.527-.113.72-.24-.072.472.324.476.48.72 .596.036.996-.124 1.2-.48-.988.366-1.082-.067-1.2-.72zm4.32.96c-.033.447-.158.802-.48.96-.67-1.081-.656.064-1.44-.72 .01.33-.113.527-.24.72 1.17-.247 1.977.57 2.4-.24-.146-.014-.284-.036-.24-.24 .789.175.367-.477 0-.48zm-8.4.96c.002-.317.42-.219.48-.48-.29-.051-.148-.266 0-.48-.586-.231-.795,1.079-.48.96zm132.96-.48c.166-.599.64.445 1.2.24 .162-.898-1.946-.758-1.2-.24zm215.519,1.2c.798.013 1.387-1.083 1.44,0 .058-.422.413-.547.96-.48-.033-.447-.158-.802-.48-.96-.417-.102-1.83-.178-2.64-.24 .436.863-.688,1.354-.24,1.44 .36-.8.847.238.96.24zm.481-.48c.085-.315.423-.377.479-.72 .598.098.015.931-.479.72zm7.679-.96c-.565.005-.706-.414-1.439-.24-.443,1.403 1.298.622 1.68,1.2-.479.445-1.799.219-1.44.96 .912-.773 3.08,1.763 4.801.24-.014.307-.308.333-.24.72 1.898-.609 1.262-1.589.96-2.88-1.373-.353-1.985.23-3.601-.24-.116.284-.256.544-.479.72-.135-.5-.723.356-.242-.48zm1.92.72c-.079.146.14.302.24.24-1.031.634-.556-.865-.24-.24zm-217.439-.48c-.547.33-.902-.619-.96,0 .147.07.924.597.96,0zm206.16.24c-.325-.076-.459-.342-.96-.24-.027.848-.44-.025-.721.72 .054-.454-.271-.53-.24-.96-.926.034-2.107-.188-2.399.48 .528.532 1.467,1.058 1.439.24 .88.011 1.398,1.628 1.681,1.44-.569-.689.931-.847.96-1.68-.001.133.194.273.24,0zm14.88.48c.064-.495 1.063-.058.96-.72-.478-.75-1.377.648-.96.72zm-356.4-.48c-.386-.62-2.034.18-1.44.48 .189-.24.839.089 1.2-.48-.001.133.194.273.24,0zm334.799.48c.146.138 1.139.562 1.2,0-.187-.053-.279-.201-.24-.48 .32.312.725.147.96-.24-1.201-.154-1.438.8-1.92.72zm-1.2-.24c.176.655-.477.483-.479.96 .404.078 1.078.32 1.44,0-.518-1.227-.839.281-.961-.96zm29.04,1.68c.761-.621 1.765-.772 1.44-1.68-.149.528-1.006.038-.72,0-.562.074-1.439.702-2.4.48 .038.283-.041.681.24.72 .168-1.122 1.739.256 1.44.48zm-68.159-1.44c-.19.635-1.129-.537-1.2.48 1.591-.204-.367.65.479.96-.114-.693 1.492-.884.721-1.44zm1.68.96c.409.417 2.108.31.96-.24 1.044.306 1.328-.19 1.68,0-.133,0-.272.194 0,.24 .076-.325.342-.458.24-.96-1.533.377-2.454-.347-4.08.24 .319.588.894-.264.96.24-.582,1.295-1.266-.192-1.92.72 .026.597.45.743 0,1.2 1.06-.55 2.63-.56 2.16-1.44zm-.96.96c-.773-.566.844-.97 0,0zm12.24-.96c1.19.199-.215-1.431-.24-.72 .499.134.509.374.24.72zm58.8.24c-.014-.252-.308-.188-.24.24 .824-.136 1.469-.452 1.92-.96-.856.026-1.517.48-.72-.24-.413.095-.615-.356-.72,0 .398-.103-.021.895-.24.96zm-227.76,0c1.685-.491 2.64,1.318 3.359-.24-1.383.635-1.692-.314-2.64-.72-.554-.073-.267.693-.72.72-.038-.283.041-.681-.24-.72-.481.489-.062.639.241.96zm.48-.72h.48v.48h-.48v-.48zm162.48,0c.104,1.064-1.807.114-1.44,1.44 .979-.199.826-.037 1.92,0-.451-.834.274-.911.48-1.68-.874-.001-.297,1.216-.96.24zm42,.72c.423.73.743-.655.96,0-.836.071.02.649-.48.72-.014-.146-.036-.284-.24-.24-.227.868.945.335 1.44.48 .588-.319-.264-.893.24-.96 .279.041.261.379.239.72h.961c-.03-1.086.469-.274.72-1.2 .336.018.918-.054.479-.24h-1.92c-.095.413.356.615 0,.72-.111-.391-.956-1.253-1.2-.72 .675.385-1.301.116-1.199.72zm-382.32-.24c.284-.117.544-.256.72-.48-.321-.037-1.323.377-.72.48zm-5.04.24c.919.055 1.063.714.72,1.44 .988.114-.231-.646.72-.72 .027,1.122.44-.17.72-.24 .01.331-.113.527-.24.72h1.2c.041-.359-.086-.886.24-.96v.72c.422-.138 1.41.29 1.44-.24-.459-.101-1.033-.087-.96-.72-2.007.406-2.593.088-3.84,0zm330.24.24c.245-.028.485,1.035.72.24-.563-.003.088-.655.48-.48-.014.413.185.615.479.72 .3-1.356-1.284-.972-1.679-.48zm1.92.48c.614-.025 1.145-.136 1.439-.48-.316-.003-.219-.421-.479-.48-.058.261-.396.576-.48.24 .537-.568-.531.3-.48.72zm3.359-.24c.212-.495-.791-.909-.72-.48 .379.022.189.612.72.48zm11.521-.24c-1.942.612 1.587-.416 0,0zm-347.761.48c-.003.396-.666.134-.72.48 .478.5 1.025.008 1.2-.48-.345.128-.585-.936-.72-.24 .147.013.285.036.24.24zm-5.52,1.68c1.042.094 2.271-.652 3.36-.72-.909-.088-2.124-.709-3.12-.48 .755.167-.933,1.093-.24,1.2zm-.48.48c.187.054.474.006.48.24-.33-.01-.527.113-.72.24 .013-.413-.185-.615-.48-.72 .358.56-.081,1.034.24,1.2 2.148-.875 2.611-.317 4.32-1.44-.776.787 1.168.512 1.2,0-.453-.026-.167-.793-.72-.72-.676.877-3.752,1.473-4.32,1.2zm332.161-2.16c.003-.396.665-.134.72-.48-.49-.206-1.322.377-.72.48zm51.84,0c.538.102.765.515 1.2.72-.146.014-.284.036-.24.24 .999-.28 2.153-.407 2.88-.96-.917.178-2.602.46-2.4-.48-.4.73-1.155-.015-1.44.48zm-229.44.72c-.047.687-1.414,1.288-1.92.72 .943.144.891-.71 1.44-.96-.054.408.271.594.239,0-1.771-.128-3.628-1.401-5.279.24-.011-.33.112-.527.239-.72-.663.03-.823.458-.479-.24h-2.4c.254.531.712.649-.239.48-.074,1.194 1.641.599 1.68,1.68-.648-.025-1.087-1.304-1.44-.24 .611.03.931.35.96.96 1.31-.258 2.565.847 2.88-.48h.48c.018.418-.054.746-.24.96 .679-.199.622.338 1.2.24 .072-.472-.324-.476-.479-.72 .938-.379.496.623.96.72 1.177-3.318 3.521-.41 6.239-1.92-1.171-1.196-1.235-.916-3.841-.72zm-6.241,1.2h.48v.48h-.48v-.48zm1.2,0c.466-.095.351,1.093-.24.72v-.48c.205.044.227-.094.24-.24zm44.88-.48c-.376-.344-.188-1.251-.96-1.2-.562,2.441 6.097,1.316 4.32.72 .368.058.035.395-.24.48-.182-.698-1.978.218-2.16-.48 .784-.001.522-1.408 0-1.2 .323.723-.11,1.481-.96,1.68zm-203.519.72c-.295.354.496.915 0,1.68-.663.103-.226-.895-.72-.96-.101,1.154-.087-.286-.72,0-.095.413.356.615 0,.72 0-.241-.195-.286-.24-.48 .202-.279.316-.644.24-1.2-1.402-.172-1.479.447-2.16.48-.131.349.28,1.24-.24,1.2-.133-.667-.928-.672-1.44-.96 .036.596-.124.996-.48,1.2-.174-.734.414-.706.24-1.44-1.164.15-.049,1.331-.96,1.44 .376-1.105-1.383.368-1.2-.72-.049.291.989.036.24-.48-.592-.408-.868.67-.96.72 .086-.045-1.257-.052-.24-.48-.349.131-1.24-.28-1.2.24 .431-.031.562.238.48.72-2.291-1.022-3.79-.368-6.24-.24 .33.547-.619.902 0,.96 .003-.314.666-.306.72,0-.803.501-1.299.567-2.4.24 .477-.399.305.022.96,0-.035-.319.807-.893.24-.96-.013.252-.308.189-.24-.24-4.063.69-4.909.774-9.12.96 .563.717-1.939,1.242-1.2.48-.853-.373-.145.815-.72.72-.055-.425.242-1.202-.48-.96-.054.454.271.53.24.96-.346-.531-.585.302-.72-.24 0-.241.194-.286.24-.48-3.025-.165-4.613.826-6.96.48 .012.731-.218,1.222-.72,1.44-.029-1.031-1.023.403-.96-.72 .251.223 1.269-.142 1.44-.72-1.05.31-2.193.526-2.64,1.44v-.96c-.579.098-.522-.438-1.2-.24 .007.807-1.111.489-1.44.96-.209-.351-.359-.76-.96-.72-.358.361-1.076.364-.96,1.2 1.632-.806 1.428-.035 3.12-.72-.546.858.434.632 1.2.48-.018.418.054.747.24.96 1.551-.688 3.815-.665 5.28-1.44-.211.495.791.909.72.48-.191-.027-.728-.793-.24-.72 .241.741.227-.689.72-.48 .962.461.225.845 1.2.96-.601-.041-.583.538-.96.72 .619-.341 1.908-.012 2.16-.72 .593,1.193 1.895-.377 2.4.48 .317-.601-.949-.751-.24-.96 .058.371.893,1.15 1.2.48-.229-.411-.796-.483-.96-.96 .489.481.639.063.96-.24-.287.716-.066.816.24,1.44 .703-.216.737-.216 1.44,0 .706-.771.166-1.679.48-2.16 .598.773 1.732.062 1.92.24-.313.635-1.271.253-1.44.48 .421.218.439.841.72,1.2 1.261-.339 2.918-.282 3.6-1.2 .038.282-.041.681.24.72 .597-.283 1.364-.396 1.68-.96 .036.525.605.516 1.2.48 .418-1.738 2.335.088 2.88-.96-.324-.583-.479-.149-.72-.48 .5-.07-.356-.649.48-.72-.347,1.456 1.129.178 1.68.48 .841.46-.08.691 1.2.24 .024.27-.349.374 0,.48-.103-.673.895.602.96-.24-.284-.117-.544-.256-.72-.48 1.093.543 2.085.11 3.12.96 .058-.45.395.136.48-.24-.351-.208-.761-.359-.72-.96 .557.323 1.078.682 1.44,1.2-.013-.413.185-.615.48-.72 .024.27-.349.374 0,.48 .646-.851 1.085-.112 1.68-.24-.361.078.683-.833.96-.24-.413-.013-.615.185-.72.48 .801-.079 1.348-.412 1.68-.96 .698.974 2.6-.454 4.08-.24 .144-.427-.703-.997 0-1.2-.296.776.777.184.48.96 .565.005.707-.413 1.44-.24-.319-1.119.534-1.065.96-1.44-.493-.142-1-.461-.48-.96-.773-.053-1.016.425-1.92.24-.188.787-1.032.745-.96,1.2-.427-.133-.997-.124-1.2-.48 .133.001.272-.194 0-.24-.584.739-.16.399-.96.72zm393.12-.96c-.146-.013-.284-.036-.24-.24 .294.077 1.482-.039.72-.24-.595-.035-1.164-.044-1.2.48 .412-.095.614.356.72,0zm-377.28,0c-.387.438-.76-.169-1.2.48-.024-.269.349-.374 0-.48-1.042,1.083 1.903.473 1.2,0zm224.639.96c-.054.186-.006.473-.239.48 .054-.408-.271-.594-.24,0 .563.311.537-.123.96.48-.012-.812.559-1.042.96-1.44-.428.144-.997-.703-1.2,0 .27.051.374.267.48.48h-.721zm5.761-.72c.372.722-1.333.722-.96,0-.655-.021-.483.4-.96,0-.072.472.323.476.479.72h-.72c.274-.493-.377-1.145-.48-.48 .75-.073-.609.694.24.72 .78-.314 2.85.423 2.401-.96zm2.64.72c.499.521.775-.029 1.2-.24 .001.241-.194.286-.24.48 .431.031.562-.238.48-.72-.713.236-1.184.34-1.44.48zm-15.361.48c.833-.048 1.845.084 1.92-.72-.742.675-1.487-.082-1.92.72zm8.88,0c-.037-.283.042-.682-.239-.72-.4.477.021.305 0,.96 .755.275.583-.377.96-.48 .014.146.035.284.239.24v-.48c-.053-.187-.2-.279-.479-.24 .012.413-.185.615-.481.72zm39.601,0c.418-.21.925-.803.479,0 .432.031.562-.239.48-.72-.423.004-1.418.624-.959.72zm-114.24.96c-.014.037-.844-.407-.24-.72-1.345-.175-2.495-.545-3.84-.72-.213.427-.67.61-.479,1.44 1.355.075 2.496-.063 3.359-.48-.527.76 1.091.766 1.2.48zm119.759-.48c.279.201.644.316 1.2.24v-.48c-.24.001-.285-.194-.479-.24-.004.396-.666.134-.721.48zm-216.96.48c.014-.146.036-.284.24-.24 .014.146.036.284.24.24v-.48c-.241,0-.286-.194-.48-.24 .095.413-.355.615 0,.72zm188.401.24c-.37,1.241 1.315.882.72.72-.058-.45-.396.136-.479-.24 .354-.278.604-.278.96,0 .098-.578-.438-.521-.24-1.2-1.149.226-1.906-.641-2.4.24 .651.149 1.905-.305 2.16.24-.135.499-.376.508-.721.24zm-188.88-.24c.204-.612-1.587-.65-2.16-.24 .756.327 1.171-.151 2.16.24zm320.88-.24c.011.331-.113.527-.24.72 .472.072.476-.324.72-.48 .094.368.288.035 0-.24 .134.001.272-.194 0-.24-.053.187-.201.279-.48.24zm3.36.24c-.45-.058.136-.396-.24-.48-.66,1.011-1.538-.492-2.16.24 1.116.454 1.612.52 2.4.24zm4.8-.48c.01.33-.113.527-.24.72 .722.151 1.493.426 2.16-.24-1.121.101-1.38.294-1.92-.48zm-334.08.96c.612-.542.607.988 1.92.48-.026-.597-.45-.743 0-1.2-.974-.24-2.292.41-1.92.72zm107.76.24c1.41.392 1.306-.177 1.2-.96-.051.29-.267.147-.48,0 1.024,1.105-1.34.46-.72.96zm-350.641,0c.014-.146.036-.284.24-.24-.001.133.194.272.24,0-.45-.058.136-.396-.24-.48 .029.246-1.034.485-.24.72zm241.44.24c.051-.29.267-.148.48,0-.041-.359.086-.886-.24-.96 .317.601-.948.751-.24.96zm10.081-.72c.989-.178 1.798-.103-.72,0 .564.778.217.091.72,0zm-3.84.48c-.29-.051-.147-.266 0-.48-.282.038-.682-.041-.72.24 .346-.128.585.935.72.24zm-191.28.24c-.123.209-1.003-1.241-.48,0 .104.249.315.28.48,0zm.96-.24c-.014.146-.036.284-.24.24-.014-.146-.036-.284-.24-.24 .33.547-.619.902 0,.96 .013-.146.036-.284.24-.24 .544.656.115-.562.24-.72zm489.119.24c-1.894.185.596.255 1.2,0-.434-.495-.844-.035-1.2,0zm29.76,0c.014.449-.185.508-.479.24 .027,1.229.794.327 1.68.48-.21-.771.623-.498.721-.96-1.497-.02-1.069,1.114-1.922.24zm-266.88.24c-.545-.159-2.012-.62-2.16.24 1.301-.247 1.412.093 2.16-.24zm42.481.72c1.189-.319.375-1.134 0,0zm-287.52-.48c-1.149-.142-1.125.89-2.16.24 .095.413-.356.615 0,.72 .637-.34 1.346-.124 2.16.24 .07-.284.966-.906.24-1.2-.333.147-.036.924-.48.96-.482-.489.106-.471.24-.96zm288.959.24c.188.053.279.201.24.48 .655.175.483-.477.96-.48-.013.307-.308.333-.24.72 .854.373.146-.815.721-.72-.119.468 1.19.864.96,0-.768.172-1.904-.508-2.641,0zm-117.84.72c.187.054.474.006.48.24-.187.054-.474.007-.48.24h2.16c-.165-.646.496-.464.72-.72-.754.462 1.669.565 2.16.24-1.609-.276-1.626-.818-3.36-.72-.262,1.371-1.168.403-1.68.72zm339.121-.48c-1.854.316 1.03-.176 0,0zm-292.56,1.2c.915-.686.58.262 1.439-.48 .001.241-.194.286-.24.48h.48c.146-.013.284-.036.24-.24-.188-.053-.279-.201-.24-.48-.965.01-1.756.021-1.92.24 .188.053.28.201.241.48zm2.399,0c.063-.373.526-.166.721,0v-.72c-.359.041-.886-.086-.96.24 .146.014.284.036.239.24-.132-.001-.272.194 0,.24zm-152.639.72c.936.092 1.493-.655.72-.96 .615-.26 1.145.729 1.44,0-.31-.331-1.042-.238-1.68-.24-.054.187-.007.474-.24.48 .001-.133-.194-.272-.24,0 .373.063.166.526 0,.72zm-6,0c.224.256.885.075.72.72-.241-.001-.286.194-.48.24 .103-.387-.895-.805-.96-.24 .644.187.958.079.24.72 1.695-.688 1.245-.198 3.12-.48-.282-.636.46-1.413 0-1.44-.944,1.354.182-1.022-.24-.24-.963.488-1.606.52-2.4.72zm232.32-.24c-.319-1.189-1.134-.375 0,0zm-114,0c-1.295-.673-2.813.09-4.081.48-.102,1.332.468,1.458.48,2.16-.147-.333-.924-.036-.96-.48 .187-.054.474-.006.48-.24-.378-.022-.188-.612-.72-.48-.131.349.28,1.24-.24,1.2-.434-.312-.88-.116-1.92-.24-.211.495.791.909.72.48 .455-.406 2.39.564 3.6-.24-.028.685 1.878.661 2.16.24-.85-.027.51-.793-.24-.72-.013.252-.308.189-.239-.24-.615-.26-1.145.729-1.44,0 1.643-.723 3.265.014 4.32-1.2 .01.331-.113.527-.24.72 .447-.033.802-.158.96-.48-.29-.051-.147-.267 0-.48-1.484.119-3.629-.174-2.64-.48zm-188.16,1.2c1.655-.291 3.114.065 4.32-.24-.29-.051-.147-.267 0-.48-1.959.006-2.602-.012-3.84-.24 .65.217-.549.537-.48.96zm58.559,0c-.317.003-.219.421-.48.48-.243-.762-1.283.006-2.4-.24 .179,1.087-.659-.367-.48.72 .703.063.737-.542 1.44-.48 .001.241-.194.286-.24.48 1.871.181 1.944-.672 2.88,0 .423-.212.396-1.065.96-.48 .33-.547-.619-.902 0-.96h.48c-.7.931.739,1.733.48,1.2-.663-.077-.416-.743 0-.96 .3.604 1.023.233.96,1.2 .158-.719.513.229.96,0 .011-.331-.113-.527-.24-.72 .418.018.746-.054.96-.24-.318,1.046 1.363,1.007 1.68.48-.043.073-.74-.494-.24-.48-.118.488 1.325.98.72.48-.567-.067.275-.641.24-.96-.774-.745-1.727-.329-2.16.48-.057-.342-.395-.405-.48-.72 .428.432.94-.278 1.44-.48h-2.16c-.072.472.324.476.48.72-.241-.001-.286.194-.48.24-.344-1.239-2.411-.585-3.36-.48 .551.262-.239,1.178-.48,1.44 .063-.703-.542-.738-.48-1.44-.636.004-1.413-.133-1.44.48 .85.211 1.237-.617 1.44.24zm21.841-.48c-.446-.021-1.487-.431-1.68.24 .186.054.474.006.48.24 1.006-.561.742-.184 1.92,0-.026-.597-.45-.743 0-1.2-.854-.373-.145.815-.72.72zm121.44-.24c.001-.133-.194-.272-.24,0 .284.071.907.967 1.2.24-1.188.162-.067-.761-.48-.48-.241-.001-.286.194-.48.24zm-163.92,0c.048-.777-.085,1.348 0,0zm28.56.72c.396.004.134.666.48.72 .067-.493.641-.479.96-.72 .209.493-1.221.479-.48.72 .146-.415 1.138.018 1.2-.48-.187-.053-.279-.201-.24-.48-.557-.077-.921.039-1.2.24-.095-.413.356-.615 0-.72-.001.721-.667-1.011-.96,0 1.72.251-.448,1.037.24.72zm268.56,0c.763.183.475-1.64 0-.72 .187.053.278.201.239.48-.255-.011-.609.113-.239.24zm-293.28.72c1.071-.106.357-.506.72-1.2-.876-.156-1.278.162-1.68.48v-.72c-1,.373-1.167.071-2.4.48 .622.258.892.868 1.68.96 .877.144 1.418-1.283 1.92-.72-1.18.08.545.246-.24.72zm-1.681-.96c.695.134-.368.374-.24.72-.795-.234.269-.475.24-.72zm5.041.48c1.362-.196.352-.299 0-.48 .284-.117.544-.256.72-.48-.359.041-.886-.085-.96.24 .185.163.365.797-.24.96v-1.2h-1.2c.342,1.063-.813.628-.72,1.44 1.204-.076 3.296.74 3.84-.48-.29,1.212 1.864.337 2.16.48-.449.013-.508-.185-.24-.48-.377-.023-.833.032-.72-.48 .359-.005.981.892 1.2.24-.302-.098-.491-.31-.48-.72-.903.154-2.271-.014-1.92.24 .315.004.306.666 0,.72-.034-.62-1.071.956-1.44,0zm4.8.24c.359-.041.886.086.96-.24-.293-.027-.568-.072-.48-.48 .422-.138 1.41.29 1.44-.24-.284-.276-.849-.271-1.44-.24 .037.597-.377.743-.48,1.2zm2.639-.96c-.649.163 1.26-.315 0,0zm40.321.72c.976-.064.738-.166 1.44-.72 .027.293.072.568.48.48-.042-1.385-1.552-.181-1.92.24zm55.679,1.2c.51-1.112-1.18.148-1.92,0-.055.425.242,1.202-.48.96 .634-.96-.744-.014-.96-.48 .036.596-.124.996-.48,1.2 .001-.241-.194-.286-.24-.48 .292-.027.568-.072.48-.48-.655-.022-.483.399-.96,0-.229.447.719.802 0,.96 .024-1.093-1.333-.554-1.68-.48 .387-.103.805.895.24.96-.652-.528-.859-.528-.96,0-.246.028-.485-1.036-.72-.24-.18.252-3.161.534-3.6,1.44 .076-.927-.799-.024-1.2,0-.782.048-1.937-.655-2.16.24 .704.121.137.454.96.72-.766.206-.742-.378-1.2-.48 .438,1.218-.231.559-.48,1.44 .696.04 2.622.083 1.92-.48-.021.333-.612.252-.48-.24 .615.26 1.145-.729 1.44,0-.431-.031-.562.238-.48.72 .708.455 1.486-.071 1.92.24 .454-.666.482-1.758 1.44-1.92-.063.703.542.737.48,1.44 .359-.041.886.086.96-.24-.558-.613 3.511.841 4.32-.72-.523.043-.764-.196-.72-.72 .547.33.902-.619.96,0-.004.396-.666.134-.72.48 .664-.041.824.369.48.72 3.118-.054 4.348-1.266 6.24-1.2 .281-.359.298-.981.72-1.2 .247,1.191.745-.214.72-.24-.153,1.262.98.236 2.16.24 .133-.427.124-.997.48-1.2 .054.187.007.474.24.48 .495-.423.21-.743.48-.96 .241.001.286-.194.48-.24-.035.595-.044,1.165.48,1.2-.466-1.886 1.703-.568.48-1.92 .427.144.997-.704 1.2,0-.154.01-.516.596-.48.72-.154-.539 1.299,1.104.48.24-.622-.655.611-1.519.48-.72 .071-.489.48-.64.72-.96-.612-.349-1.078-.843-1.92-.96 .036.596-.124.996-.48,1.2-.051-.29-.266-.147-.48,0 .143-.766-.45-.742 0-1.2-2.375.665-3.813.21-4.8,1.68-.119-.468.827-1.227.24-.72-.943.05-2.604.508-3.6,1.2zm2.161.48c-.044-.204.094-.226.24-.24-1.34-.319.128-.931.72-.48-.059.26-.477.163-.48.48-.044.204.094.226.24.24-.105.356-.307-.095-.72,0zm-12.24,2.64c.727-.887.808.729 0,0zm-2.401.48c.37.271.591.689.96.96-.084.376-.422-.21-.48.24-.356-.203-.347-.773-.48-1.2zm.96.24c.363-.847.456.442.24.48-.141.025-.301-.337-.24-.48zm23.761-5.52c-.038,1.279 2.642.353.96,0 .423-.452.743.328.96-.48-.979-.179-.827.774-1.92.48zm180,0c-.494-.138-1.152-.877-1.92-.24 .545.211-.49,1.132.479,1.44 .547-.5 2.237-.077 3.841.24-.704.016-.707.733-1.2.96-.288-.539-2.194-.224-.96.24-.827-.053-1.137-.624-1.92-.72-.385.944 1.036.083.96.72-.063.337-.526.274-.721.48-.103-.457-.517-.603-.479-1.2-1.434.463-2.801-.573-3.36.96 .597.46 1.354-.6 1.681,0-.195.539-2.486.216-1.681.96 .568-.265 1.511.202 1.44.96 1.109-.227 2.384.171 2.88-.24-.441-.024.02-1.905.72-1.2-.7.487-.043.205-.24,1.44 1.022.142 1.588-.173 2.4-.24-.088,1.136 2.231,1.118 2.88.72-.397.103.021-.895.24-.96 .811.433.835.937.72,1.2 1.108-.162-.367-.797.24-.96 1.413.821 3.021.708 4.08-.24 .918.798 1.111-.666 1.68-.96-.001.874 1.216.296.24.96 .492.515 1.143.125 1.2-.48-1.346-.071-.635-.91-1.44-1.68-1.786-.283-5.904-.125-7.92-.96 .282-.038.682.042.72-.24-.509-1.012.78.637.96-.48-1.229-.329-2.021-.097-1.68-.96-.571.743-1.446-.065-1.92.48 .293.027.568.071.48.48-.331-.011-.527.113-.721.24-.28-.903-1.245-.599-1.679-.72zm-.481,4.32c.204-.704.604.312 1.2,0-.061.562-1.053.138-1.2,0zm10.08-1.68c-.067-.381 1.297-.336.721.24 .092-.092-.724-.257-.721-.24zm-9.359.48c-.067-.381 1.296-.336.72.24 .091-.092-.723-.257-.72-.24zm9.359.24c.156-.408.552-.15.48.24 .275-.288.608-.093.24,0-.045.204.094.227.239.24-.216.65-.535-.549-.959-.48zm-13.679.24c.026-.85.794.51.72-.24 .843.405-.56.707-.72.24zm1.44,0c.555-.538-.114.922-.48.96-.844-.411.602-.484.48-.96zm-138.96-1.92c.19-1.076 1.748-.581 1.68-.96-.187-.054-.474-.006-.48-.24 .391.072.647-.324.24-.48-.431.805-1.778-.017-2.399.96 0-1.508-.781.377-.721-.72-1.818.152-2.207.458-3.359,1.44 .896-.191 1.408-.772 1.439,0 .427-.487.977-.158.24-.72 .771-.21.497.622.96.72 1.066.388 2.344-1.237 2.4,0zm168-1.2c1.513.957.171-1.147 0,0zm-173.761.48c-.021-.721-2.139-.721-2.16,0 .837.07-.02.649.48.72 .002-.353.668-1.206.96-.48-.058.343-.396.405-.479.72 .497-.143 1.576.296 1.68-.24-.441-.208.823-1.701-.24-1.2 .368.057.035.395-.241.48zm-140.159-.48c-.021.655.4.483 0,.96 .853.373.145-.815.72-.72-.041.388 1.22.552.48.24-.388-.702-.76-.095-1.2-.48zm107.279,0c-.737-.235-1.308.901-.96.96 .421-.71 1.279.139 1.92,0 .033-.981-1.216-.308-1.2-.72 .147-.014.285-.036.24-.24zm187.92,0c-.945.385-1.642-.472-1.92.48 .576-.445 1.596.509 1.92-.48zm57.361.72c-.528-1.044-1.049.658-.96-.72-1.216.147-1.762-.126-2.4.24 .208.147.527,1.346.96.48-.39.072-.647-.324-.239-.48 .639.45 2.132,1.32 2.639.48zm-243.84.24c-.095-.575 1.093.133.72-.72-.662-.308-1.174.699-.72.72zm26.88.72c.003-.317.421-.219.479-.48-.783.355-.693-1.349-1.199-.48 .662-.103.225.895.72.96zm-24.72-.48c.144.359 1.208,1.001.72,1.2 0-.133-.194-.272-.24,0 .841.72.887-.89 1.92-.72v-.72c-.359.041-.886-.086-.96.24 1.094-.011-.323.507-.48.72-.166-.423-.265-.743 0-.96 .146-.014.284-.036.24-.24-.427.133-.997.123-1.2.48zm4.56.48c-1.372-.356-1.428.995-2.64.48 .188.053.279.201.24.48 .914-.034 1.498-.025 1.68-.24-.779-.867.81.13.72-.72zm.24,0c.146.014.284.036.24.24-.413-.013-.615.185-.72.48 .83-.545 1.663.397 2.16-.48-.557.129-.827-1.216-1.2-.48 .213.07 1.051.649.48.72-.23-.125-.797-1.077-.96-.48zm-37.2,0c1.256-.32 1.862.159 2.64-.48-.613-.016-1.821-.204-2.64.48zm39.36.72c.665-.698 1.674.039 2.16-.48-.575.095.133-1.093-.72-.72 .057.791-2.048.654-1.44,1.2zm-28.8-.96c-.014.146-.036.284-.24.24 .001-.133-.194-.272-.24,0 .212.481 1.219.062.48-.24zm31.68.48c-.255-.011-.61.113-.24.24 .147-.333.924-.036.96-.48-.423-.166-.743-.265-.96,0 .146.014.284.036.24.24zm-34.8.48c.014-.146.036-.284.24-.24-.054-.186-.007-.473-.24-.48 .074.75-.693-.61-.72.24 .472-.072.475.324.72.48zm194.64,0c.219-.652.841.245 1.2.24 .071-.472-.324-.476-.48-.72 .134,0 .272-.194 0-.24 .09.189-1.5.082-.72.72zm-198.48.72c-.01-.33.113-.527.24-.72h-.96c-.333.147-.036.924-.48.96-.165-.754.028-.981-.24-1.2-.267.25-3.091-.006-2.4,1.2-.472-.072-.476.324-.72.48 .026-.597.45-.743 0-1.2-1.875.175-2.324.413-3.36,1.2 .531-.346-.302-.586.24-.72 0,.133.194.272.24,0-.771-.399-1.546.556-2.16,0 .027.887.44.695.72.24-.022.655.399.483 0,.96 .853.373.145-.815.72-.72 .093,1.301 1.478.404 2.16.48 .028.003-.03.471 0,.48 .801.232 2.143-.176 2.88-.48-.147-.188.522-.436.48-.96 .74.842.122-.015.48-.24 .351.209.93.19.72.96 .892-.148 1.508-.572 2.4-.72 .041-.359-.086-.886.24-.96 .146-.014.284-.036.24-.24-.956-.076-.65,1.11-1.44,1.2zm-3.12.24c-.105.295-.307.493-.72.48-.112-.512.343-.457.72-.48zm-3.12-.24c.502-.102.636.165.96.24-.127.193-.25.39-.24.72-.183-.377-.761-.359-.72-.96zm-.96.72c.727-.887.808.729 0,0zm9.12-1.2c-.283.038-.681-.041-.72.24 .325.075.458.341.96.24-.164-.754.028-.98-.24-1.2-.094.342-.288.405 0,.72zm-211.92-.24c.317.601-1.118.583-.24.96-.036-.32.976-.725.24-.96zm.24.96c.199-.198.841-.131 1.2-.72-.624.092-1.565.139-1.2.72zm.959.48c-.103-.663.895-.225.96-.72-.235-.509-1.603.421-.96.72zm-2.159-.24c-.001.004.234-.009.24,0 .767,1.279-.106-.803-.24,0zm198.24,3.12c.755-.317 1.329,1.306 2.16.72-.107-.382.171-.975.96-.96-.264.979 2.398,1.115 3.36.48-.171-1.549-.373-.921-.72-1.44-.702.623-.779.008-1.2.24 .229.411.796.483.96.96-.557-.077-.921.039-1.2.24v-1.2c-1.518-.021-3.131.271-3.6,0 .738.376-1.064.189-.72.96zm7.2-1.2c-.038.854-1.244,1.051-.24,1.68 .009-1.194 1.054-.725.24,0 .635-.405 2.276.196 2.4-.72 .04-.68-1.479.199-1.44-.48 .739.29 1.699-1.048 1.68,0 .601.041.751-.369.96-.72-1.47.042-3.924-.139-4.32.24 .494.476.226.476.72,0zm-18.24.96c.024.269-.349.374 0,.48 .234-.246.475-.486.72-.72-.013.413.185.615.48.72 .094-.261.288-.576 0-.24-.183-.189-.173-.839 0-1.2h-.96c.114,1.134-.299.447-.72.24-.072.472.324.476.48.72zm7.919-.72c-.254.505-1.713-.361-.96.48-.104-.204 1.598.016.96-.48zm-84.96.24c-.998,1.347.399.686 0,0zm81.121.72c-.563-.312-.537.122-.96-.48-.217.701-.883.07-.96.48 .246-.028.485,1.035.72.24-.748-.094 2.892.259 2.4-.72-.134.695-.375-.368-.72-.24-.129.495-1.136.057-.48.72zm6,.96c-.168-.739-.168-.461 0-1.2-1.49.208-1.996.015-2.64.96-.07-.836-.649.02-.72-.48 .187-.053.279-.201.24-.48-1.044.045-.437.417-.48,1.2 .966.137 1.645-.193 2.16-.24-.365.033 1.318-.422.24.48 .733-.173.875.245 1.44.24-.011-.255.113-.609.24-.24 0,.133.194.272.24,0-.354-.553.665-1.219-.48-1.68 .2.771.204.498-.24.96 .187.054.474.007.48.24-.241-.001-.286.194-.48.24zm-20.88,0c0,0-1.327.077-.72.24 .084.023.997.211.72-.24zm-2.64,1.2c1.073.338.62-1.454.24-.72 .368.058.035.396-.24.48 .379-.663-.623-1.077-.72-.48 .345.134.585.374.72.72zm15.12.72c.914.251.736-.965 1.44-.24-.095-.413.356-.615 0-.72-.275.042-1.38.387-1.68-.24 .39.072.647-.324.24-.48-.053.187-.201.279-.48.24-.063.702.542.737.48,1.44zm-20.88-.24h-.48c-.153-.523.68-.764-.24-.72-.396.004-.134.666-.48.72 .255-1.13-.9.485-.72-.72-1.636-.153-2.484,1.502-3.6.48-.641.319-.315,1.605-.72,2.16 .765.205.911-.209 1.2-.48-.01.331.113.527.24.72-.471-.349-1.199.228-1.44.24 .146.014.284.036.24.24 .014.146.036.284.24.24 .102-.656 1.929-.515 1.2,0 1.422-.549 2.662-.004 4.08-.72-.65-.496.549-.21.48-.48-.75.074.61-.693-.24-.72 .073.633-.501.619-.96.72 .081-.849.014-1.236.24-1.44 .873.827 3.054-.094 3.84-.72-.001.241.194.286.24.48-.548.647-1.212.464-1.68.72 .415.418 1.484.266 1.68-.24-.436-.803.791-.147.72-.72-.005-.042-.673.04-.72,0-.455-.386.321-1.381-.48-.96-.169.944-.66.57-1.92.24-.038.282.042.681-.24.72-.557-.351.469-.761-.48-.72-.23.447.719.802 0,.96zm18.96,0c.395-.186.672-1.443 0-.72 .146.014.284.036.24.24-.39-.072-.647.324-.24.48zm-1.44-.24c-.043,1.539 1.312-.299 0,0zm-9.6,1.44c.392.175 1.044-.477.48-.48-.482.571.106-.267.24-.48-.413.095-.615-.356-.72,0 .718.158-.23.513 0,.96zm7.44-.48c.613-.412.84.275 1.2-.24-.534.106-1.302-.741-1.44-.24 .187.053.279.201.24.48zm-10.56,0c.179.739-.659.461-.48,1.2 .449.013.508-.185.24-.48 .976-.358 1.994,1.335 1.92.48-1.534-1.336 2.089.144.96-1.68-.233.365-1.526.285-2.64.48zm69.359-21.36c-.003.477-.655.305-.48.96 1.351.151 5.275.467 7.44,0-.983-.55.766-.32.72-.72-.268-.22-.076-.446-.24-1.2h-1.68c-.055.425.242,1.202-.48.96 .013-.307.308-.333.24-.72-.711.48-1.774.041-2.88,0-.171,1.368-1.189-.414-1.44.24 .018-.418-.054-.747-.24-.96-.77-.21-.498.623-.96.72-.451-1.322-1.601.478-2.16-.24-.054.454.271.529.24.96-.33-.01-.527.113-.72.24 .461-.545.549-.718-.24-.96-.022.377.032.832-.48.72 .035-.284.427-.544 0-.72-.077.41-.743-.221-.96.48 .912-.484.952,1.091.48,1.2-.02-1.537-.124-.527-.48,0-.592-.638-.843-1.083-1.92-.72-.002.704 1.111.813.48,1.44 1.39.117 2.624-.956 3.6-.48-.067-.547.058-.902.48-.96 .229.447-.719.802 0,.96-.119-.605 1.191.669.96-.48-.058-.45-.396.136-.48-.24 .458-.102.435-.686 1.2-.48zm4.321,0c.272.046.133.241 0,.24 1.091,1.068-.576.493 0-.24zm-1.44.48c.826.62-1.235.58 0,0zm-88.08,9.6c.431-.031.562.238.48.72 .745-.315.685.065 1.68,0-.041-.359.086-.886-.24-.96-1.019,1.106-.674-.639-1.92.24zm-72,1.44c.701.259 1.383.537 2.4.48-.846-1.457-1.624-.627-2.4-.48zm94.56,10.56c-.897-.021-.684-.269-1.44,0-.22-.421-.446-.834-1.2-.72-.168.739-.168.461 0,1.2 .683-.207 2.903-.123 2.64-.48z" fill="url(#SVGID_1_)" fill-rule="evenodd"></path>
</svg>
