<?xml version="1.0" encoding="UTF-8" standalone="no"?>
<svg width="770" xmlns="http://www.w3.org/2000/svg" height="770">
 <g stroke-width=".5" fill-rule="evenodd">
  <path d="m0 385v-385h770v770h-770v-385zm555.8-161.5l0.2 0.5 16 17.5q16 17.5 17.2 18 1.3 0.5 1.6 1.5 0.2 1 1.2 1t4 4 10.2 10.5q7.3 6.5 32.6 33.3 25.2 26.7 30.4 33 5.3 6.2 13.6 25.7 8.2 19.5 9.2 19.5t3 5.2q2 5.3 2.8 7.6 0.7 2.2 1 2.7l0.2 0.5h0.2q0.3 0 0.6 0.5l0.2 0.5 4.8 10.5q4.7 10.5 5.2 14t1 4 0.8 1l0.2 0.5h0.2q0.3 0 0.6 0.5l0.2 0.5 2 3.8q2 3.7 3 4 1 0.2 2 3 1 2.7 2.8 6.4 1.7 3.8 1.7 90.8t-3.5 92-17 16-13.8 11.2l-0.2 0.3-0.2 0.3-0.3 0.2-0.3 0.2-0.2 0.3-0.2 0.3-0.3 0.2-0.3 0.2-0.2 0.3-1 0.3-1 0.2-0.2 0.5q-0.3 0.5-2.8 2.5t-7.8 4l-5.2 2-10 0.2q-10 0.3-42 3.3t-48.5 2l-16.5-1v-0.5l-2-0.2q-2-0.3-45.5-5.3t-55.5-6.3q-12-1.2-12-2.2t-8.5-1.2q-8.5-0.3-9-1.6-0.5-1.2-29.5-4.7l-29-3.5 0.2-1 0.3-1 0.3-0.2 0.2-0.3v-0.5l-3 0.2q-3 0.3-5 0.8t-4.5-2-6-3-7.5-1.2l-4-0.8v0.5l0.2 0.3 0.3 0.2 0.3 1 0.2 1-4-0.2-4-0.3-0.2-0.3-0.3-0.2-0.5-1.5q-0.5-1.5-1.2-3l-0.8-1.5v4l-3.5-0.2-3.5-0.3-1-0.5-1-0.5-2-0.5-2-0.5-1-0.5q-1-0.5-38.2-13.8-37.3-13.2-45-15.4-7.8-2.3-9.8-3.6-2-1.2-27.5-41.2l-25.5-40-0.5-0.2q-0.5-0.3-0.5-0.6v-0.2l-0.5-0.2q-0.5-0.3-0.5-0.6v-0.2l-0.2-0.5q-0.3-0.5-10.3-16t-26.3-53.5q-16.2-38-17.2-38t-3.2-6.5q-2.3-6.5-4-12.5-1.8-6-2.8-6t-1.5-3-1.5-3-1.2-2.5q-0.3-2.5-2.8-7.5t-8-19.5l-5.5-14.5-0.3-4.5-0.2-4.5-0.2-0.5q-0.3-0.5-6.8-11.5t-13.5-22-10.5-16-4.8-13l-1.2-8-0.5-0.2q-0.5-0.3-0.5-0.6v-0.2l-0.2-1-0.3-1-0.5-2q-0.5-2-4.5-22.5t-4.3-29q-0.2-8.5 1.3-9.3 1.5-0.7 3-1.2t5.3-8.2q3.7-7.8 7.4-16.8l3.8-9 0.2-0.5q0.3-0.5 0.6-0.5h0.2l0.2-0.5q0.3-0.5 0.6-0.7l0.2-0.3 1-0.5 1-0.5 0.2-0.3 0.3-0.2 2.7-4.2q2.8-4.3 3.8-4.6 1-0.2 4.5-4.4 3.5-4.3 4.5-4.6 1-0.2 6.5-6.4 5.5-6.3 27-11.8t40-9.5 22.7-4.7q4.3-0.8 7-1.3 2.8-0.5 2.8 0.5t3.2 0.5q3.3-0.5 3-2-0.2-1.5 2-1 2.3 0.5 1.6 1.3-0.8 0.7 6.7 3 7.5 2.2 7.5 3.2t1.5 1.2q1.5 0.3 6 0.6l4.5 0.2 10-2.2q10-2.3 10.5-2l0.5 0.2h0.5l0.5 1 0.5 1 0.3 0.2 0.2 0.3 0.2 0.3 0.3 0.2 0.7 2q0.8 2 2.8 1.2 2-0.7 3-0.2t2 0.8l1 0.2v-1.5q0-1.5 2-1.3l2 0.3 1.5 0.3 1.5 0.2v-2l-1.5-0.2q-1.5-0.3-1.7-0.6-0.3-0.2-0.6-3.2-0.2-3 0.8-3t1-1-2-1h-2l0.5-2.8q0.5-2.7 4.5-3.7t5-0.7q1 0.2 1 1.2t11 2.2q11 1.3 14.5 2.3t18.5 4 27.5 6.5 22.5 8 25 7 20 2.5 64.5 34 67.5 39 14.2 8.3q6.3 3.2 10.3 7.2t4.3 4.5z" stroke="#fff" fill="#fff"/>
  <path d="m111.8 250.5l19.2-32.5 0.2 1 0.3 1 0.7 0.2q0.8 0.3 1.8 0l1-0.2-18.2 30.5q-18.3 30.5-20.3 34.5t-2.3 4.2l-0.2 0.3-0.2 0.3-0.3 0.2-0.3 2.5-0.2 2.5 1 0.2 1 0.3 33 4.5q33 4.5 36.5 5l3.5 0.5 1.5 0.3 1.5 0.2-0.2-1q-0.3-1-0.6-2l-0.2-1 13.5 2.8q13.5 2.7 14.7 4 1.3 1.2 2 0.4 0.8-0.7 1.3-0.7h0.5l1.5-0.3 1.5-0.2v0.5l0.2 0.3 0.3 0.2 0.3 2.5 0.2 2.5-0.2 1-0.3 1-0.3 0.2-0.2 0.3-0.5 0.3-0.5 0.2v-2l-2.8 1.5q-2.7 1.5-40 24.3-37.2 22.7-38.2 23.2l-1 0.5-0.2 0.3-0.3 0.2-0.3 0.5-0.2 0.5h-3l-0.2-0.5q-0.3-0.5-22.3-33.5l-22-33-0.3-0.2-0.2-0.3v-0.5l-0.2-1-0.3-1h-0.5l0.2-1.5 0.3-1.5 0.3-0.2 0.2-0.3 0.2-0.3 0.3-0.2 0.3 0.2 0.2 0.3 3 0.5q3 0.5 6.5 0t6.3-5.2q2.7-4.8 22-37.3z" stroke="#4f7fd3" fill="#4f7fd3"/>
  <path d="m133.5 181.5v-2.5l0.5 1 0.5 1 0.3 0.2 0.2 0.3 0.2 0.3 0.3 0.2 2 3.5q2 3.5 2.3 3.7l0.2 0.3 0.2 0.3 0.3 0.2 0.3 0.2 0.2 0.3 2 0.3 2 0.2 0.2-1 0.3-1 0.5-1q0.5-1 1.8-2.5l1.2-1.5 1.5-1.2q1.5-1.3 2.5-1.6l1-0.2-0.2 1.5-0.3 1.5-1 5.5q-1 5.5-0.5 9.5t3 6 2.8 3.5q0.2 1.5-1.8 1.7-2 0.3 27.5 13.8t30.5 14l1 0.5 1 0.5 1 0.5 0.5 0.3 0.5 0.2-1.2 10q-1.3 10-1.6 12.5l-0.2 2.5h-0.5l-0.5 1.5-0.5 1.5-0.5 2.5-0.5 2.5-0.3 0.2-0.2 0.3-1.8 1.7q-1.7 1.8-2.7 15.8t-1.3 14.2q-0.2 0.3-1.2 0.8l-1 0.5 0.2 0.3 0.3 0.2 0.3 0.5 0.2 0.5-1.5 0.2-1.5 0.3h-0.5q-0.5 0-1.3 0.7-0.7 0.8-1.2 0.3t-4.8-2.3q-4.2-1.7-13.7-3l-9.5-1.2-0.2-0.5q-0.3-0.5-0.6-0.5h-0.2l-2-0.2q-2-0.3-5.2-1.6-3.3-1.2-7.8-31.7t-7-40l-2.5-9.5-0.3-0.2-0.2-0.3-0.2-0.3q-0.3-0.2-1.3-1.7l-1-1.5-0.3-0.2-0.2-0.3h-3l-1.8 2.3q-1.7 2.2-2 2.7l-0.2 0.5h-0.5l-0.3 0.5-0.2 0.5h-0.5l-0.3 0.5-0.2 0.5h-0.5l-0.5-1-0.5-1-0.3-1-0.2-1 0.2-1q0.3-1 1.3-3.5l1-2.5 0.3-0.2 0.2-0.3-0.2-0.3-0.3-0.2-0.3-0.2-0.2-0.3h-9l-2 0.3-2 0.2-2-0.2-2-0.3 0.2-0.3 0.3-0.2 0.3-0.2 0.2-0.3 1.5-0.5 1.5-0.5 1-0.5 1-0.5 2-1q2-1 4.5-1.5l2.5-0.5 0.2-0.3 0.3-0.2 0.3-0.2 0.2-0.3 0.2-0.3 0.3-0.2 0.3-0.2 0.2-0.3 0.2-0.3 0.3-0.2 0.3-0.2 0.2-0.3-0.2-0.3-0.3-0.2-0.3-0.2-0.2-0.3-0.2-0.3-0.3-0.2-0.3-0.2-0.2-0.3-1-0.5-1-0.5-0.2-0.3-0.3-0.2-0.3-0.2q-0.2-0.3-3.2-1.8l-3-1.5-0.2-0.3-0.3-0.2-0.3-0.2-0.2-0.3-1-0.5-1-0.5-0.2-0.3-0.3-0.2-0.3-2-0.2-2 1 0.2 1 0.3 1.5 0.5 1.5 0.5 2 1q2 1 4 1.5l2 0.5 1.5 0.5 1.5 0.5 0.2 0.3 0.3 0.2v-4l-0.5-1.5q-0.5-1.5-1-2.5l-0.5-1v-2.5z" stroke="#248fdd" fill="#248fdd"/>
  <path d="m555.8 223.5l0.2 0.5 1.8 3.5q1.7 3.5 2 3.7 0.2 0.3 0.4 0.6l0.3 0.2 7.3 9.5q7.2 9.5 4.7 9t0.5 5 5.2 7.5q2.3 2 3.6 5.5 1.2 3.5 3.2 4t4.2 5q2.3 4.5 6 9 3.8 4.5 4.8 4.5t19.5 21.8q18.5 21.7 25.5 27.7t11.8 11.3q4.7 5.2 5 6.2 0.2 1 1.2 1t1.2-1q0.3-1 0.8 1l0.5 2 0.3 1 0.2 1-1 0.2-1 0.3-0.2 0.3-0.3 0.2-0.3 0.2-0.2 0.3 0.2 0.3 0.3 0.2v4l-0.3-0.2-0.2-0.3h-2l-0.2 0.3-0.3 0.2-0.3-0.2-0.2-0.3-0.2-0.3-0.3-0.2-0.3-0.2-0.2-0.3-0.2-0.3-0.3-0.2-0.3-0.2q-0.2-0.3-2.7-2.3t-4-1.7q-1.5 0.2-2.5-1.6l-1-1.7-0.2-0.3-0.3-0.2-0.3-0.2-0.2-0.3-2-0.3-2-0.2-0.2 1-0.3 1-0.3 0.2-0.2 0.3-0.2 0.3-0.3 0.2-0.3 0.2-0.2 0.3-0.2 0.3-0.3 0.2 1 11q1 11 3.5 28t1.8 20.5q-0.8 3.5-4.3 4t-1.7 3.5q1.7 3 1.4 3.2l-0.2 0.3-3 0.5-3 0.5-1.5 0.5-1.5 0.5-0.2 0.3-0.3 0.2-0.3 0.2-0.2 0.3-1 0.3-1 0.2 0.2-1q0.3-1 1-2.5 0.8-1.5-0.2-1.7-1-0.3-2-2.6-1-2.2-3.5-3-2.5-0.7-38-9.2t-52-10.5-32-5l-15.5-3-2-0.3-2-0.2v-1l1.5-0.2 1.5-0.3 0.2-0.3 0.3-0.2 0.3-0.2q0.2-0.3 2.2-0.8l2-0.5 0.2-0.3 0.3-0.2v-3l-0.3-0.2-0.2-0.3-0.2-0.3-0.3-0.2-0.5-1q-0.5-1 0-3l0.5-2 0.3-0.2 0.2-0.3 0.2-0.3 0.3-0.2 0.3-0.2 0.2-0.3 0.2-0.3 0.3-0.2v-1l-0.3-0.2q-0.2-0.3-4.2-2.3t-7.5-1.7l-3.5 0.2 0.2-1 0.3-1 0.3-0.2 0.2-0.3 1.2-0.7q1.3-0.8 1.8-1.8l0.5-1 0.3-2 0.2-2-1 0.2-1 0.3-1.5 0.5q-1.5 0.5-6.5 2t-6.2-0.8q-1.3-2.2-5.8-11.2l-4.5-9-0.5-1-0.5-1-0.3-0.2-0.2-0.3-0.2-0.3-0.3-0.2-0.3-1-0.2-1-1-0.2-1-0.3h-2l-0.2 0.3-0.3 0.2 1.3 15.5q1.2 15.5-0.8 16t-1.8 4.5q0.3 4 0.6 4.2l0.2 0.3 1 0.3 1 0.2-0.2 1.5-0.3 1.5h-0.5l-0.2-0.5-0.3-0.5-0.3-0.2-0.2-0.3-0.2-0.3-0.3-0.2-0.3-0.2-0.2-0.3-4.5-0.5q-4.5-0.5-3.3-1.8 1.3-1.2 0.3-2.2t-7.7-3.8l-6.8-2.7-1-0.5-1-0.5-1.5-0.5-1.5-0.5-0.2-0.3-0.3-0.2-0.3-0.2-0.2-0.3-0.2-0.3-0.3-0.2-0.3-0.2-0.2-0.3 5.5-0.5 5.5-0.5 0.2-0.3 0.3-0.2v-1l-0.3-0.2-0.2-0.3-0.2-0.3-0.3-0.2-0.3-0.2-0.2-0.3-1-0.5-1-0.5-0.2-0.3-0.3-0.2-0.3-0.2-0.2-0.3-0.2-0.3-0.3-0.2-0.3-0.2-0.2-0.3-1-0.5q-1-0.5-13-9t-17-11-15.5-10.5l-10.5-8-0.2-0.3-0.3-0.2-0.3-0.2-0.2-0.3-1-0.5-1-0.5-0.2-0.3-0.3-0.2-0.3-0.2-0.2-0.3-1-0.3-1-0.2v12l-0.5-0.2-0.5-0.3-0.2-0.3-0.3-0.2-0.3-0.2-0.2-0.3-0.2-0.3-0.3-0.2-0.3-0.2-0.2-0.3-0.2-0.3-0.3-0.2-0.5-1-0.5-1-0.5-1-0.5-1-0.3-0.2-0.2-0.3-0.2-0.3-0.3-0.2-0.5-1-0.5-1-0.5-1-0.5-1-0.3-0.2-0.2-0.3-0.2-0.3-0.3-0.2-0.3-0.2-0.2-0.3-0.2-0.3-0.3-0.2-0.3-0.2-0.2-0.3-0.2-0.3-0.3-0.2-0.3-2-0.2-2 4-0.2q4-0.3 7-0.8t5 0l2 0.5h2l0.2-0.3 0.3-0.2 0.3-0.2 0.2-0.3 0.2-0.3 0.3-0.2v-1l-0.3-0.2-0.2-0.3-1-0.5q-1-0.5-1.5-1.8-0.5-1.2-1.5-1.2t-1.2-3l-0.3-3 0.3-0.2 0.2-0.3 4-2q4-2 5-2.5l1-0.5 1.5-0.5 1.5-0.5 0.2-0.3 0.3-0.2 0.3-1 0.2-1-6.5 0.2q-6.5 0.3-10 0.3h-3.5l-0.2-0.3-0.3-0.2v-2l0.5-1.5q0.5-1.5 1.5-4l1-2.5v-3l-0.3 0.2-0.2 0.3-0.2 0.3-0.3 0.2-0.5 1-0.5 1-0.3 0.2q-0.2 0.3-2.2 1.8l-2 1.5-1.5 0.3-1.5 0.2-0.2-1.5-0.3-1.5-0.5-2q-0.5-2-4-12t-3.5-13.5-4.3-8.3q-4.2-4.7-4.7-4-0.5 0.8-2.5 0.6-2-0.3-6-2.6l-4-2.2-0.5-0.2-0.5-0.3-1-0.3-1-0.2 0.2-2 0.3-2 4.7-5.8q4.8-5.7 13-19 8.3-13.2 8.6-13.4l0.2-0.3 0.2-0.3 0.3-0.2 0.5-1 0.5-1 0.5-1 0.5-1 0.5-1 0.5-1v-2l-0.3 0.2-0.2 0.3-1 0.5-1 0.5-0.2 0.3-0.3 0.2-0.3 0.2-0.2 0.3-0.2 0.3-0.3 0.2-0.3 0.2-0.2 0.3-0.2 0.3-0.3 0.2-0.3 0.2-0.2 0.3-1 0.5q-1 0.5-16.2 14.8l-15.3 14.2-0.3 0.2-0.2 0.3-0.2 0.3-0.3 0.2-0.3 0.2-0.2 0.3-0.2 0.3-0.3 0.2-0.3 0.2-0.2 0.3-0.2 0.3-0.3 0.2-0.3-0.2-0.2-0.3-1-0.3-1-0.2-0.2-1-0.3-1-0.5-1.5q-0.5-1.5-4-9.5l-3.5-8-0.5-1-0.5-1-0.5-1.5-0.5-1.5-0.3-1-0.2-1h-2l0.2 2 0.3 2 0.5 4 0.5 4v6l-0.3-0.2-0.2-0.3-0.2-0.3-0.3-0.2-0.3-0.2-0.2-0.3-0.2-0.3-0.3-0.2-0.3-0.2-0.2-0.3-0.2-0.3-0.3-0.2-0.3-0.2-0.2-0.3-0.2-0.3-0.3-0.2-0.3-0.2-0.2-0.3-0.2-0.3-0.3-0.2-0.3-0.2-0.2-0.3-0.2-0.3-0.3-0.2-0.3-0.2q-0.2-0.3-10.2-11.3t-13.5-12.7q-3.5-1.8-3.5-0.3v1.5l-0.5-0.2q-0.5-0.3-9.5-11.8t-13-19.2q-4-7.8-2-7.6 2 0.3 2.2-9l0.3-9.2-0.5-1-0.5-1-0.3 0.2-0.2 0.3-0.2 0.3q-0.3 0.2-1 1.7-0.8 1.5-2.3 1.5h-1.5l-0.2-1.5-0.3-1.5v-1q0-1 0.7-4.5l0.8-3.5h-3l0.2-1 0.3-1 0.3-2 0.2-2h0.5l0.5 1 0.5 1 0.3 0.2 0.2 0.3 0.2 0.3 0.3 0.2 0.7 2q0.8 2 2.8 1.2 2-0.7 3-0.2t2 0.8l1 0.2v-1.5q0-1.5 2-1.3l2 0.3 1.5 0.3 1.5 0.2v-2l-1.5-0.2q-1.5-0.3-1.7-0.6-0.3-0.2-0.6-3.2-0.2-3 0.8-3t1-1-2-1h-2l0.5-2.8q0.5-2.7 4.5-3.7t5-0.7q1 0.2 1 1.2t11 2.2q11 1.3 14.5 2.3t18.5 4 27.5 6.5 22.5 8 25 7 20 2.5 64.5 34 67.5 39 14.2 8.3q6.3 3.2 10.3 7.2t4.3 4.5z" stroke="#b8daf3" fill="#b8daf3"/>
  <path d="m173.8 148.8l0.2-0.3 1-0.3 1-0.2 0.2 1 0.3 1 3.3 3.8q3.2 3.7 23.2 12.7t22.2 10.3q2.3 1.2 2.6 7.7l0.2 6.5-4.2 22q-4.3 22-4.8 23l-0.5 1-0.3 0.2-0.2 0.3 0.2 0.3 0.3 0.2 0.3 0.2 0.2 0.3-0.2 0.3-0.3 0.2-0.3 0.5-0.2 0.5-0.5-0.2-0.5-0.3-1-0.5-1-0.5-1-0.5q-1-0.5-30.5-14t-27.5-13.8q2-0.2 1.8-1.7-0.3-1.5-2.8-3.5t-3-6 0.5-9.5l1-5.5 0.3-1.5 0.2-1.5-1 0.2q-1 0.3-2.5 1.6l-1.5 1.2 0.2-1 0.3-1 0.3-0.2 0.2-0.3 0.2-0.3 0.3-0.2 0.5-1q0.5-1 3.2-5.5 2.8-4.5 3.8-4.5h1v0.2q0 0.3 0.5 0.6l0.5 0.2 0.5-0.2 0.5-0.3 0.2-0.3 0.3-0.2 0.3-0.2 0.2-0.3 0.2-0.3 0.3-0.2 0.5-1 0.5-1 0.5-1 0.5-1 0.3-0.2 0.2-0.3 0.2-0.3 0.3-0.2 0.5-1q0.5-1 0.8-2 0.2-1 1.2-1t2.8-4.5l1.7-4.5 0.5-1 0.5-1 0.3-0.2z" stroke="#2590dd" fill="#2590dd"/>
  <path d="m118 366.2v-0.2h3v0.5l0.2 0.3 0.3 0.2 0.3 0.2 0.2 0.3 0.2 0.3 0.3 0.2 0.3 0.2 0.2 0.3 24.5 24.5q24.5 24.5 28 27.5t6.5 7.5 3.5 5 1 0.8l0.5 0.2v0.2q0 0.3 0.5 0.6l0.5 0.2v0.2q0 0.3 0.5 0.6l0.5 0.2v0.2q0 0.3 0.5 0.6l0.5 0.2v0.2q0 0.3 0.5 0.6l0.5 0.2v0.2q0 0.3 0.5 0.6l0.5 0.2v0.2q0 0.3 0.5 0.6l0.5 0.2 16.5 15.8q16.5 15.7 16.7 16l0.3 0.2 0.3 0.2 0.2 0.3 0.2 0.3 0.3 0.2 0.3 0.2 0.2 0.3 0.2 0.3 0.3 0.2 0.3 0.2 0.2 0.3 0.5 0.3 0.5 0.2v0.2q0 0.3 0.5 0.6l0.5 0.2 1 1.8q1 1.7 3.5 2 2.5 0.2 4 3 1.5 2.7 4.7 6 3.3 3.2 3.6 3.7l0.2 0.5h-5l0.2 1 0.3 1 0.3 0.2 0.2 0.3 0.2 0.3 0.3 0.2 0.3 0.2 0.2 0.3 0.2 0.3 0.3 0.2 0.3 0.2 0.2 0.3 0.2 0.3 0.3 0.2 0.3 0.2 0.2 0.3 0.2 0.3 0.3 0.2 0.3 0.5 0.2 0.5-1-0.2-1-0.3-1-0.5-1-0.5-1-0.5q-1-0.5-5.5-2t-10.5-6-7.2-6.8q-1.3-2.2-10.6-7.4-9.2-5.3-23.4-18.6-14.3-13.2-25.6-23.7-11.2-10.5-11.4-11.5-0.3-1-21.8-21.5l-21.5-20.5-0.3-0.2-0.2-0.3-1-0.5-1-0.5-0.2-0.3-0.3-0.2-0.3-1-0.2-1h0.5l0.3 0.2 0.2 0.3h3l1-0.5 1-0.5 0.2-0.3 0.3-0.2 0.3-0.2 0.2-0.3 0.2-0.3 0.3-0.2 0.3-0.2 0.2-0.3 0.2-0.3 0.3-0.2 0.3-0.2 0.2-0.3 1-0.5 1-0.5 0.2-0.3 0.3-0.2 0.3-0.2 0.2-0.3 0.2-0.3 0.3-0.2 0.3-0.2 0.2-0.3 0.2-0.3 0.3-0.2 0.3-0.2 0.2-0.3 0.2-0.3 0.3-0.2 0.3-0.2 0.2-0.3 0.2-0.3 0.3-0.2 0.3-0.2 0.2-0.3v-0.3z" stroke="#1485cf" fill="#1485cf"/>
  <path d="m137.2 216.8l1.8-2.3h3l0.2 0.3 0.3 0.2 1 1.5q1 1.5 1.3 1.7l0.2 0.3 0.2 0.3 0.3 0.2 2.5 9.5q2.5 9.5 7 40t7.8 31.7q3.2 1.3 5.2 1.6l2 0.2v0.5l0.5 0.3 0.5 0.2v3l-1.5-0.2-1.5-0.3-3.5-0.5q-3.5-0.5-36.5-5l-33-4.5-1-0.3-1-0.2 0.2-2.5 0.3-2.5 0.3-0.2 0.2-0.3 0.2-0.3q0.3-0.2 19.6-33.7l19.2-33.5 0.5-0.2q0.5-0.3 0.5-0.6v-0.2l0.5-0.2q0.5-0.3 0.5-0.6v-0.2l0.2-0.5q0.3-0.5 2-2.7z" stroke="#0e449b" fill="#0e449b"/>
  <path d="m122 209.8l2-0.3h9l0.2 0.3 0.3 0.2 0.3 0.2 0.2 0.3-0.2 0.3-0.3 0.2-1 2.5q-1 2.5-1.3 3.5l-0.2 1-19.2 32.5q-19.3 32.5-22 37.3-2.8 4.7-6.3 5.2t-6.5 0l-3-0.5-0.2-0.3-0.3-0.2-0.3 0.2-0.2 0.3-0.2 0.3-0.3 0.2v1q0 1 0.3 2.5l0.2 1.5-0.5-0.2-0.5-0.3-0.2-0.3-0.3-0.2-0.5-1-0.5-1-0.5-1q-0.5-1-1-2.5t-4.5-7.5l-4-6-0.5-1-0.5-1-0.3-0.2-0.2-0.3-0.2-0.3-0.3-0.2-0.3-0.2-0.2-0.3-0.2-0.3-0.3-0.2-0.3-1.5-0.2-1.5 1.5 0.2 1.5 0.3 0.5 0.3 0.5 0.2h0.5l0.3 0.2q0.2 0.3 2.7 0.8l2.5 0.5 0.2 0.3 0.3 0.2 0.3 0.2 0.2 0.3 2 0.3 2 0.2-0.2-4.5q-0.3-4.5-1.3-12.5t25.3-23.8l26.2-15.7 0.2-0.3 0.3-0.2 0.3-0.2 0.2-0.3 1.5-0.5 1.5-0.5 0.2-0.3 0.3-0.2 0.3-0.2 0.2-0.3 0.2-0.3 0.3-0.2 0.3-0.2 0.2-0.3 0.2-0.3 0.3-0.2 0.3-0.2 0.2-0.3-4-0.5q-4-0.5-7.5-1l-3.5-0.5 3-0.5 3-0.5v-0.5l2-0.2z" stroke="#0e449a" fill="#0e449a"/>
  <path d="m710 435.2l2-0.2v0.2q0 0.3 0.5 0.6l0.5 0.2 2 3.8q2 3.7 3 4 1 0.2 2 3 1 2.7 2.8 6.4 1.7 3.8 1.7 90.8t-3.5 92-17 16-13.8 11.2l-0.2 0.3-0.2 0.3-0.3 0.2-0.3 0.2-0.2 0.3-0.2 0.3-0.3 0.2-0.3 0.2-0.2 0.3-1 0.3-1 0.2-1.5-0.2-1.5-0.3 0.2-0.3 0.3-0.2v-1l-0.3-0.2-0.2-0.3-0.2-0.3-0.3-0.2v-3.5q0-1.5 0.7-49.3 0.8-47.7-1.2-47l-2 0.8 0.2-1 0.3-1 0.3-0.2 0.2-0.3 1.5-0.5q1.5-0.5 3-1.2 1.5-0.8 2.7-5.8 1.3-5 1.3-17v-12h-0.5l-0.2-1q-0.3-1-4.6-29l-4.2-28-0.2-9-0.3-9-0.3-0.2-0.2-0.3 0.2-0.3 0.3-0.2 0.3-0.2 0.2-0.3 8.5 0.5q8.5 0.5 11 1l2.5 0.5 1 0.5 1 0.5h5l-0.2-0.3-0.3-0.2-0.5-1-0.5-1-0.3-0.2-0.2-0.3-0.2-0.3q-0.3-0.2-1.3-1.2t-1.5-4.5l-0.5-3.5 0.3-0.2 0.2-0.3 2-1q2-1 4-1.3z" stroke="#1b6ab4" fill="#1b6ab4"/>
  <path d="m575 451.2l1-0.2v0.2q0 0.3 0.5 0.6l0.5 0.2 14.5 12.8q14.5 12.7 15 13l0.5 0.2v0.2q0 0.3 0.5 0.6l0.5 0.2 0.2 0.5q0.3 0.5 0.6 0.7l0.2 0.3 0.2 0.3 0.3 0.2 0.3 0.2 0.2 0.3 0.2 0.3 0.3 0.2 0.3 0.2 0.2 0.3 0.2 0.3 0.3 0.2 3.5 5q3.5 5 4.5 7.5t0.5 4-1.8 2.7q-1.2 1.3-3 4-1.7 2.8-4.4 9-2.8 6.3-6.6 13-3.7 6.8-4.2 8.3t-1 2.5l-0.5 1-0.5 1-0.5 1-0.3 1-0.2 1-0.5 0.2q-0.5 0.3-0.5 0.6v0.2h-0.2q-0.3 0-0.8 1.5t-2.2 2.3q-1.8 0.7-4 3-2.3 2.2-7.3 7.2t-7.3 9q-2.2 4-3.2 4t-2.5 2.8q-1.5 2.7-6.5 4.7t-13.5 2.5-11.5-0.5-4.8-2.7q-1.7-1.8-1.2-2.8l0.5-1-0.3-0.2-0.2-0.3-0.2-0.3-0.3-0.2-0.3-0.2-0.2-0.3-0.2-0.3-0.3-0.2-0.3 0.2-0.2 0.3-1 0.5-1 0.5 1 0.5q1 0.5 0.8 1.2-0.3 0.8-3.6 2.6-3.2 1.7-5.2 4-2 2.2-4.5 3l-2.5 0.7-0.2 0.3-0.3 0.2-0.3 0.2-0.2 0.3-0.2 0.3-0.3 0.2-0.3 0.2-0.2 0.3-0.2 0.3-0.3 0.2-0.3 0.2-0.2 0.3-0.2 0.3-0.3 0.2-0.3 0.5-0.2 0.5h-0.2q-0.3 0-4 1l-3.8 1-3.5 0.2q-3.5 0.3-5 0-1.5-0.2-14-25.2l-12.5-25-0.2-1q-0.3-1-0.6-2l-0.2-1 0.5-3.5q0.5-3.5 1.5-3.5t1-1 4-1.8q4-0.7 7-2 3-1.2 3-2.2t7.2-4q7.3-3 15.6-7.8 8.2-4.7 13.2-4.2t6 2 4.5-0.5 9.7-10.3q6.3-8.2 12.8-16.7t8-11.5 3.8-6.5q2.2-3.5 3.4-4 1.3-0.5 1-2.5-0.2-2 1.3-2t1.5-1.5 2-2.7q2-1.3 3-1.6zm-2.8 4.6q-0.2-0.3 0-0.6 0.3-0.2 0.3 0.3t-0.3 0.3z" stroke="#033481" fill="#033481"/>
  <path d="m169.5 126.2l1.5-0.2v0.5l1 0.3q1 0.2 0.8 8.2-0.3 8-5.3 17.5t-5.5 10.5l-0.5 1-0.3 0.2-0.2 0.3-0.2 0.3-0.3 0.2-0.3 3-0.2 3-1.2-0.5q-1.3-0.5-4.3 4t-3.5 5.5l-0.5 1-0.3 0.2-0.2 0.3-0.2 0.3-0.3 0.2-0.3 1-0.2 1-1.2 1.5q-1.3 1.5-1.8 2.5l-0.5 1-0.3 1-0.2 1-2-0.2-2-0.3-0.2-0.3-0.3-0.2-0.3-0.2-0.2-0.3-0.2-0.3q-0.3-0.2-2.3-3.7l-2-3.5-0.3-0.2-0.2-0.3-0.2-0.3-0.3-0.2-0.5-1-0.5-1v5l0.5 1q0.5 1 1 2.5l0.5 1.5v4l-0.3-0.2-0.2-0.3-1.5-0.5-1.5-0.5-2-0.5q-2-0.5-4-1.5l-2-1-1.5-0.5-1.5-0.5-1-0.3-1-0.2v-0.2q0-0.3-24.5-11.8l-24.5-11.5-1-0.5-1-0.5-0.2-0.3-0.3-0.2-0.3-0.2-0.2-0.3-1.5-0.5-1.5-0.5 0.2-0.3 0.3-0.2 0.3-0.2 0.2-0.3 0.2-0.3 0.3-0.2 0.3-0.2 0.2-0.3v-0.5l0.5-0.2 0.5-0.3 1-0.5 1-0.5 48.5-14.5q48.5-14.5 49.5-15t2.5-0.8z" stroke="#051d8e" fill="#051d8e"/>
  <path d="m324 239.2l-1-1.2 4 2.2q4 2.3 6 2.6 2 0.2 2.5-0.6 0.5-0.7 4.7 4 4.3 4.8 4.3 8.3t3.5 13.5 4 12l0.5 2 0.3 1.5 0.2 1.5 1.5-0.2 1.5-0.3 2-1.5q2-1.5 2.2-1.8l0.3-0.2 0.5-1 0.5-1 0.3-0.2 0.2-0.3 0.2-0.3 0.3-0.2v3l-1 2.5q-1 2.5-1.5 4l-0.5 1.5v2l0.3 0.2 0.2 0.3h3.5q3.5 0 10-0.3l6.5-0.2-0.2 1-0.3 1-0.3 0.2-0.2 0.3-1.5 0.5-1.5 0.5-1 0.5q-1 0.5-5 2.5l-4 2-0.2 0.3-0.3 0.2 0.3 3q0.2 3 1.2 3t1.5 1.2q0.5 1.3 1.5 1.8l1 0.5 0.2 0.3 0.3 0.2v1l-0.3 0.2-0.2 0.3-0.2 0.3-0.3 0.2-0.3 0.2-0.2 0.3h-2l-2-0.5q-2-0.5-5 0t-7 0.8l-4 0.2 0.2 2 0.3 2 0.3 0.2 0.2 0.3 0.2 0.3 0.3 0.2 0.3 0.2 0.2 0.3 0.2 0.3 0.3 0.2 0.3 0.2 0.2 0.3 0.2 0.3 0.3 0.2 0.5 1 0.5 1 0.5 1 0.5 1 0.3 0.2 0.2 0.3 0.2 0.3 0.3 0.2 0.5 1 0.5 1 0.5 1 0.5 1 0.3 0.2 0.2 0.3 0.2 0.3 0.3 0.2 0.3 0.2 0.2 0.3 0.2 0.3 0.3 0.2 0.3 0.2 0.2 0.3 0.5 0.3 0.5 0.2 0.8 2q0.7 2 1 3.5l0.2 1.5v6l-1.5 0.2-1.5 0.3-1 0.3-1 0.2-0.2-1-0.3-1-0.3-0.2q-0.2-0.3-11.7-3.8t-14.5-3-8-0.8l-5-1.2-1.5-0.2q-1.5-0.3-52.5-9.8l-51-9.5-2.5-0.5-2.5-0.5 0.2-0.3 0.3-0.2 0.3-2.5 0.2-2.5 0.5-0.2 0.5-0.3v-0.5l0.5-0.2 0.5-0.3 3.5-0.5q3.5-0.5 6.5-0.8l3-0.2v0.5h30q30 0 32-0.5t3-0.8l1-0.2 14.5-1.8q14.5-1.7 20.5-3.2t6.5-1.5 2.5-0.3l2-0.2-0.2-1-0.3-1-0.5-1q-0.5-1-0.5-2t1.7-1.8l1.8-0.7-0.2-0.3-0.3-0.2-0.3-0.2q-0.2-0.3-2.2-1.3t-9.8-14.3l-7.7-13.2-0.3-1-0.2-1 2 0.2q2 0.3 3 0.6 1 0.2 0.8-3.8-0.3-4-2-7.2l-1.8-3.3 0.5-0.5q0.5-0.5 4-1l3.5-0.5-0.2-0.3-0.3-0.2-0.3-0.2-0.2-0.3-0.2-0.3-0.3-0.2-0.3-0.2-0.2-0.3-0.2-0.3-0.3-0.2-0.3-0.2q-0.2-0.3-1.2-1.6z" stroke="#d2eff9" fill="#d2eff9"/>
  <path d="m435.8 497.5l0.2-2.5h1q1 0 3 3.2 2 3.3 4.5 3.8t4-0.5 3.3-0.3q1.7 0.8 2 1.3l0.2 0.5h-3l0.2 1 0.3 1 0.5 1.5 0.5 1.5 3.5 10q3.5 10 4.5 12t1.5 3.5l0.5 1.5 0.5 1 0.5 1 0.5 1 0.5 1h0.5l0.2 1q0.3 1 0.6 2l0.2 1-0.2 1q-0.3 1-1.3 3t-13.3 6.2q-12.2 4.3-17.2 7.6l-5 3.2h-0.2q-0.3 0-0.6 0.5l-0.2 0.5h-0.2q-0.3 0-3 1.8-2.8 1.7-30.3 1.7t-32-1-4.7-2.7q-0.3-1.8-2-3l-1.8-1.3 0.2-0.3 0.3-0.2 0.3-0.2q0.2-0.3 0-0.6l-0.3-0.2-0.3-0.2-0.2-0.3 0.2-0.3 0.3-0.2 0.3-0.2q0.2-0.3-0.3-5-0.5-4.8 3-5.3l3.5-0.5 0.5-0.2q0.5-0.3 0.5-0.6v-0.2l0.5-0.2q0.5-0.3 0.5-0.6v-0.2l0.5-0.2q0.5-0.3 0.5-0.6v-0.2l0.5-0.2q0.5-0.3 0.5-0.6v-0.2l0.5-0.2q0.5-0.3 0.5-0.6v-0.2l4-2q4-2 4-3t6-4.5 7-5.7q1-2.3 2-2.6 1-0.2 3.5-3.7t11-6 9-0.7q0.5 1.7 8 1.4 7.5-0.2 7-1.4-0.5-1.3 3.3-1.6 3.7-0.2 4.4-0.7 0.8-0.5 1.8-3.3 1-2.7 1.2-3 0.3-0.2 0.3-1.2v-1l-0.3-0.2q-0.2-0.3-1.7-0.6-1.5-0.2-1.3-1.2 0.3-1 0.6-3.5z" stroke="#6daee4" fill="#6daee4"/>
  <path d="m76.2 338.5l-0.2-4.5 12.8 20q12.7 20 13 21l0.2 1 0.2 1 0.3 1 0.3 0.2 0.2 0.3 1 0.5 1 0.5 0.2 0.3 0.3 0.2 21.5 20.5q21.5 20.5 21.8 21.5 0.2 1 11.4 11.5 11.3 10.5 25.6 23.7 14.2 13.3 23.4 18.6 9.3 5.2 10.6 7.4 1.2 2.3 7.2 6.8t10.5 6 5.5 2l1 0.5 1 0.5 1 0.5 1 0.3 1 0.2 1 0.8q1 0.7 2 1.2l1 0.5 1 0.5 1 0.5 1 0.5 1 0.5 0.2 0.3 0.3 0.2 0.3 0.2 0.2 0.3 0.2 0.3 0.3 0.2v2l-0.3 0.2-0.2 0.3-2 0.5-2 0.5-1.5 0.5-1.5 0.5-0.2 0.3-0.3 0.2-0.7 0.8q-0.8 0.7-5.8 0.2t-8.5-0.5-6.7 4.3q-3.3 4.2-2.3 6.7t0.5 4.5-0.2 3l0.2 1-3 0.2q-3 0.3-17 1l-14 0.8-11-0.2q-11-0.3-14.5-2.6l-3.5-2.2-0.2-0.5q-0.3-0.5-0.6-0.5h-0.2l-0.2-0.5q-0.3-0.5-0.6-0.5h-0.2l-0.2-0.5q-0.3-0.5-10.3-16t-26.3-53.5q-16.2-38-17.2-38t-3.2-6.5q-2.3-6.5-4-12.5-1.8-6-2.8-6t-1.5-3-1.5-3-1.2-2.5q-0.3-2.5-2.8-7.5t-8-19.5l-5.5-14.5-0.3-4.5z" stroke="#49baec" fill="#49baec"/>
  <path d="m642.8 359l0.2-1 2 0.2 2 0.3 0.2 0.3 0.3 0.2 0.3 0.2 0.2 0.3 1 1.7q1 1.8 2.5 1.6 1.5-0.3 4 1.7t2.7 2.3l0.3 0.2 0.3 0.2 0.2 0.3 0.2 0.3 0.3 0.2 0.3 0.2 0.2 0.3 0.2 0.3 0.3 0.2 0.3-0.2 0.2-0.3h2l0.2 0.3 0.3 0.2v-4l-0.3-0.2-0.2-0.3 0.2-0.3 0.3-0.2 0.3-0.2 0.2-0.3 1-0.3 1-0.2 3.5 6.2q3.5 6.3 5.7 11 2.3 4.8 4.8 16.8t3 15l0.5 3 0.3 1 0.2 1 1.5-0.2 1.5-0.3 1-0.5 1-0.5 1-0.5 1-0.5 1-0.5 1-0.5 1-0.5 1-0.5 0.2-0.3 0.3-0.2 0.3-0.2 0.2-0.3 1-0.5 1-0.5 0.2-0.3 0.3-0.2 0.5-1q0.5-1 0.2-3l-0.2-2h1q1 0 2 3.8 1 3.7 4 10.7t3.8 10.7q0.7 3.8 1 4 0.2 0.3 1.2 0.6l1 0.2v2l-1-0.2q-1-0.3-4.5 0.7l-3.5 1-0.2 0.3-0.3 0.2 0.5 3.5q0.5 3.5 1.5 4.5t1.3 1.2l0.2 0.3 0.2 0.3 0.3 0.2 0.5 1 0.5 1 0.3 0.2 0.2 0.3h-5l-1-0.5-1-0.5-2.5-0.5q-2.5-0.5-11-1l-8.5-0.5-0.2 0.3-0.3 0.2-0.3 0.2-0.2 0.3 0.2 0.3 0.3 0.2 0.3 9 0.2 9-0.2 1-0.3 1-0.5 1-0.5 1-0.3 0.2-0.2 0.3-0.2 0.3-0.3 0.2-0.3-0.2-0.2-0.3h-2l-1.5 0.3-1.5 0.2-0.2-1-0.3-1-0.5-1-0.5-1-0.5-1q-0.5-1-1.2-3.5l-0.8-2.5-0.2-0.5q-0.3-0.5-0.6-0.5h-0.2l-0.2-1.5q-0.3-1.5-1.8-5.5t-3.8-3.8q-2.2 0.3-8.7 0.8l-6.5 0.5-0.2-0.3-0.3-0.2-0.3-0.2-0.2-0.3 0.2-0.3 0.3-0.2 0.3-0.2 0.2-0.3 1.8-1.7q1.7-1.8 2.2-2.8l0.5-1v-1l-0.3-0.2-0.2-0.3-8.5-0.3-8.5-0.2v-0.5l-2.5-0.5-2.5-0.5 1-0.5 1-0.5-0.2-0.3-0.3-0.2v-2h1l0.3-0.5 0.2-0.5h0.5l0.3-0.5 0.2-0.5 2-0.2 2-0.3 3-0.5 3-0.5 0.2-0.3q0.3-0.2-1.4-3.2-1.8-3 1.7-3.5t4.3-4q0.7-3.5-1.8-20.5t-3.5-28l-1-11 0.3-0.2 0.2-0.3 0.2-0.3 0.3-0.2 0.3-0.2 0.2-0.3 0.2-0.3 0.3-0.2 0.3-1z" stroke="#cbe6f7" fill="#cbe6f7"/>
  <path d="m294.8 557.8l0.2-0.3h5l1 0.5 1 0.5 41.5 24q41.5 24 42 24.3l0.5 0.2v0.2q0 0.3 0.5 0.6l0.5 0.2 0.2 0.5q0.3 0.5 0.6 0.7l0.2 0.3 1 0.5 1 0.5 0.2 0.3 0.3 0.2 0.3 0.2 0.2 0.3 0.2 0.3 0.3 0.2 7.7 3.2q7.8 3.3 11.8 4.8t6 2l2 0.5 1 0.5 1 0.5 1 0.5 1 0.5 0.2 0.3 0.3 0.2 0.3 0.2 0.2 0.3 1 0.5 1 0.5-1 0.5-1 0.5-0.2 0.3-0.3 0.2-0.3 0.2-0.2 0.3-1.5 0.5-1.5 0.5-2 0.5q-2 0.5-9 2.8l-7 2.2-0.2 1-0.3 1-0.5 1-0.5 1-0.3 0.2-0.2 0.3-0.2 0.3-0.3 0.2-0.3 2-0.2 2 3.2 1.5q3.3 1.5 3.6 1.7l0.2 0.3 1.5 0.5 1.5 0.5 0.2 0.3 0.3 0.2 0.3 0.2 0.2 0.3-6 0.3-6 0.2-5-0.2q-5-0.3-15-0.3h-10l-2 0.5-2 0.5-0.5 0.3-0.5 0.2-3 0.2q-3 0.3-5 0.8t-4.5-2-6-3-7.5-1.2l-4-0.8-1.5-0.2-1.5-0.3-1-0.3-1-0.2-0.2-1q-0.3-1-8.3-17.5t-9-25-7.5-22.5l-6.5-14-0.5-1.5-0.5-1.5-0.5-1-0.5-1-0.3-0.2-0.2-0.3 0.2-0.3 0.3-0.2 0.3-0.2z" stroke="#c0e9f9" fill="#c0e9f9"/>
  <path d="m231.5 109.8l0.5 0.2-0.2 2-0.3 2-0.3 1-0.2 1h3l-0.8 3.5q-0.7 3.5-0.7 4.5v1l0.3 1.5 0.2 1.5h1.5q1.5 0 2.3-1.5 0.7-1.5 1-1.7l0.2-0.3 0.2-0.3 0.3-0.2 0.5 1 0.5 1-0.3 9.2q-0.2 9.3-2.2 9-2-0.2 2 7.6 4 7.7 13 19.2t9.5 11.8l0.5 0.2 1.5 2.2q1.5 2.3 1.7 2.6l0.3 0.2 5.5 10q5.5 10 5.8 10.5l0.2 0.5-0.2 2-0.3 2-0.5 1-0.5 1-0.3 1-0.2 1-1 0.2-1 0.3h-5l-2.5-0.5q-2.5-0.5-4-1.5t-15.5-15.5l-14-14.5-1.2 0.3q-1.3 0.2-1.8 2.7l-0.5 2.5h-0.5l-0.2-6.5q-0.3-6.5-2.6-7.7-2.2-1.3-22.2-10.3t-23.2-12.7l-3.3-3.8-0.3-1-0.2-1-1 0.2-1 0.3-0.2 0.3-0.3 0.2-0.5 1-0.5 1-1.7 4.5q-1.8 4.5-2.8 4.5t-1.2 1q-0.3 1-0.8 2l-0.5 1-0.3 0.2-0.2 0.3-0.2 0.3-0.3 0.2-0.5 1-0.5 1-0.5 1-0.5 1-0.3 0.2-0.2 0.3-0.2 0.3-0.3 0.2-0.3 0.2-0.2 0.3-0.5 0.3-0.5 0.2-0.2-0.5-0.3-0.5h-0.5l0.2-0.5 0.3-0.5 0.5-2 0.5-2 0.3-0.2 0.2-0.3 0.2-0.3 0.3-0.2 0.5-1q0.5-1 5.5-10.5t5.3-17.5q0.2-8-0.8-8.2l-1-0.3v-0.5l8.5-2.2q8.5-2.3 15-4.3t7.5-2.5l1-0.5 2.5-0.5 2.5-0.5 1.5-0.5 1.5-0.5v-0.5l10-2.2q10-2.3 10.5-2z" stroke="#659fde" fill="#659fde"/>
  <path d="m281 517.2l3 0.8v0.5l0.2 0.3 0.3 0.2 0.3 0.2 0.2 0.3 1 0.5 1 0.5 4 2q4 2 2.5 2.3-1.5 0.2-1.5 1.2t7 5.2q7 4.3 11 5.8t5.8 1.8q1.7 0.2 2-0.8 0.2-1 1.2-1.2 1-0.3 1.2-0.6l0.3-0.2 0.5 3q0.5 3 1.5 4t1.3 1.8q0.2 0.7 4.2 1.2t6 1.5 1 1.5 0 0.8q1 0.2 1 1.2t4 0.8q4-0.3 6-0.3t3.2-1.7q1.3-1.8 6.6-3 5.2-1.3 6.7-2.8t2.5-1.8l1-0.2-2 2.8q-2 2.7-6 3-4 0.2-3.5 5 0.5 4.7 0.3 5l-0.3 0.2-0.3 0.2-0.2 0.3 0.2 0.3 0.3 0.2 0.3 0.2q0.2 0.3 0 0.6l-0.3 0.2-0.3 0.2-0.2 0.3 5 3.5q5 3.5 30.5 4.5t31-0.5 5.7-1.8q0.3-0.2 0.6-1.2l0.2-1h2l-0.2 1-0.3 1v2l0.5 1 0.5 1 0.3 0.2 0.2 0.3 0.2 0.3 0.3 0.2 0.5 1 0.5 1 0.3 0.2 0.2 0.3 0.2 0.3 0.3 0.2 0.3 0.5 0.2 0.5h-0.5l-0.3 0.2-0.2 0.3-1 0.5-1 0.5-1 0.5q-1 0.5-4 2t-16 2-20 1.5l-7 1-1-0.5-1-0.5h-4l1 0.5 1 0.5 1 0.5 1 0.5 0.2 0.3 0.3 0.2 0.3 0.2 0.2 0.3 1 0.5 1 0.5 0.2 0.3 0.3 0.2 4 3q4 3 6 4.5t2.3 3.5l0.2 2-1 0.2-1 0.3-0.2 0.3-0.3 0.2v7l0.3 0.2 0.2 0.3-0.2 0.3-0.3 0.2-0.3 0.2-0.2 0.3h-1l-1-0.5-1-0.5-1.5-0.3-1.5-0.2-0.2-0.5q-0.3-0.5-0.6-0.5h-0.2l-0.5-0.2q-0.5-0.3-42-24.3l-41.5-24-1-0.5-1-0.5h-5l-0.2 0.3-0.3 0.2-0.3 0.2-0.2 0.3 0.2 0.3 0.3 0.2 0.5 1 0.5 1 0.5 1.5 0.5 1.5 6.5 14q6.5 14 7.5 22.5t9 25 8.3 17.5l0.2 1 1 0.2 1 0.3 1.5 0.3 1.5 0.2v0.5l0.2 0.3 0.3 0.2 0.3 1 0.2 1-4-0.2-4-0.3-0.2-0.3-0.3-0.2-0.5-1.5q-0.5-1.5-1.2-3l-0.8-1.5-0.2-0.5-0.3-0.5-0.5-1-0.5-1-0.5-1q-0.5-1-16.5-33t-21-43l-5-11-0.5-1-0.5-1-0.3-0.2-0.2-0.3 3.8 0.7q3.7 0.8 4.2-0.7l0.5-1.5 0.3-0.2 0.2-0.3 1.5-0.3 1.5-0.2v-2l-1-0.2q-1-0.3-2-0.6-1-0.2-2-2-1-1.7-3.2-10-2.3-8.2-2.6-11-0.2-2.7 2.8-2z" stroke="#64a7e1" fill="#64a7e1"/>
  <path d="m287 476l1-0.5h2v0.5l-3.8 9q-3.7 9-4.2 10l-0.5 1-0.5 1.5-0.5 1.5-0.3 1-0.2 1 3-0.2q3-0.3 7-0.3h4l-0.2 0.3-0.3 0.2-0.3 0.2-0.2 0.3-1.5 0.5-1.5 0.5-1 0.5q-1 0.5-4 1.5l-3 1-0.2 0.3-0.3 0.2v3l0.3 0.2 0.2 0.3 1 0.5 1 0.5 0.5 0.3 0.5 0.2v0.2q0 0.3 0.5 0.6l0.5 0.2v0.2q0 0.3 0.5 0.6l0.5 0.2 0.2 0.5q0.3 0.5 0.6 0.7l0.2 0.3 0.2 0.3 0.3 0.2 0.3 1.5 0.2 1.5h-5l-3-0.8q-3-0.7-2.8 2 0.3 2.8 2.6 11 2.2 8.3 3.2 10 1 1.8 2 2 1 0.3 2 0.6l1 0.2v2l-1.5 0.2-1.5 0.3-0.2 0.3-0.3 0.2-0.5 1.5q-0.5 1.5-4.2 0.7l-3.8-0.7 0.2 0.3 0.3 0.2 0.5 1 0.5 1 5 11q5 11 21 43t16.5 33l0.5 1 0.5 1 0.5 1 0.3 0.5 0.2 0.5v4l-2-0.2-2-0.3-0.2-0.3-0.3-0.2h-0.5l-0.2-0.5-0.3-0.5h-0.5l-0.5-0.2-0.5-0.3-0.2-0.3-0.3-0.2-0.3-0.2-0.2-0.3-1-0.5-1-0.5-0.2-0.3-0.3-0.2-0.3-0.2-0.2-0.3-1-0.5q-1-0.5-6.5-4.5t-35.5-27-35-25.5-5.8-3.8q-0.7-1.2-7-6-6.2-4.7-22.7-17.7l-16.5-13-1-0.5-1-0.5-0.2-0.3-0.3-0.2-0.3-0.2-0.2-0.3-0.2-0.3-0.3-0.2-0.3-0.2-0.2-0.3-0.2-0.3-0.3-0.2-0.3-1.5-0.2-1.5 1.5-0.2 1.5-0.3 6-0.5 6-0.5v-0.5l14-0.8q14-0.7 17-1l3-0.2-0.2-1q-0.3-1 0.2-3t-0.5-4.5 2.3-6.7q3.2-4.3 6.7-4.3t8.5 0.5 5.8-0.2l0.7-0.8 0.3-0.2 0.2-0.3 1.5-0.5 1.5-0.5 2-0.5 2-0.5 0.2-0.3 0.3-0.2v-2l-0.3-0.2-0.2-0.3-0.2-0.3-0.3-0.2-0.3-0.2-0.2-0.3-1-0.5-1-0.5-1-0.5-1-0.5-1-0.5q-1-0.5-2-1.2l-1-0.8-0.2-0.5-0.3-0.5-0.3-0.2-0.2-0.3-0.2-0.3-0.3-0.2-0.3-0.2-0.2-0.3-0.2-0.3-0.3-0.2-0.3-0.2-0.2-0.3-0.2-0.3-0.3-0.2-0.3-0.2-0.2-0.3-0.2-0.3-0.3-0.2-0.3-1-0.2-1h5.5l0.3 0.2 0.2 0.3 2.5 1q2.5 1 3.5 1.5l1 0.5 1.5 0.5 1.5 0.5 1.5 0.5 1.5 0.5 0.2 0.3 0.3 0.2v-2.5q0-2.5-1-5l-1-2.5v-5l0.3 0.2 0.2 0.3 0.2 0.3 0.3 0.2 0.3 0.2 0.2 0.3 0.2 0.3 0.3 0.2 0.3 0.2 0.2 0.3 0.2 0.3 0.3 0.2 0.5 1 0.5 1 1.5 2.5q1.5 2.5 2 3.5l0.5 1 0.3 0.2 0.2 0.3 2 0.3 2 0.2 0.2-1 0.3-1 0.5-1q0.5-1 5.2-8.5l4.8-7.5 0.5-0.2q0.5-0.3 0.5-0.6v-0.2l0.5-0.2q0.5-0.3 1.5-0.8z" stroke="#aee2f7" fill="#aee2f7"/>
  <path d="m404 427.5h4l0.5 0.3 0.5 0.2 7.2 13.5q7.3 13.5 7 15.7-0.2 2.3-5.7 5.8t-5.5 3.8v0.2h-0.2q-0.3 0-0.6 0.5l-0.2 0.5-1 0.2q-1 0.3-36.5 23.3t-40.5 25.5-17 3-16-0.5-7.5-3.5l-3.5-2.5-1-0.3-1-0.2-0.2-0.5-0.3-0.5h-0.5l-0.2-0.5-0.3-0.5h-0.5l-0.5-0.2-0.5-0.3-1-0.5-1-0.5-0.2-0.3-0.3-0.2v-3l0.3-0.2 0.2-0.3 3-1q3-1 4-1.5l1-0.5 1.5-0.5 1.5-0.5 0.2-0.3 0.3-0.2 0.3-0.2 0.2-0.3h-4q-4 0-7 0.3l-3 0.2 0.2-1 0.3-1 0.5-1.5 0.5-1.5 0.5-1q0.5-1 4.2-10l3.8-9h0.5l3.3-5.8q3.2-5.7 8.7-8.2t12.5-3.5 37-12.3q30-11.2 30-12.2t9-3.8q9-2.7 13-2.7z" stroke="#094aa6" fill="#094aa6"/>
  <path d="m472.2 398.5l0.8-5.5 4.5 1.2q4.5 1.3 5.5 1.6l1 0.2v1l-2.5 0.2q-2.5 0.3 35.7 21 38.3 20.8 38.6 21l0.2 0.3 1 0.5 1 0.5 0.2 0.3 0.3 0.2 0.3 0.2 0.2 0.3 0.2 0.3 0.3 0.2 0.3 1.5 0.2 1.5-1 0.2-1 0.3-0.2 0.3-0.3 0.2-0.3 0.2-0.2 0.3-0.2 0.3-0.3 0.2-0.3 0.2-0.2 0.3-0.2 0.3-0.3 0.2-0.3 0.2q-0.2 0.3-0.2 0.6v0.2l-0.5 0.2q-0.5 0.3-0.5 0.6v0.2l-1.5 0.2q-1.5 0.3-36.5 16.8t-46 21l-11 4.5-0.2 0.3-0.3 0.2-0.3 0.2-0.2 0.3-1.5 0.5-1.5 0.5-0.2 0.3-0.3 0.2v3l0.3 0.2 0.2 0.3 2.5 1.5q2.5 1.5 4 2l1.5 0.5 0.2 0.3 0.3 0.2 0.3 0.2 0.2 0.3 0.2 0.3 0.3 0.2 0.3 0.2 0.2 0.3h-6l-1-0.5-1-0.5-1.5-0.3-1.5-0.2-0.2-0.5q-0.3-0.5-0.6-0.7-0.2-0.3-2.7-0.6-2.5-0.2-2.7 0.8-0.3 1-2.6 0.2-2.2-0.7-5.2-3.4l-3-2.8-0.2-0.5q-0.3-0.5-0.6-0.5h-0.2l-1.5-0.2q-1.5-0.3-2.5-0.8l-1-0.5-0.2-0.3-0.3-0.2-0.3-0.2-0.2-0.3-2-0.5-2-0.5-0.2-0.3-0.3-0.2-0.3-0.2-0.2-0.3-0.2-0.3-0.3-0.2-0.3-0.2-0.2-0.3 1-0.3 1-0.2 3 0.2q3 0.3 6 0.6l3 0.2-0.2-1.5q-0.3-1.5-0.3-8.5t1-9 2.3-2.8q1.2-0.7 5.2-4.7t10.2-9.7q6.3-5.8 8.6-6.3 2.2-0.5 2.4-11.5 0.3-11-2.7-21.5l-3-10.5-0.3-1-0.2-1h2l0.2 1q0.3 1 0.6 1.2l0.2 0.3 0.2 0.3 0.3 0.2 0.3 0.2 0.2 0.3 0.2 0.3 0.3 0.2 0.3 0.2 0.2 0.3 0.2 0.3 0.3 0.2 0.3 0.2 0.2 0.3 0.2 0.3 0.3 0.2 0.5-1 0.5-1 0.3-0.2 0.2-0.3 1-0.5 1-0.5 0.2-0.3q0.3-0.2 1-5.7z" stroke="#9bd1f3" fill="#9bd1f3"/>
  <path d="m210 308h1l-0.2 1q-0.3 1-0.8 3l-0.5 2-0.3 0.2-0.2 0.3 2.5 0.5 2.5 0.5 51 9.5q51 9.5 52.5 9.8l1.5 0.2 2.2 1.5q2.3 1.5 2.6 4l0.2 2.5h2v0.5l-0.2 0.3-0.3 0.2-0.5 1-0.5 1-0.3 0.2-0.2 0.3-1.5 0.3-1.5 0.2-0.2-1.5q-0.3-1.5-2-2.5-1.8-1-1.8 0t-3.5 0.8q-3.5-0.3-5 1.2t-32.5 14-42.2 17.8l-11.3 5.2-0.3 0.2-0.2 0.3h-1l-0.2-0.3-0.3-0.2-0.3-0.2-0.2-0.3-1-0.5-1-0.5-0.2-0.3-0.3-0.2h-0.5l-0.2-2q-0.3-2-5-24.5-4.8-22.5-5.8-22.5t-1.5-7l-0.5-7 0.5-0.2 0.5-0.3 0.2-0.3 0.3-0.2 0.3-1 0.2-1h0.5l0.5-1.5 0.5-1.5 0.3-0.2 0.2-0.3 0.2-0.3 0.3-0.2 0.3-1q0.2-1 1.2-1z" stroke="#5ba0e0" fill="#5ba0e0"/>
  <path d="m411 467.2l1-0.2v1q0 1-0.8 1.5-0.7 0.5-1 2-0.2 1.5-3.4 4.5-3.3 3-4 5-0.8 2 1.2 1.5t2 1 1.5 1.5 1.7 1q0.3 1 1-0.8 0.8-1.7 8.3 0.8t7.5 2.8v0.2l-1 0.2-1 0.3 0.2 0.3 0.3 0.2 0.3 0.2 0.2 0.3 0.2 0.3 0.3 0.2 0.3 0.2 0.2 0.3 2 0.5 2 0.5 0.2 0.3 0.3 0.2 0.3 0.2 0.2 0.3 1 0.5q1 0.5 2.5 0.8l1.5 0.2v0.2q0 0.3 0.5 0.6l0.5 0.2-1 3q-1 3 0.5 3.2 1.5 0.3 1.7 0.6l0.3 0.2v1q0 1-0.3 1.2-0.2 0.3-1.2 3-1 2.8-1.8 3.3-0.7 0.5-4.4 0.7-3.8 0.3-3.3 1.6 0.5 1.2-7 1.4-7.5 0.3-8-1.4-0.5-1.8-9 0.7t-11 6-3.5 3.7q-1 0.3-2 2.6-1 2.2-7 5.7t-6 4.5-4 3l-4 2h-0.2q-0.3 0-0.6 0.5l-0.2 0.5h-0.2q-0.3 0-0.6 0.5l-0.2 0.5h-0.2q-0.3 0-0.6 0.5l-0.2 0.5h-0.2q-0.3 0-0.6 0.5l-0.2 0.5h-0.2q-0.3 0-0.6 0.5l-0.2 0.5-5.5 0.2q-5.5 0.3-5.3 0.6 0.3 0.2-1 2-1.2 1.7-3.2 1.7t-6 0.3q-4 0.2-4-0.8t-1-1.2q-1-0.3 0-0.8t-1-1.5-6-1.5-4.2-1.2q-0.3-0.8-1.3-1.8t-1.5-4l-0.5-3-0.3 0.2q-0.2 0.3-1.2 0.6-1 0.2-1.2 1.2-0.3 1-2 0.8-1.8-0.3-5.8-1.8t-11-5.8q-7-4.2-7-5.2t1.5-1.2q1.5-0.3-2.5-2.3l-4-2-1-0.5-1-0.5-0.2-0.3-0.3-0.2-0.3-0.2-0.2-0.3v-0.5h5l-0.2-1.5-0.3-1.5-0.3-0.2-0.2-0.3-1-0.5-1-0.5-0.2-0.3-0.3-0.2-0.3-1-0.2-1 1 0.2 1 0.3 0.2 0.3 0.3 0.2 0.3 0.2 0.2 0.3 0.2 0.3 0.3 0.2 0.3 0.2 0.2 0.3 3.5 2.5q3.5 2.5 7.5 3.5t16 0.5 17-3 41-26 37-23.8zm-15.8 25l-0.2 0.3-0.2 0.3-0.3 0.2-0.3 0.2-0.2 0.3-0.2 0.3-0.3 0.2-0.3 0.2-0.2 0.3-0.2 0.3-0.3 0.2-0.3 0.2-0.2 0.3-0.2 0.3-0.3 0.2-0.3 0.2-0.2 0.3-0.2 0.3-0.3 0.2-0.3 0.2-0.2 0.3-1 0.3-1 0.2 0.2-1 0.3-1 0.3-0.2 0.2-0.3 0.2-0.3 0.3-0.2 0.3-0.2 0.2-0.3 0.2-0.3 0.3-0.2 0.3-0.2 0.2-0.3 1-0.5 1-0.5 0.2-0.3 0.3-0.2 0.3-0.2 0.2-0.3 3.5-3.5q3.5-3.5 3.5-2.5t-2.8 3.7q-2.7 2.8-3 3z" stroke="#5e9bda" fill="#5e9bda"/>
  <path d="m289.2 205.8l0.3 0.2 0.3 0.2 0.2 0.3 0.2 0.3 0.3 0.2 0.3 0.2 0.2 0.3 0.2 0.3 0.3 0.2 0.3 0.2 0.2 0.3 0.2 0.3 0.3 0.2 0.3 0.2 0.2 0.3 0.2 0.3 0.3 0.2 0.3 0.2 0.2 0.3 0.2 0.3 0.3 0.2 0.3 0.2 0.2 0.3 0.2 0.3 0.3 0.2v-6l-0.5-4-0.5-4-0.3-2-0.2-2h2l0.2 1 0.3 1 0.5 1.5 0.5 1.5 0.5 1 0.5 1 3.5 8q3.5 8 4 9.5l0.5 1.5 0.3 1 0.2 1 1 0.2 1 0.3 0.2 0.3 0.3 0.2 0.3-0.2 0.2-0.3 0.2-0.3 0.3-0.2 0.3-0.2 0.2-0.3 0.2-0.3 0.3-0.2 0.3-0.2 0.2-0.3 0.2-0.3 0.3-0.2 15.3-14.2q15.2-14.3 16.2-14.8l1-0.5 0.2-0.3 0.3-0.2 0.3-0.2 0.2-0.3 0.2-0.3 0.3-0.2 0.3-0.2 0.2-0.3 0.2-0.3 0.3-0.2 0.3-0.2 0.2-0.3 1-0.5 1-0.5 0.2-0.3 0.3-0.2v2l-0.5 1-0.5 1-0.5 1-0.5 1-0.5 1-0.5 1-0.3 0.2-0.2 0.3-0.2 0.3q-0.3 0.2-8.6 13.4-8.2 13.3-13 19l-4.7 5.8-0.3 2-0.2 2 1 0.2 1 0.3 0.5 0.3 0.5 0.2 1 1.2q1 1.3 1.2 1.6l0.3 0.2 0.3 0.2 0.2 0.3 0.2 0.3 0.3 0.2 0.3 0.2 0.2 0.3 0.2 0.3 0.3 0.2 0.3 0.2 0.2 0.3-3.5 0.5q-3.5 0.5-4 1l-0.5 0.5 1.8 3.3q1.7 3.2 2 7.2 0.2 4-0.8 3.8-1-0.3-3-0.6l-2-0.2 0.2 1 0.3 1 7.7 13.2q7.8 13.3 9.8 14.3t2.2 1.3l0.3 0.2 0.3 0.2 0.2 0.3-1.8 0.7q-1.7 0.8-1.7 1.8t0.5 2l0.5 1 0.3 1 0.2 1-2 0.2q-2 0.3-2.5 0.3t-6.5 1.5-20.5 3.2l-14.5 1.8 0.2-0.5 0.3-0.5 0.3-0.2 0.2-0.3 0.2-0.3 0.3-0.2 0.3-0.2 0.2-0.3 0.2-0.3 0.3-0.2 0.3-0.2 0.2-0.3 0.2-0.3 0.3-0.2 0.3-0.2 0.2-0.3 0.2-0.3 0.3-0.2 0.3-0.2 0.2-0.3 1.5-0.3q1.5-0.2 1.5-1.2t4.8-3q4.7-2 6.2-13t-3.5-17.5-9-8.5-6-7.5-4.3-7.5l-2.2-2-0.2-0.5q-0.3-0.5-0.6-0.5h-0.2l-0.2-0.5q-0.3-0.5-0.6-0.5h-0.2l-0.2-0.5q-0.3-0.5-0.6-0.5h-0.2l-0.2-0.5q-0.3-0.5-0.6-0.5h-0.2l-0.2-1-0.3-1-0.3-0.2-0.2-0.3-0.2-0.3-0.3-0.2-0.3-0.2-0.2-0.3-0.2-0.3-0.3-0.2-0.3-0.2-0.2-0.3-0.2-0.3q-0.3-0.2-2.3-2.7l-2-2.5-0.3-0.2-0.2-0.3-0.2-0.3-0.3-0.2-0.3-0.2-0.2-0.3-0.2-0.3-0.3-0.2-0.3-0.2-0.2-0.3 1-0.5 1-0.5 3.2-0.7q3.3-0.8 3.8-1.8l0.5-1v-1l-0.3-0.2-0.2-0.3-0.2-0.3-0.3-0.2-0.5-1.5-0.5-1.5-0.5-2-0.5-2h-0.5l-0.2-0.5q-0.3-0.5-5.8-10.5l-5.5-10-0.3-0.2q-0.2-0.3-1.7-2.6l-1.5-2.2v-1.5q0-1.5 3.5 0.3 3.5 1.7 13.5 12.7t10.2 11.3z" stroke="#d3ecf9" fill="#d3ecf9"/>
  <path d="m623 442l9-0.5 0.5-0.3 0.5-0.2 8.5 0.2 8.5 0.3 0.2 0.3 0.3 0.2v1l-0.5 1q-0.5 1-2.2 2.8l-1.8 1.7-0.2 0.3-0.3 0.2-0.3 0.2-0.2 0.3 0.2 0.3 0.3 0.2 0.3 0.2 0.2 0.3 6.5-0.5q6.5-0.5 8.7-0.8 2.3-0.2 4.3 4.8t2.3 6l0.2 1h-1q-1 0-1.2-1-0.3-1-11 4.2-10.8 5.3-21.3 9.3t-16.5 5.5l-6 1.5-0.2-0.3-0.3-0.2-0.3-0.2-0.2-0.3-1-0.3-1-0.2-0.2-0.5q-0.3-0.5-0.6-0.5h-0.2l-0.5-0.2q-0.5-0.3-15-13l-14.5-12.8-0.2-0.5q-0.3-0.5-0.6-0.5h-0.2l-0.2-0.5q-0.3-0.5-0.8-1l-0.5-0.5-0.3-0.2-0.2-0.3-0.2-0.3-0.3-0.2-0.3-0.2-0.2-0.3-1-0.5-1-0.5-1.5-0.3-1.5-0.2v-0.5l2-0.5 2-0.5h4l19-1q19-1 28-1.5z" stroke="#4abbed" fill="#4abbed"/>
  <path d="m276.5 232l1.5 0.5 0.2 0.3 0.3 0.2 0.3 0.2 0.2 0.3 0.2 0.3 0.3 0.2 0.3 0.2 0.2 0.3 0.5 0.3 0.5 0.2v0.2q0 0.3 0.5 0.6l0.5 0.2v0.2q0 0.3 0.5 0.6l0.5 0.2v0.2q0 0.3 0.5 0.6l0.5 0.2v0.2q0 0.3 0.5 0.6l0.5 0.2 1.2 4.5q1.3 4.5-10 17-11.2 12.5-13 13.5-1.7 1-2 2-0.2 1-4 4.5-3.7 3.5-9.7 9.5t-6.3 7q-0.2 1-4 4-3.7 3-4 3.2l-0.2 0.3-1.5 0.5-1.5 0.5-2.5 0.3-2.5 0.2-3 0.2q-3 0.3-6.5 0.8l-3.5 0.5-0.5 0.3-0.5 0.2h-0.2q-0.3 0-0.6 0.5l-0.2 0.5h-0.2q-0.3 0-0.6 0.2l-0.2 0.3-0.2 0.3-0.3 0.2-0.3 0.2-0.2 0.3-0.2 0.3-0.3 0.2-0.5 1.5-0.5 1.5h-0.5l-0.2-2.5-0.3-2.5-0.3-0.2-0.2-0.3v-0.5l-0.2-0.5-0.3-0.5-0.3-0.2-0.2-0.3 1-0.5q1-0.5 1.2-0.8 0.3-0.2 1.3-14.2t2.7-15.8l1.8-1.7 0.2-0.3 0.3-0.2 0.5-2.5 0.5-2.5 0.5-1.5 0.5-1.5h0.5l0.2 5 0.3 5 0.3 0.2 0.2 0.3 0.2 0.3 0.3 0.2 0.3 0.2 0.2 0.3h1l1-0.5 1-0.5 0.2-0.3 0.3-0.2 0.3-0.2 0.2-0.3 0.2-0.3 0.3-0.2 0.3-0.2 0.2-0.3 0.2-0.3 0.3-0.2 4.7-3.8q4.8-3.7 23.3-20 18.5-16.2 18.5-17.2t3-0.8q3 0.3 4.5 0.8z" stroke="#48ade4" fill="#48ade4"/>
  <path d="m619.5 571.5h4.5l-2 0.7q-2 0.8-0.5 3.6 1.5 2.7 9.5 11.4 8 8.8 11 10.6 3 1.7 5.5 0.2t2.7-1.8l0.3-0.2 0.3-0.2 0.2-0.3 0.2-0.3 0.3-0.2 0.3-0.2 0.2-0.3 0.2-0.3 0.3-0.2 0.3-0.2 0.2-0.3 0.5-0.3 0.5-0.2-0.2 1-0.3 1-0.5 1.5-0.5 1.5-0.3 0.2-0.2 0.3-0.2 0.3-0.3 0.2-0.3 0.2-0.2 0.3-0.2 0.3-0.3 0.2-1 3.5q-1 3.5-2.5 23.5t-1.8 23.5l-0.2 3.5-0.2 3q-0.3 3-0.6 4-0.2 1-6.2 1.8-6 0.7-28 1.2l-22 0.5-0.2-0.3-0.3-0.2-0.5-2.5-0.5-2.5-0.3-1-0.2-1h2l0.2 1 0.3 1 0.3 0.2 0.2 0.3h2l0.2-0.3 0.3-0.2 0.3-0.2 0.2-0.3 1-0.5q1-0.5 9.2-8.8 8.3-8.2 8.8-11.2t1.8-3.8q1.2-0.7 0-1.4-1.3-0.8-2.8-3.8t-4-5.5-0.5-3.5-2.3-8q-4.2-7-6.2-8.2-2-1.3-6-2.3l-4-1-0.2-0.3-0.3-0.2-0.3-0.2-0.2-0.3v-0.5l7-0.2q7-0.3 9.5-1 2.5-0.8 3.7-4.3 1.3-3.5 2-11.5l0.8-8 3-1.2q3-1.3 7.5-1.3z" stroke="#1891cf" fill="#1891cf"/>
  <path d="m666.5 459.8l0.5 0.2v0.2q0 0.3 0.5 0.6l0.5 0.2 0.8 2.5q0.7 2.5 1.2 3.5l0.5 1 0.5 1 0.5 1 0.3 1 0.2 1 1.5-0.2 1.5-0.3h2l0.2 0.3 0.3 0.2 0.3-0.2 0.2-0.3 0.2-0.3 0.3-0.2 0.5-1 0.5-1 0.3-1 0.2-1 4.2 28q4.3 28 4.6 29l0.2 1-0.2 0.5-0.3 0.5-0.5 1-0.5 1-0.5 2.5-0.5 2.5v3q0 3 0.3 8l0.2 5-2-0.2-2-0.3-0.2-0.3-0.3-0.2-0.3-0.2-0.2-0.3-0.2-0.3q-0.3-0.2-11.3-11.7t-14.5-17l-3.5-5.5-0.3-0.2-0.2-0.3-0.2-0.3-0.3-0.2-0.3-0.2-0.2-0.3-0.2-0.3-0.3-0.2-0.3-0.2-0.2-0.3-3.5-0.3-3.5-0.2 0.2 1 0.3 1 0.3 0.2 0.2 0.3 0.2 0.3 0.3 0.2 0.3 0.2 0.2 0.3 0.2 0.3 0.3 0.2 0.3 0.2 0.2 0.3 0.2 0.3 0.3 0.2 3 4q3 4 3.5 5.5l0.5 1.5 0.3 0.2 0.2 0.3-1 0.3-1 0.2-0.2 1q-0.3 1-3.6 2.5-3.2 1.5-3.2 2.5t-10 4.5l-10 3.5-0.2-1q-0.3-1-1.3-4.5l-1-3.5-0.3-0.2-0.2-0.3h-3l-1.5 0.5-1.5 0.5-0.2 0.3-0.3 0.2-0.3 0.2-0.2 0.3-0.2 0.3-0.3 0.2-0.3 0.2-0.2 0.3-0.2 0.3-0.3 0.2-0.3 0.2-0.2 0.3-0.5 0.5q-0.5 0.5-0.5 0.8v0.2l-0.5 0.2q-0.5 0.3-4 2.8l-3.5 2.5-0.2 0.3-0.3 0.2-0.3-0.2-0.2-0.3h-2l-1.5 0.3-1.5 0.2v2h-2l0.2-1 0.3-1 0.3-0.2 0.2-0.3 0.2-0.3 0.3-0.2 0.5-1 0.5-1 0.5-1q0.5-1 1-2.5t4.2-8.3q3.8-6.7 6.6-13 2.7-6.2 4.4-9 1.8-2.7 3-4 1.3-1.2 1.8-2.7t-0.5-4-4.5-7.5l-3.5-5-0.3-0.2-0.2-0.3-0.2-0.3-0.3-0.2-0.3-0.2-0.2-0.3-0.2-0.3-0.3-0.2-0.3-0.2-0.2-0.3-1-0.3-1-0.2v-2l1 0.2 1 0.3 0.2 0.3 0.3 0.2 0.3 0.2 0.2 0.3 0.2 0.3 0.3 0.2 0.3 0.2 0.2 0.3 6-1.5q6-1.5 16.5-5.5t21.5-9 11.5-4.7z" stroke="#04458f" fill="#04458f"/>
  <path d="m432.2 575.2l0.3-0.2h0.5l4.2 4q4.3 4 4.6 7 0.2 3-0.8 3t-1 1-3.8 3q-3.7 2-4 3-0.2 1 1 1.5 1.3 0.5 1.6 2.7 0.2 2.3 1.2 2.6 1 0.2 1 2 0 1.7 3 3.7t31 11.5 30.5 9.8l2.5 0.2v0.5l5.5 2.5q5.5 2.5 5.7 2.8l0.3 0.2 0.3 0.2 0.2 0.3 0.2 0.3 0.3 0.2 0.3 0.2 0.2 0.3 1 0.5 1 0.5 1 0.3 1 0.2v0.5l0.2 0.3 0.3 0.2 0.3 0.2 0.2 0.3 0.2 0.3 0.3 0.2 0.3 0.2 0.2 0.3 0.2 0.3 0.3 0.2 0.3 1 0.2 1h-3q-3 0-3.8 2.5-0.7 2.5-0.4 4.7 0.2 2.3 1.2 4.8t2.5 3l1.5 0.5 0.2 0.3 0.3 0.2 0.3 0.2 0.2 0.3h-5l-3-0.3-3-0.2-1.5-0.2q-1.5-0.3-5.5-1.3t-14.5-5.5-21.5-3.5-11.8 2.3q-0.7 1.2-4 2-3.2 0.7-27.7-0.8l-24.5-1.5-1.5-0.5-1.5-0.5v-0.5l6-0.2 6-0.3-0.2-0.3-0.3-0.2-0.3-0.2-0.2-0.3-1.5-0.5-1.5-0.5-0.2-0.3q-0.3-0.2-3.6-1.7l-3.2-1.5 0.2-2 0.3-2 0.3-0.2 0.2-0.3 0.2-0.3 0.3-0.2 0.5-1 0.5-1 0.3-1 0.2-1 7-2.2q7-2.3 9-2.8l2-0.5 1.5-0.5 1.5-0.5 0.2-0.3 0.3-0.2 0.3-0.2 0.2-0.3 1-0.5 1-0.5-1-0.5-1-0.5-0.2-0.3-0.3-0.2-0.3-0.2-0.2-0.3-1-0.5-1-0.5-1-0.5-1-0.5-2-0.5q-2-0.5-6-2t-11.8-4.8l-7.7-3.2-0.3-0.2-0.2-0.3-0.2-0.3-0.3-0.2-0.3-0.2-0.2-0.3-1-0.5-1-0.5-1-0.3-1-0.2v-2l1 0.2 1 0.3 1 0.5 1 0.5 1 0.5 1 0.5h1l0.2-0.3 0.3-0.2 0.3-0.2 0.2-0.3-0.2-0.3-0.3-0.2v-7l0.3-0.2 0.2-0.3 1-0.3 1-0.2-0.2-2q-0.3-2-2.3-3.5t-6-4.5l-4-3-0.3-0.2-0.2-0.3-1-0.5-1-0.5-0.2-0.3-0.3-0.2-0.3-0.2-0.2-0.3-1-0.5-1-0.5-1-0.5-1-0.5h4l1 0.5 1 0.5 7-1q7-1 20-1.5t16-2 4-2l1-0.5 1-0.5 1-0.5 0.2-0.3z" stroke="#53aae2" fill="#53aae2"/>
  <path d="m445 390.2l1-0.2-1.5 1.8q-1.5 1.7-1.7 2l-0.3 0.2-0.3 0.2-0.2 0.3-0.2 0.3-0.3 0.2-0.5 1-0.5 1-0.3 0.2-0.2 0.3 0.8 1.3q0.7 1.2 1 1l0.2-0.3 0.2-0.3 0.3-0.2 0.3-0.2 0.2-0.3 6-2.5q6-2.5 8-2.5h2l0.8 2.3q0.7 2.2 1 4.2l0.2 2v0.2q0 0.3 0.5 0.6l0.5 0.2 2.8 11q2.7 11 2.4 22-0.2 11-2.4 11.5-2.3 0.5-8.6 6.3-6.2 5.7-10.2 9.7t-5.2 4.7q-1.3 0.8-2.3 2.8t-1 9 0.3 8.5l0.2 1.5-3-0.2q-3-0.3-6-0.6l-3-0.2v-0.2q0-0.3-7.5-2.8t-8.3-0.8q-0.7 1.8-1 0.8-0.2-1-2.7-1.8-2.5-0.7-7 3.8l-4.5 4.5-0.2 0.3-0.3 0.2-0.3 0.2-0.2 0.3-0.2 0.3-0.3 0.2-0.3 0.2-0.2 0.3-0.2 0.3-0.3 0.2-0.3 0.2-0.2 0.3-0.2 0.3-0.3 0.2-0.3 0.2-0.2 0.3-0.2 0.3-0.3 0.2-0.3 0.2-0.2 0.3-1 0.3-1 0.2 0.2-1 0.3-1 0.3-0.2 0.2-0.3 0.2-0.3 0.3-0.2 0.3-0.2 0.2-0.3 0.2-0.3 0.3-0.2 0.3-0.2 0.2-0.3 1-0.5 1-0.5 0.2-0.3 0.3-0.2 0.3-0.2 0.2-0.3 0.2-0.3q0.3-0.2 1.6-2 1.2-1.7 2.7-4.4 1.5-2.8 3.3-4.3 1.7-1.5 5-4.5 3.2-3 3.7-5.5l0.5-2.5 0.5-0.2q0.5-0.3 0.5-0.6v-0.4q0-0.3 5.5-3.8t5.7-5.8q0.3-2.2-7-15.7l-7.2-13.5-0.2-1-0.3-1-0.5-1-0.5-1-0.3-0.2-0.2-0.3-0.2-0.3q-0.3-0.2-0.6-0.4-0.2-0.3-1.7-4l-1.5-3.8v-6l1 0.2 1 0.3 2-0.5q2-0.5 5-0.5t14.2-6.3q11.3-6.2 11.6-6.4 0.2-0.3 0.4-0.6l0.3-0.2 2.7-2.2q2.8-2.3 3.8-2.6z" stroke="#5bade5" fill="#5bade5"/>
  <path d="m320.8 345.5l0.2 1.5 1.5-0.2 1.5-0.3 0.2-0.3 0.3-0.2 0.5-1 0.5-1 0.3-0.2 0.2-0.3v-0.5h1q1 0-6.8 25-7.7 25-8.7 28t-0.7 6l0.2 3h-1.2q-1.3 0-2.8 4.5t-2 7.5l-0.5 3-0.3 0.2-0.2 0.3-0.2 0.3-0.3 0.2-0.5 1-0.5 1h-0.5l0.2-1.5q0.3-1.5-0.2-3.5l-0.5-2-0.3 0.2q-0.2 0.3-2.2 0.8t-31.5 11.5-31 12.7q-1.5 1.8-3 1.6l-1.5-0.3-1 0.5-1 0.5-0.5 0.3-0.5 0.2h-0.5l-0.5-3q-0.5-3-3.8-20.5l-3.2-17.5-0.2-1q-0.3-1-2-11.5l-1.8-10.5h0.5l0.3 0.2 0.2 0.3 1 0.5 1 0.5 0.2 0.3 0.3 0.2 0.3 0.2 0.2 0.3h1l0.2-0.3 0.3-0.2 11.3-5.2q11.2-5.3 42.2-17.8t32.5-14 5-1.2q3.5 0.2 3.5-0.8t1.8 0q1.7 1 2 2.5z" stroke="#2579cc" fill="#2579cc"/>
  <path d="m284.2 240l-3.2-5 3.8 3.5q3.7 3.5 6.4 9.7 2.8 6.3 6.6 8 3.7 1.8 8.7 8.3t3.5 17.5-6.2 13q-4.8 2-4.8 3t-1.5 1.2l-1.5 0.3-0.2 0.3-0.3 0.2-0.3 0.2-0.2 0.3-0.2 0.3-0.3 0.2-0.3 0.2-0.2 0.3-0.2 0.3-0.3 0.2-0.3 0.2-0.2 0.3-0.2 0.3-0.3 0.2-0.3 0.2-0.2 0.3-0.2 0.3-0.3 0.2-0.3 0.5-0.2 0.5-1 0.2q-1 0.3-3 0.8t-32 0.5h-30v-0.5l2.5-0.2 2.5-0.3 1.5-0.5 1.5-0.5 0.2-0.3q0.3-0.2 4-3.2 3.8-3 4-4 0.3-1 6.3-7t9.7-9.5q3.8-3.5 4-4.5 0.3-1 2-2 1.8-1 12-12 10.3-11 11.3-14t-2.3-8z" stroke="#96ddf7" fill="#96ddf7"/>
  <path d="m565.5 446.2l2.5-0.2 1.5 0.2 1.5 0.3 1 0.5 1 0.5 0.2 0.3 0.3 0.2 0.3 0.2 0.2 0.3 0.2 0.3 0.3 0.2 1.3 0.5q1.2 0.5 1.2 1.5v1l-1-0.2q-1-0.3-3.5 1.2t-1 2-0.5 1.2q-2 0.8-2.2 1.8-0.3 1-2 2.5-1.8 1.5-4 5-2.3 3.5-3.8 6.5t-8 11.5-12.8 16.7q-6.2 8.3-9.7 10.3t-4.5 0.5-6-2-13.2 4.2q-8.3 4.8-15.6 7.8-7.2 3-7.2 4t-3 2.2q-3 1.3-6 2-3 0.8-3 1.8t-2 1-2.5 3.5l-0.5 3.5h-0.5l-0.5-1-0.5-1-0.5-1-0.5-1-0.5-1.5q-0.5-1.5-1.5-3.5t-4.5-12l-3.5-10-0.5-1.5-0.5-1.5-0.3-1-0.2-1h3l1.5 0.2 1.5 0.3 1 0.5 1 0.5h6l-0.2-0.3-0.3-0.2-0.3-0.2-0.2-0.3-0.2-0.3-0.3-0.2-0.3-0.2-0.2-0.3-1.5-0.5q-1.5-0.5-4-2l-2.5-1.5-0.2-0.3-0.3-0.2v-3l0.3-0.2 0.2-0.3 1.5-0.5 1.5-0.5 0.2-0.3 0.3-0.2 0.3-0.2 0.2-0.3 11-4.5q11-4.5 46-21t36.5-16.8l1.5-0.2h0.2q0.3 0 0.6-0.5l0.2-0.5 1-0.2 1-0.3 0.2-0.3 0.3-0.2 0.3-0.2 0.2-0.3 2.5-0.5q2.5-0.5 5-0.8z" stroke="#0c56b7" fill="#0c56b7"/>
  <path d="m201.2 316.5l2.8-1.5v7.8q0 5.7 1.5 6 1.5 0.2 2.3 5.2 0.7 5 4.7 23.5t4.3 20.5l0.2 2 1.8 10.5q1.7 10.5 2 11.5l0.2 1-2-0.5q-2-0.5-2.5-1.3-0.5-0.7-10.3-4.4-9.7-3.8-10.2-4.8t-0.8 0q-0.2 1-1.4 1.5-1.3 0.5-1.6 1.5-0.2 1-1.4 1.5-1.3 0.5-4.3 12.5t-2.5 16.5 1.8 5.7q1.2 1.3 1.4 1.6l0.3 0.2 0.3 0.2 0.2 0.3 0.2 0.3 0.3 0.2 0.3 0.2 0.2 0.3 0.2 0.3 0.3 0.2 0.3 0.2 0.2 0.3 0.2 0.3 0.3 0.2 0.3 0.2 0.2 0.3 0.2 0.3 0.3 0.2 0.3 0.2 0.2 0.3 0.2 0.3 0.3 0.2 0.3 1 0.2 1-1-0.2-1-0.3-0.2-0.3-0.3-0.2-0.3-0.2-0.2-0.3-0.2-0.3-0.3-0.2-0.3-0.2-0.2-0.3-0.2-0.3-0.3-0.2-0.3-0.2-0.2-0.3-0.2-0.3-0.3-0.2-0.3-0.2-0.2-0.3-0.2-0.3-0.3-0.2-0.5-1q-0.5-1-0.8-1.2-0.2-0.3-3.2-4.8t-6.5-7.5-28-27.5l-24.5-24.5-0.2-0.3-0.3-0.2-0.3-0.2-0.2-0.3-0.2-0.3-0.3-0.2-0.3-0.2-0.2-0.3v-0.5l0.2-0.5 0.3-0.5 0.3-0.2 0.2-0.3 1-0.5q1-0.5 38.2-23.2 37.3-22.8 40-24.3z" stroke="#083d94" fill="#083d94"/>
  <path d="m63.5 158.2l2.5-0.2v0.5l-0.2 0.3-0.3 0.2-0.3 0.2-0.2 0.3-0.2 0.3-0.3 0.2-0.3 0.2-0.2 0.3 1.5 0.5 1.5 0.5 0.2 0.3 0.3 0.2 0.3 0.2 0.2 0.3 1 0.5 1 0.5 24.5 11.5q24.5 11.5 24.5 11.8v0.2l0.2 2 0.3 2 0.3 0.2 0.2 0.3 1 0.5 1 0.5 0.2 0.3 0.3 0.2 0.3 0.2 0.2 0.3 3 1.5q3 1.5 3.2 1.8l0.3 0.2 0.3 0.2 0.2 0.3 1 0.5 1 0.5 0.2 0.3 0.3 0.2 0.3 0.2 0.2 0.3 0.2 0.3 0.3 0.2 0.3 0.2 0.2 0.3-0.2 0.3-0.3 0.2-0.3 0.2-0.2 0.3-0.2 0.3-0.3 0.2-0.3 0.2-0.2 0.3-0.2 0.3-0.3 0.2-0.3 0.2-0.2 0.3-2.5 0.5q-2.5 0.5-4.5 1.5l-2 1-1 0.5-1 0.5-1.5 0.5-1.5 0.5-0.2 0.3-0.3 0.2-0.3 0.2-0.2 0.3 2 0.3 2 0.2v0.5l-3 0.5-3 0.5 3.5 0.5q3.5 0.5 7.5 1l4 0.5-0.2 0.3-0.3 0.2-0.3 0.2-0.2 0.3-0.2 0.3-0.3 0.2-0.3 0.2-0.2 0.3-0.2 0.3-0.3 0.2-0.3 0.2-0.2 0.3-1.5 0.5-1.5 0.5-0.2 0.3-0.3 0.2-0.3 0.2-0.2 0.3-26.2 15.7q-26.3 15.8-25.3 23.8t1.3 12.5l0.2 4.5-2-0.2-2-0.3-0.2-0.3-0.3-0.2-0.3-0.2-0.2-0.3-2.5-0.5q-2.5-0.5-2.7-0.8l-0.3-0.2h-0.5l-0.2-1q-0.3-1-0.8-2t-2.8-2.2q-2.2-1.3-5-4.6-2.7-3.2-4.4-3.4-1.8-0.3-4.3 1.7l-2.5 2-1 0.3-1 0.2-0.2-0.5-0.3-0.5h-0.5l-0.2-1-0.3-1-0.5-2q-0.5-2-4.5-22.5t-4.3-29q-0.2-8.5 1.3-9.3 1.5-0.7 3-1.2t5.3-8.2q3.7-7.8 7.4-16.8l3.8-9 0.5-0.2q0.5-0.3 0.5-0.6v-0.2l5-0.8q5-0.7 5.5-1.2t3-0.8z" stroke="#031b74" fill="#031b74"/>
  <path d="m585.8 656.5l0.2 0.5v0.2q0 0.3 0.5 0.6l0.5 0.2 0.2 3 0.3 3 0.3 0.2 0.2 0.3 22-0.5q22-0.5 28-1.2 6-0.8 6.2-1.8 0.3-1 0.6-4l0.2-3h0.5l0.5-3 0.5-3 0.5 2 0.5 2 0.3 5.5q0.2 5.5 1.4 6 1.3 0.5 0.6 2-0.8 1.5 0.7 1.5t1.5 1-1.5 1-1.5 1v1l3.5 0.8q3.5 0.7 6.5 1.2l3 0.5 4 0.5 4 0.5v0.5l-10 0.2q-10 0.3-42 3.3t-48.5 2l-16.5-1v-0.5l1-0.2 1-0.3 2.5-0.3 2.5-0.2v-2l-1.5-0.2-1.5-0.3-0.2-0.3-0.3-0.2-0.3-0.2-0.2-0.3-0.2-0.3-0.3-0.2-0.3-0.2-0.2-0.3-3-0.5q-3-0.5-10.8-3.2-7.7-2.8-15.4-5l-7.8-2.3-0.2-0.3-0.3-0.2-0.3-0.2-0.2-0.3-2.5-0.5-2.5-0.5v-0.5l3 0.2 3 0.3h5l-0.2-0.3-0.3-0.2-0.3-0.2-0.2-0.3-1.5-0.5q-1.5-0.5-2.5-3t-1.2-4.8q-0.3-2.2 0.4-4.7 0.8-2.5 3.8-2.5h3l-0.2-1-0.3-1-0.3-0.2-0.2-0.3-0.2-0.3-0.3-0.2-0.3-0.2-0.2-0.3-0.2-0.3-0.3-0.2-0.3-0.2-0.2-0.3v-0.5l-0.2-0.5-0.3-0.5-0.3-0.2-0.2-0.3-0.2-0.3-0.3-0.2-0.3-0.2-0.2-0.3-0.2-0.3q-0.3-0.2-1-1l-0.8-0.7-0.2-0.3-0.3-0.2-0.3-1-0.2-1 1-0.2 1-0.3 0.2-0.3 0.3-0.2 0.3 0.2 0.2 0.3h1l2.5-1.5q2.5-1.5 6.5-2.5t14.8-5.3q10.7-4.2 13-4 2.2 0.3 6.2 3.3t13.2 18.7q9.3 15.8 9.6 16.3z" stroke="#0e5cab" fill="#0e5cab"/>
  <path d="m384.8 390h0.2l2.8 1.5q2.7 1.5 7.7 10t5.5 9.5l0.5 1 0.5 1.5 0.5 1.5h0.5l1.5 3.8q1.5 3.7 1.7 4 0.3 0.2 0.6 0.4l0.2 0.3 0.2 0.3 0.3 0.2 0.5 1 0.5 1 0.3 1 0.2 1-0.5-0.2-0.5-0.3h-4q-4 0-13 2.7-9 2.8-9 3.8t-30 12.2q-30 11.3-37 12.3t-12.5 3.5-8.7 8.2l-3.3 5.8h-0.5v-0.5h-2l-1 0.3-1 0.2v2h-2l0.2-1 0.3-1 0.3-0.2 0.2-0.3 0.2-0.3 0.3-0.2 0.5-1 0.5-1 0.5-1q0.5-1 5.5-11t6.3-20.5q1.2-10.5 2.2-10.5t1-3.5v-3.5h0.5l0.5-1 0.5-1 0.3-0.2 0.2-0.3 0.2-0.3 0.3-0.2 0.5-3q0.5-3 2-7.5t2.8-4.5h1.7l0.3 1 0.2 1h2v-2h1.5q1.5 0 1.5-1t22-5.2q22-4.3 26-3.8t5.8 1.8q1.7 1.2 3-1.6 1.2-2.7 6-4 4.7-1.2 5-1.2z" stroke="#2174c9" fill="#2174c9"/>
  <path d="m301.2 416.2l0.3-0.2 0.5 2q0.5 2 0.2 3.5l-0.2 1.5v3.5q0 3.5-1 3.5t-2.2 10.5q-1.3 10.5-6.3 20.5t-5.5 11l-0.5 1-0.5 1-0.5 1-0.3 1-0.2 1h-0.2q-0.3 0-0.6 0.5l-0.2 0.5-4.8 7.5q-4.7 7.5-5.2 8.5l-0.5 1-0.3 1-0.2 1-2-0.2-2-0.3-0.2-0.3-0.3-0.2-0.5-1q-0.5-1-2-3.5l-1.5-2.5-0.5-1-0.5-1-0.3-0.2-0.2-0.3-0.2-0.3-0.3-0.2-0.3-0.2-0.2-0.3-0.2-0.3-0.3-0.2-0.3-0.2-0.2-0.3-0.2-0.3-0.3-0.2v5l1 2.5q1 2.5 1 5v2.5l-0.3-0.2-0.2-0.3-1.5-0.5-1.5-0.5-1.5-0.5-1.5-0.5-1-0.5q-1-0.5-3.5-1.5l-2.5-1-0.2-0.3-0.3-0.2h-0.5l-0.2-0.5q-0.3-0.5-3.6-3.7-3.2-3.3-4.7-6-1.5-2.8-4-3-2.5-0.3-3-1.6-0.5-1.2-1.5-1.2h-1v-2l1 0.2q1 0.3 1.2-5.4 0.3-5.8-1.4-15.8l-1.8-10 0.5-0.2 0.5-0.3 1-0.5 1-0.5 1.5 0.3q1.5 0.2 3-1.6 1.5-1.7 31-12.7t31.5-11.5 2.2-0.8z" stroke="#0a4aa5" fill="#0a4aa5"/>
  <path d="m219 402.5l2 0.5 3.2 17.5q3.3 17.5 3.8 20.5l0.5 3h0.5l1.8 10q1.7 10 2 16l0.2 6h-2l-0.2-0.5-0.3-0.5h-0.5l-0.5-0.2-0.5-0.3-0.2-0.3-0.3-0.2-0.3-0.2-0.2-0.3-0.2-0.3-0.3-0.2-0.3-0.2-0.2-0.3-0.2-0.3-0.3-0.2-0.3-0.2q-0.2-0.3-16.7-16l-16.5-15.8-0.2-0.5q-0.3-0.5-0.6-0.5h-0.2l-0.2-0.5q-0.3-0.5-0.6-0.5h-0.2l-0.2-0.5q-0.3-0.5-0.6-0.5h-0.2l-0.2-0.5q-0.3-0.5-0.6-0.5h-0.2l-0.2-0.5q-0.3-0.5-0.6-0.5h-0.2l-0.2-0.5q-0.3-0.5-0.6-0.5h-0.2l-0.2-1q-0.3-1-1.3-2t-1.5-5.5 2.5-16.5 4.3-12.5q1.2-0.5 1.4-1.5 0.3-1 1.6-1.5 1.2-0.5 1.4-1.5 0.3-1 0.8 0t10.2 4.8q9.8 3.7 10.3 4.4 0.5 0.8 2.5 1.3z" stroke="#072574" fill="#072574"/>
  <path d="m643.2 511l-0.2-1 3.5 0.2 3.5 0.3 0.2 0.3 0.3 0.2 0.3 0.2 0.2 0.3 0.2 0.3 0.3 0.2 0.3 0.2 0.2 0.3 0.2 0.3 0.3 0.2 3.5 5.5q3.5 5.5 14.5 17t11.3 11.7l0.2 0.3 0.2 0.3 0.3 0.2 0.3 0.2 0.2 0.3 2 0.3 2 0.2-0.2-5q-0.3-5-0.3-8v-3l0.5-2.5 0.5-2.5 0.5-1 0.5-1 0.3-0.5 0.2-0.5h0.5v12q0 12-1.3 17-1.2 5-3.7 6.2-2.5 1.3-2.5 1.6v0.2l-0.5 0.2q-0.5 0.3-0.5 0.6v0.2l-0.5 0.2q-0.5 0.3-0.5 0.6v0.2l-0.5 0.2q-0.5 0.3-13 14.6l-12.5 14.2-0.5 0.2-0.5 0.3-0.2 0.3-0.3 0.2-0.3 0.2-0.2 0.3-0.2 0.3-0.3 0.2-0.3 0.2-0.2 0.3-0.2 0.3-0.3 0.2-0.3 0.2q-0.2 0.3-2.7 1.8t-5.5-0.2q-3-1.8-11-10.6-8-8.7-9.5-11.4-1.5-2.8 0.5-3.6l2-0.7h-4.5q-4.5 0-7.5 1.3l-3 1.2-0.5 0.2q-0.5 0.3-6 0.3h-5.5l-1.5 0.3-1.5 0.2-0.2-1-0.3-1-0.3-0.2-0.2-0.3 0.2-0.3 0.3-0.2 0.3-0.2 0.2-0.3 1-0.3 1-0.2 0.2-2q0.3-2 1.3-3.5t2.7-3q1.8-1.5 4.3-6.3 2.5-4.7 5-12l2.5-7.2v-0.2q0-0.3 0.5-0.8l0.5-0.5 0.2-0.3 0.3-0.2 0.3-0.2 0.2-0.3 0.2-0.3 0.3-0.2 0.3-0.2 0.2-0.3 0.2-0.3 0.3-0.2 0.3-0.2 0.2-0.3 1.5-0.5 1.5-0.5h3l0.2 0.3 0.3 0.2 1 3.5q1 3.5 1.3 4.5l0.2 1 10-3.5q10-3.5 10-4.5t3.2-2.5q3.3-1.5 3.6-2.5l0.2-1 1-0.2 1-0.3-0.2-0.3-0.3-0.2-0.5-1.5q-0.5-1.5-3.5-5.5l-3-4-0.3-0.2-0.2-0.3-0.2-0.3-0.3-0.2-0.3-0.2-0.2-0.3-0.2-0.3-0.3-0.2-0.3-0.2-0.2-0.3-0.2-0.3-0.3-0.2-0.3-1z" stroke="#1372b9" fill="#1372b9"/>
  <path d="m321.2 336.5l-2.2-1.5 5 1.2q5 1.3 8 0.8t14.5 3 11.7 3.8l0.3 0.2 0.3 1 0.2 1 1-0.2 1-0.3 1.5-0.3 1.5-0.2v-6h0.5l0.5 1 0.5 1 0.5 1 0.5 1 7 11.5q7 11.5 9.5 15.5t2.8 6q0.2 2-1 1.5-1.3-0.5-0.8 5.5t0.8 6.5l0.2 0.5h-0.2q-0.3 0-5 1.2-4.8 1.3-6 4-1.3 2.8-3 1.6-1.8-1.3-5.8-1.8t-26 3.8q-22 4.2-22 5.2t-1.5 1h-1.5v2h-2l-0.2-1-0.3-1h-0.5l-0.2-3q-0.3-3 0.7-6t8.7-28q7.8-25 6.8-25h-3l-0.2-2.5q-0.3-2.5-2.6-4z" stroke="#5ea2e0" fill="#5ea2e0"/>
  <path d="m681.8 562.5l0.2-0.5 1.2 1q1.3 1 0.3 48t-0.5 49 0.5 3v2l-0.3 0.2-0.2 0.3 1.5 0.3 1.5 0.2-0.2 0.5q-0.3 0.5-2.8 2.5t-7.8 4l-5.2 2v-0.5l-4-0.5-4-0.5-3-0.5q-3-0.5-6.5-1.2l-3.5-0.8v-1q0-1 1.5-1t1.5-1-1.8-1.5q-1.7-0.5-2.2-7.5l-0.5-7-0.5-2-0.5-2-0.5 3-0.5 3h-0.5l0.2-3.5q0.3-3.5 1.8-23.5t2.5-23.5l1-3.5 0.3-0.2 0.2-0.3 0.2-0.3 0.3-0.2 0.3-0.2 0.2-0.3 0.2-0.3 0.3-0.2 0.5-1.5 0.5-1.5 0.3-1 0.2-1 12.5-14.2q12.5-14.3 13-14.6l0.5-0.2h0.2q0.3 0 0.6-0.5l0.2-0.5h0.2q0.3 0 0.6-0.5z" stroke="#054185" fill="#054185"/>
  <path d="m481.5 397.2l2.5-0.2 2 0.2 2 0.3 15.5 3q15.5 3 32 5t52 10.5 38 9.2q2.5 0.8 3.5 3 1 2.3 2 2.6 1 0.2 1 1.7v1.5l-0.5 0.2q-0.5 0.3-0.5 0.6v0.2l-0.5 0.2q-0.5 0.3-0.5 0.6v0.2h-0.5v2l0.3 0.2 0.2 0.3-1 0.5-1 0.5 2.5 0.5 2.5 0.5v0.5l-0.5 0.2-0.5 0.3-9 0.5q-9 0.5-28 1.5l-19 1h-4l-2 0.5-2 0.5v0.5l-2.5 0.2q-2.5 0.3-5 0.8l-2.5 0.5-0.2 0.3-0.3 0.2-0.3 0.2-0.2 0.3-0.2 0.3-0.3 0.2-0.3 0.2-0.2 0.3-1 0.3-1 0.2v-2l1-0.2 1-0.3 0.2-0.3 0.3-0.2 0.3-0.2 0.2-0.3 0.2-0.3 0.3-0.2 0.3-0.2 0.2-0.3 1-0.3 1-0.2-0.2-1.5-0.3-1.5-0.3-0.2-0.2-0.3-0.2-0.3-0.3-0.2-0.3-0.2-0.2-0.3-1-0.5-1-0.5-0.2-0.3q-0.3-0.2-38.6-21-38.2-20.7-35.7-21z" stroke="#a5ccee" fill="#a5ccee"/>
  <path d="m557.8 227.5l-1.8-3.5 16 17.5q16 17.5 17.2 18 1.3 0.5 1.6 1.5 0.2 1 1.2 1t4 4 10.2 10.5q7.3 6.5 32.6 33.3 25.2 26.7 30.4 33 5.3 6.2 13.6 25.7 8.2 19.5 9.2 19.5t3 5.2q2 5.3 2.8 7.6 0.7 2.2 1 2.7l0.2 0.5v0.2q0 0.3 0.5 0.6l0.5 0.2-0.2 1.5q-0.3 1.5-0.8 2.5l-0.5 1-0.3 0.2-0.2 0.3-1 0.5-1 0.5-0.2 0.3-0.3 0.2-0.3 0.2-0.2 0.3-1 0.5-1 0.5-1 0.5-1 0.5-1 0.5-1 0.5-1 0.5-1 0.5-1.5 0.3-1.5 0.2-0.2-1-0.3-1-0.5-3q-0.5-3-3-15t-4.8-16.8q-2.2-4.7-5.7-11l-3.5-6.2-0.2-1-0.3-1-0.5-2q-0.5-2-0.8-1-0.2 1-1.2 1t-1.2-1q-0.3-1-5-6.2-4.8-5.3-11.8-11.3t-25.5-27.7q-18.5-21.8-19.5-21.8t-4.8-4.5q-3.7-4.5-6-9-2.2-4.5-4.2-5t-3.2-4q-1.3-3.5-3.6-5.5-2.2-2-5.2-7.5t-2-5.5 1.2-1q0.3-1-5.7-9l-6-8-0.3-0.2q-0.2-0.3-0.4-0.6-0.3-0.2-2-3.7zm16.4 23.3q-0.2-0.3 0-0.6 0.3-0.2 0.3 0.3t-0.3 0.3z" stroke="#b3dbf3" fill="#b3dbf3"/>
  <path d="m611.5 537.2l0.5-0.2-2.5 7.2q-2.5 7.3-5 12-2.5 4.8-4.3 6.3-1.7 1.5-2.7 3t-1.3 3.5l-0.2 2-1 0.2-1 0.3-0.2 0.3-0.3 0.2-0.3 0.2-0.2 0.3 0.2 0.3 0.3 0.2 0.3 1 0.2 1 1.5-0.2 1.5-0.3h5.5q5.5 0 6-0.3l0.5-0.2-0.8 8q-0.7 8-2 11.5-1.2 3.5-3.7 4.3-2.5 0.7-9.5 1l-7 0.2-10.5-0.2q-10.5-0.3-28-1.3t-18.5-4.3q-1-3.2-8.5-3l-7.5 0.3-2 0.3-2 0.2 0.2-0.5 0.3-0.5 0.3-0.2 0.2-0.3 0.2-0.3 0.3-0.2 0.3-0.2 0.2-0.3 0.2-0.3 0.3-0.2 0.3-0.2 0.2-0.3 0.2-0.3 0.3-0.2 0.3-0.2 0.2-0.3 2.5-0.7q2.5-0.8 4.5-3 2-2.3 5.2-4 3.3-1.8 3.6-2.6 0.2-0.7-0.8-1.2l-1-0.5 1-0.5 1-0.5 0.2-0.3 0.3-0.2 0.3 0.2 0.2 0.3 0.2 0.3 0.3 0.2 0.3 0.2 0.2 0.3 0.2 0.3 0.3 0.2-0.5 1q-0.5 1 1.2 2.8 1.8 1.7 4.8 2.7t11.5 0.5 13.5-2.5 6.5-4.7q1.5-2.8 2.5-2.8t3.2-4q2.3-4 7.3-9t7.3-7.2q2.2-2.3 4-3 1.7-0.8 2.2-2.3t0.8-1.5h0.4q0.3 0 0.6-0.5l0.2-0.5 0.5-0.2q0.5-0.3 2-0.8l1.5-0.5h2l0.2 0.3 0.3 0.2 0.3-0.2 0.2-0.3 3.5-2.5q3.5-2.5 4-2.8z" stroke="#0d5d9c" fill="#0d5d9c"/>
  <path d="m230.8 185.8l1.2-0.3 14 14.5q14 14.5 15.5 15.5t4 1.5l2.5 0.5h5l1-0.3 1-0.2 0.2-1 0.3-1 0.5-1 0.5-1 0.3-2 0.2-2h0.5l0.5 2 0.5 2 0.5 1.5 0.5 1.5 0.3 0.2 0.2 0.3 0.2 0.3 0.3 0.2v1l-0.5 1q-0.5 1-3.8 1.8l-3.2 0.7-1 0.5-1 0.5 0.2 0.3 0.3 0.2 0.3 0.2 0.2 0.3 0.2 0.3 0.3 0.2 0.3 0.2 0.2 0.3 0.2 0.3 0.3 0.2 2 2.5q2 2.5 2.3 2.7l0.2 0.3 0.2 0.3 0.3 0.2 0.3 0.2 0.2 0.3 0.2 0.3 0.3 0.2 0.3 0.2 0.2 0.3 0.2 0.3 0.3 0.2 0.3 1 0.2 1-0.5-0.2-0.5-0.3-0.2-0.3-0.3-0.2-0.3-0.2-0.2-0.3-0.2-0.3-0.3-0.2-0.3-0.2-0.2-0.3-1.5-0.5q-1.5-0.5-4.5-0.8-3-0.2-3 0.8t-18.5 17.2q-18.5 16.3-23.3 20l-4.7 3.8-0.3 0.2-0.2 0.3-0.2 0.3-0.3 0.2-0.3 0.2-0.2 0.3-0.2 0.3-0.3 0.2-0.3 0.2-0.2 0.3-1 0.5-1 0.5h-1l-0.2-0.3-0.3-0.2-0.3-0.2-0.2-0.3-0.2-0.3-0.3-0.2-0.3-5-0.2-5 0.2-2.5q0.3-2.5 1.6-12.5l1.2-10 0.2-0.5 0.3-0.5 0.3-0.2 0.2-0.3-0.2-0.3-0.3-0.2-0.3-0.2-0.2-0.3 0.2-0.3 0.3-0.2 0.5-1q0.5-1 4.8-23l4.2-22h0.5l0.5-2.5q0.5-2.5 1.8-2.7z" stroke="#8fdbf7" fill="#8fdbf7"/>
  <path d="m187.5 567l-26.5-41 4.5 3.2q4.5 3.3 15.5 3.6l11 0.2v0.5l-6 0.5-6 0.5-1.5 0.3-1.5 0.2 0.2 1.5 0.3 1.5 0.3 0.2 0.2 0.3 0.2 0.3 0.3 0.2 0.3 0.2 0.2 0.3 0.2 0.3 0.3 0.2 0.3 0.2 0.2 0.3 1 0.5 1 0.5 16.5 13q16.5 13 22.7 17.7 6.3 4.8 7 6 0.8 1.3 5.8 3.8t35 25.5 35.5 27 6.5 4.5l1 0.5 0.2 0.3 0.3 0.2 0.3 0.2 0.2 0.3 1 0.5 1 0.5 0.2 0.3 0.3 0.2 0.3 0.2 0.2 0.3 0.5 0.3 0.5 0.2v0.5l0.5 0.3 0.5 0.2v0.5h-2l-1-0.5-1-0.5-2-0.5-2-0.5-1-0.5q-1-0.5-38.2-13.8-37.3-13.2-45-15.4-7.8-2.3-9.8-3.6-2-1.2-28.5-42.2z" stroke="#4fbeee" fill="#4fbeee"/>
  <path d="m206.5 113.8l4.5 0.2v0.5l-1.5 0.5-1.5 0.5-2.5 0.5-2.5 0.5-1 0.5q-1 0.5-7.5 2.5t-15 4.3l-8.5 2.2-1.5 0.2q-1.5 0.3-2.5 0.8t-49.5 15l-48.5 14.5-1 0.5-1 0.5-0.5 0.3-0.5 0.2-2.5 0.2q-2.5 0.3-2.7 0.6-0.3 0.2-5 1.4l-4.8 1.3-1 0.3-1 0.2v-2l1-0.2 1-0.3 1-0.5 1-0.5 0.2-0.3 0.3-0.2 2.7-4.2q2.8-4.3 3.8-4.6 1-0.2 4.5-4.4 3.5-4.3 4.5-4.6 1-0.2 6.5-6.4 5.5-6.3 27-11.8t40-9.5 22.7-4.7q4.3-0.8 7-1.3 2.8-0.5 2.8 0.5t3.2 0.5q3.3-0.5 3-2-0.2-1.5 2-1 2.3 0.5 1.6 1.3-0.8 0.7 6.7 3 7.5 2.2 7.5 3.2t1.5 1.2q1.5 0.3 6 0.6z" stroke="#a3c8ed" fill="#a3c8ed"/>
  <path d="m465.8 544l0.2-1 12.5 25q12.5 25 14 25.2 1.5 0.3 5 0l3.5-0.2v0.5l-1 0.5-1 0.5-1.5 0.5-1.5 0.5-0.2 0.3-0.3 0.2-0.3 0.2-0.2 0.3-0.2 0.3-0.3 0.2 1.3 3.8q1.2 3.7 5.7 12.7t4.7 9.3l0.3 0.2 0.3 0.2 0.2 0.3 0.2 0.3 0.3 0.2v3l-0.3 0.2-0.2 0.3h-1l-1-0.5-1-0.5-0.2-0.3-0.3-0.2-0.3-0.2-0.2-0.3-0.2-0.3-0.3-0.2v2l0.3 0.2 0.2 0.3 0.2 0.3 0.3 0.2 0.3 1 0.2 1-2.5-0.2q-2.5-0.3-30.5-9.8t-31-11.5-3-3.7q0-1.8-1-2-1-0.3-1.5-1.6-0.5-1.2-1.5-1.2h-1v-1q0-1 1.5-1.2 1.5-0.3 0-0.6-1.5-0.2-1.3-1.2 0.3-1 4-3 3.8-2 3.8-5t1-3-3.5-5l-4.5-5-0.2-0.5-0.3-0.5-0.3-0.2-0.2-0.3-0.2-0.3-0.3-0.2-0.5-1-0.5-1-0.3-0.2-0.2-0.3-0.2-0.3-0.3-0.2-0.5-1-0.5-1-0.3-1.5-0.2-1.5 0.5-0.2 0.5-0.3v-0.5l5-3.2q5-3.3 17.2-7.6 12.3-4.2 13.3-6.2t1.3-3z" stroke="#3b94d6" fill="#3b94d6"/>
  <path d="m60.8 271l0.2 1-0.5-0.2-0.5-0.3-1.5-0.3-1.5-0.2 0.2 1.5 0.3 1.5 0.3 0.2 0.2 0.3 0.2 0.3 0.3 0.2 0.3 0.2 0.2 0.3 0.2 0.3 0.3 0.2 0.5 1 0.5 1 4 6q4 6 4.5 7.5t1 2.5l0.5 1 0.3 0.2q0.2 0.3 0.7 0.6l0.5 0.2 0.2 1q0.3 1 0.6 1h0.2v0.5l0.2 0.3 0.3 0.2 22 33q22 33 22.3 33.5l0.2 0.5v0.5l-0.2 0.3-0.3 0.2-0.3 0.2-0.2 0.3-0.2 0.3-0.3 0.2-0.3 0.2-0.2 0.3-0.2 0.3-0.3 0.2-0.3 0.2-0.2 0.3-0.2 0.3-0.3 0.2-0.3 0.2-0.2 0.3-0.2 0.3-0.3 0.2-0.3 0.2-0.2 0.3-1 0.5-1 0.5-0.2 0.3-0.3 0.2-0.3 0.2-0.2 0.3-0.2 0.3-0.3 0.2-0.3 0.2-0.2 0.3-0.2 0.3-0.3 0.2-0.3 0.2-0.2 0.3-1 0.5-1 0.5h-3l-0.2-0.3-0.3-0.2h-0.5l-0.2-1q-0.3-1-13-21l-12.8-20-0.2-0.5q-0.3-0.5-10.3-17.5t-16.5-26-8.5-17.5l-2-8.5-0.3-1-0.2-1 1 0.2q1 0.3 1.5 0.3h0.5l2.5-2q2.5-2 4.3-1.7 1.7 0.2 4.4 3.4 2.8 3.3 5 4.6 2.3 1.2 2.8 2.2t0.8 2z" stroke="#021e72" fill="#021e72"/>
  <path d="m449.8 342.8l0.2-0.3h2l1 0.3 1 0.2 0.2 1 0.3 1 0.3 0.2 0.2 0.3 0.2 0.3 0.3 0.2 0.5 1 0.5 1 4.5 9q4.5 9 5.8 11.2 1.2 2.3 6.2 0.8t6.5-2l1.5-0.5 1-0.3 1-0.2-0.2 2-0.3 2-0.5 1q-0.5 1-1.8 1.8l-1.2 0.7-0.2 0.3-0.3 0.2-0.3 1-0.2 1 3.5-0.2q3.5-0.3 7.5 1.7t4.2 2.3l0.3 0.2v1l-0.3 0.2-0.2 0.3-0.2 0.3-0.3 0.2-0.3 0.2-0.2 0.3-0.2 0.3-0.3 0.2-0.5 2q-0.5 2 0 3l0.5 1 0.3 0.2 0.2 0.3 0.2 0.3 0.3 0.2v3l-0.3 0.2-0.2 0.3-2 0.5q-2 0.5-2.2 0.8l-0.3 0.2-0.3 0.2-0.2 0.3-1.5 0.3-1.5 0.2-1-0.2q-1-0.3-5.5-1.6l-4.5-1.2-0.8 5.5q-0.7 5.5-1 5.7l-0.2 0.3-1 0.5-1 0.5-0.2 0.3-0.3 0.2-0.5 1-0.5 1-0.3-0.2-0.2-0.3-0.2-0.3-0.3-0.2-0.3-0.2-0.2-0.3-0.2-0.3-0.3-0.2-0.3-0.2-0.2-0.3-0.2-0.3-0.3-0.2-0.3-0.2-0.2-0.3-0.2-0.3q-0.3-0.2-1-0.7l-0.8-0.5-0.2-0.5q-0.3-0.5-0.6-0.5h-0.2l-0.2-2q-0.3-2-1-4.2l-0.8-2.3h-2q-2 0-8 2.5l-6 2.5-0.2 0.3-0.3 0.2-0.3 0.2-0.2 0.3-1.5 0.3-1.5 0.2 0.2-1 0.3-1 0.3-0.2 0.2-0.3 0.2-0.3 0.3-0.2 0.5-1 0.5-1 0.3-0.2 0.2-0.3 0.2-0.3 0.3-0.2 0.3-0.2q0.2-0.3 0.7-1l0.5-0.8h0.2q0.3 0 0.6-0.5l0.2-0.5h0.2q0.3 0 0.6-0.5l0.2-0.5h0.5l0.3-0.2 0.2-0.3 0.2-0.3 0.3-0.2 0.3-0.2 0.2-0.3 1-0.5 1-0.5v-0.5h0.5v-1q0-1-0.3-1h-0.2l-0.2-0.5q-0.3-0.5-0.6-0.7l-0.2-0.3-0.2-0.3q-0.3-0.2-0.6-4.2-0.2-4 1.8-4.5t0.8-16l-1.3-15.5 0.3-0.2z" stroke="#dfeef8" fill="#dfeef8"/>
  <path d="m362 326v-6l1 0.2 1 0.3 0.2 0.3 0.3 0.2 0.3 0.2 0.2 0.3 1 0.5 1 0.5 0.2 0.3 0.3 0.2 0.3 0.2 0.2 0.3 10.5 8q10.5 8 15.5 10.5t17 11 13 9l1 0.5 0.2 0.3 0.3 0.2 0.3 0.2 0.2 0.3 0.2 0.3 0.3 0.2 0.3 0.2 0.2 0.3 1 0.5 1 0.5 0.2 0.3 0.3 0.2 0.3 0.2 0.2 0.3 0.2 0.3 0.3 0.2v1l-0.3 0.2-0.2 0.3-5.5 0.5-5.5 0.5 0.2 0.3 0.3 0.2 0.3 0.2 0.2 0.3 0.2 0.3 0.3 0.2 0.3 0.2 0.2 0.3 1.5 0.5 1.5 0.5 1 0.5 1 0.5 6.8 2.7q6.7 2.8 7.7 3.8t-0.3 2.2q-1.2 1.3 3.3 1.8l4.5 0.5 1 0.3 1 0.2v2.5l-1 0.5-1 0.5-0.2 0.3-0.3 0.2-0.3 0.2-0.2 0.3-0.2 0.3-0.3 0.2h-0.5l-0.5 0.2-0.5 0.3v0.5l-0.5 0.2q-0.5 0.3-0.5 0.6v0.2l-1 0.2q-1 0.3-2.8 1.6l-1.7 1.2-0.3 0.2q-0.2 0.3-0.4 0.6-0.3 0.2-11.6 6.4-11.2 6.3-14.2 6.3t-5 0.5l-2 0.5-1-0.3-1-0.2v6h-0.5l-0.5-1.5-0.5-1.5-0.5-1q-0.5-1-5.5-9.5t-7.7-10l-2.8-1.5-0.2-0.5q-0.3-0.5-0.8-6.5t0.8-6.5q1.2-0.5-1.6-5.5-2.7-5-9.7-16.5l-7-11.5-0.5-1-0.5-1-0.5-1-0.5-1h-0.5l-0.2-1.5q-0.3-1.5-1-3.5l-0.8-2v-6z" stroke="#3281d0" fill="#3281d0"/>
  <path d="m511 590.8l2-0.3 7.5-0.3q7.5-0.2 8.5 3 1 3.3 18.5 4.3t28 1.3l10.5 0.2v0.5l0.2 0.3 0.3 0.2 0.3 0.2 0.2 0.3 4 1q4 1 6 2.3 2 1.2 6.2 8.2 4.3 7 2.3 8t0.5 3.5 4 5.5 2.8 3.8q1.2 0.7 0 1.4-1.3 0.8-1.8 3.8t-8.8 11.2q-8.2 8.3-9.2 8.8l-1 0.5-0.2 0.3-0.3 0.2-0.3 0.2-0.2 0.3h-2l-0.2-0.3-0.3-0.2-0.3-0.2-0.2-0.3-0.2-0.3-0.3-0.2h-0.5l-0.2-0.5q-0.3-0.5-0.6-0.5h-0.2l-0.2-0.5q-0.3-0.5-9.6-16.3-9.2-15.7-13.2-18.7t-6.2-3.3q-2.3-0.2-13 4-10.8 4.3-14.8 5.3t-6.5 2.5l-2.5 1.5h-1l-0.2-0.3-0.3-0.2-0.3 0.2-0.2 0.3-1 0.3-1 0.2 0.2 1 0.3 1 0.3 0.2 0.2 0.3 0.8 0.7q0.7 0.8 1 1l0.2 0.3 0.2 0.3 0.3 0.2 0.3 0.2 0.2 0.3 0.2 0.3 0.3 0.2 0.3 0.5 0.2 0.5-1-0.2-1-0.3-1-0.5-1-0.5-0.2-0.3-0.3-0.2-0.3-0.2-0.2-0.3-0.2-0.3-0.3-0.2-0.3-0.2q-0.2-0.3-5.7-2.8l-5.5-2.5v-0.5l-0.2-1-0.3-1-0.3-0.2-0.2-0.3-0.2-0.3-0.3-0.2v-2l0.3 0.2 0.2 0.3 0.2 0.3 0.3 0.2 0.3 0.2 0.2 0.3 1 0.5 1 0.5h1l0.2-0.3 0.3-0.2v-3l-0.3-0.2-0.2-0.3-0.2-0.3-0.3-0.2-0.3-0.2q-0.2-0.3-4.7-9.3t-5.7-12.7l-1.3-3.8 0.3-0.2 0.2-0.3 0.2-0.3 0.3-0.2 0.3-0.2 0.2-0.3 1.5-0.5 1.5-0.5 1-0.5 1-0.5v-0.5l3.8-1q3.7-1 4-1h0.2l2-0.2z" stroke="#40b4e4" fill="#40b4e4"/>
  <path d="m510.5 659.8l1.5 0.2v0.5l2.5 0.5 2.5 0.5 0.2 0.3 0.3 0.2 0.3 0.2 0.2 0.3 7.8 2.3q7.7 2.2 15.4 5 7.8 2.7 10.8 3.2l3 0.5 0.2 0.3 0.3 0.2 0.3 0.2 0.2 0.3 0.2 0.3 0.3 0.2 0.3 0.2 0.2 0.3 1.5 0.3 1.5 0.2v2l-2.5 0.2-2.5 0.3-1 0.3-1 0.2-2-0.2q-2-0.3-45.5-5.3t-55.5-6.3q-12-1.2-12-2.2t-8.5-1.2q-8.5-0.3-9-1.6-0.5-1.2-29.5-4.7l-29-3.5 0.2-1 0.3-1 0.3-0.2 0.2-0.3v-0.5l0.5-0.2 0.5-0.3 2-0.5 2-0.5h10q10 0 15 0.3l5 0.2v0.5l1.5 0.5 1.5 0.5 24.5 1.5q24.5 1.5 27.7 0.8 3.3-0.8 4-2 0.8-1.3 11.8-2.3t21.5 3.5 14.5 5.5 5.5 1.3z" stroke="#0b4f96" fill="#0b4f96"/>
 </g>
</svg>
