<?xml version="1.0" encoding="UTF-8" standalone="no"?>
<svg width="266.67" xmlns="http://www.w3.org/2000/svg" xmlns:xlink="http://www.w3.org/1999/xlink" height="266.67">
 <defs>
  <linearGradient id="linearGradient2258" y2=".95312" xlink:href="#linearGradient2241" x2=".86046" y1=".039063" x1=".52326"/>
  <linearGradient id="linearGradient2246" y2=".30469" xlink:href="#linearGradient2241" x2=".76562" y1=".3125" x1=".45312"/>
  <linearGradient id="linearGradient2241">
   <stop id="stop2242" stop-color="#63efff" offset="0"/>
   <stop id="stop2243" stop-color="#003ec3" offset="1"/>
  </linearGradient>
  <linearGradient id="linearGradient2244" y2="-.17544" xlink:href="#linearGradient2241" x2=".49530" y1=".71875" x1=".43478"/>
 </defs>
 <g stroke-width="1.25" fill-rule="evenodd">
  <path id="path2236" fill="#3f007f" d="m63.095 25.216l-44.884 50.157 117.82 168.53 93.509-176.55-43.014-50.157-37.404-12.038-65.456 4.0126-20.572 16.05z"/>
  <path id="path2237" fill="url(#linearGradient2246)" d="m66.836 135.56l20.572-46.145 24.312 62.195 14.961 40.126 5.611 42.132-65.456-98.308z"/>
  <path id="path2238" fill="#aaf" d="m136.03 229.88l26.182-144.45 24.312-18.057 31.793 2.0063-82.288 160.5z"/>
  <path id="path2239" fill="url(#linearGradient2244)" d="m42.124 63.571l54.015-4.2486h31.793l38.724-4.1305 48.624 14.162-39.054-45.555-37.514-11.92-50.055 5.783-46.534 45.909z"/>
  <path id="path2250" fill-opacity=".253" d="m148.07 6.2116l-65.22 4.0058-20.661 16.023-44.808 50.206 117.74 168.51 93.599-176.52-43.065-50.206-37.589-12.017zm-2.9872 9.8809l32.859 10.415 37.589 43.529-81.899 152.75-103.31-145.81 39.331-43.529 18.172-13.887 57.254-3.4717z"/>
  <path id="path2257" fill="url(#linearGradient2258)" d="m128.55 77.379l1.8701 128.4-41.144-110.35-13.091 18.057-33.663-38.12 37.403-10.032 48.625 12.038z"/>
  <path id="path2263" fill-opacity=".394" fill="#7f00ff" d="m150.49 11.247c-11.503 0.64013-50.24 2.2366-61.744 2.8768-41.473 41.927-44.012 46.882-62.781 65.766 0.8828 0.053307-0.2656-0.042496 0.6381 0 37.755 54.301 75.921 111.51 113.68 165.81-38.701-92.92 33.4-81.501-7.179-164.06 0.756 0.037102-0.582-0.4443 0.159-0.3996-3.33-30.085 61.428-1.5097 17.231-70.001z"/>
 </g>
</svg>
