<?xml version="1.0" encoding="utf8" standalone="no"?>
<svg viewBox="0 0 744.09447 1052.362179" xmlns="http://www.w3.org/2000/svg">
<defs>
<filter id="filter12212-8">
<feGaussianBlur stdDeviation=".5297"/>
</filter>
<filter id="filter12271-9">
<feGaussianBlur stdDeviation=".74753"/>
</filter>
<filter id="filter12246-3">
<feGaussianBlur stdDeviation=".40252"/>
</filter>
<filter id="filter12275-0">
<feGaussianBlur stdDeviation="1.31715"/>
</filter>
<filter id="filter12046">
<feGaussianBlur stdDeviation="6.78718"/>
</filter>
<filter height="1.21061" id="filter12331-7" width="1.18858" x="-.09429" y="-.1053">
<feGaussianBlur stdDeviation="1.45339"/>
</filter>
<filter height="1.3284" id="filter12435-0" width="1.32886" x="-.16443" y="-.1642">
<feGaussianBlur stdDeviation="4.15726"/>
</filter>
<filter height="3.17967" id="filter12397-7" width="2.93748" x="-.96874" y="-1.08983">
<feGaussianBlur stdDeviation="4.58827"/>
</filter>
<linearGradient gradientUnits="userSpaceOnUse" id="linearGradient14231-3" x1="-817.8798" x2="-796.92417" y1="575.88081" y2="560.47603">
<stop offset="0" stop-color="#f00"/>
<stop offset="1" stop-color="#f00" stop-opacity="0"/>
</linearGradient>
<linearGradient gradientUnits="userSpaceOnUse" id="linearGradient14233-2" x1="-694.79761" x2="-726.42542" y1="869.72565" y2="870.00848">
<stop offset="0" stop-color="#500"/>
<stop offset="1" stop-color="#500" stop-opacity="0"/>
</linearGradient>
<linearGradient gradientUnits="userSpaceOnUse" id="linearGradient14235-2" x1="-638.41643" x2="-647.5078" y1="926.85075" y2="934.17436">
<stop offset="0" stop-color="#800000"/>
<stop offset="1" stop-color="#800000" stop-opacity="0"/>
</linearGradient>
<linearGradient gradientUnits="userSpaceOnUse" id="linearGradient14237-7" x1="-806.76816" x2="-844.00858" y1="567.56732" y2="531.04156">
<stop offset="0" stop-color="#fff"/>
<stop offset="1" stop-color="#fff" stop-opacity="0"/>
</linearGradient>
</defs>
<g filter="url(#filter12046)" transform="matrix(1.94951,0,0,2.0216,354.26024,-2119.8371)">
<path d="m-633.74446,939.47763 3.15673-50.88643-8.83884-9.59645-22.09708.50507c-19.55702,7.56449-30.52749,19.50031-31.56727,36.49176l-1.13642,19.1929 8.46003,7.82868 52.02285-3.53553z" fill="#d40000" filter="url(#filter12212-8)" transform="matrix(4.4162,0,0,4.55549,2938.3261,-2894.2203)"/>
<path d="m-826.21356,573.03978 28.78935.75762-3.03046-26.64278c-6.48256,10.3815-15.23717,18.86962-25.75889,25.88516z" fill="url(#linearGradient14231-3)" filter="url(#filter12271-9)" opacity=".90717" transform="matrix(4.36622,0,0,4.50422,3609.9557,-1222.8743)"/>
<path d="m-717.07814,892.11086c-5.48947-3.47704-8.64107-15.95571-7.03928-27.87188s7.35038-18.75743 12.83985-15.28038 8.64106,15.95571 7.03928,27.87188c-1.60157,11.91457-7.34893,18.7559-12.83797,15.28157" fill="url(#linearGradient14233-2)" filter="url(#filter12331-7)" transform="matrix(5.14498,5.40358,-5.54677,5.01216,8517.1921,762.80051)"/>
<path d="m-661.90245,939.41451 28.78935.75762-3.03046-26.64278c-6.48256,10.3815-15.23717,18.86962-25.75889,25.88516z" fill="url(#linearGradient14235-2)" filter="url(#filter12246-3)" transform="matrix(6.16079,0,0,5.61883,4037.998,-3898.2183)"/>
<path d="m-852.69553,556.40688 12.12183,25.12755 7.3236-23.23351 23.86486,6.81853-5.80838-25.75889 23.10724-.63135-20.07678-16.03617c-16.38231-8.56506-42.10759,13.06364-40.53237,33.71384z" fill="url(#linearGradient14237-7)" filter="url(#filter12435-0)" opacity=".8481" transform="matrix(4.36622,0,0,4.50422,3609.9557,-1222.8743)"/>
<path d="m-717.07814,892.11086c-5.48947-3.47704-8.64107-15.95571-7.03928-27.87188s7.35038-18.75743 12.83985-15.28038 8.64106,15.95571 7.03928,27.87188c-1.60157,11.91457-7.34893,18.7559-12.83797,15.28157" fill="#d40000" fill-opacity=".98431" filter="url(#filter12275-0)" transform="matrix(2.46891,4.32564,-3.68063,3.27861,4935.702,1434.9636)"/>
<path d="m-717.07814,892.11086c-5.48947-3.47704-8.64107-15.95571-7.03928-27.87188s7.35038-18.75743 12.83985-15.28038 8.64106,15.95571 7.03928,27.87188c-1.60157,11.91457-7.34893,18.7559-12.83797,15.28157" fill="#d40000" fill-opacity=".98431" opacity=".32068" transform="matrix(2.46891,4.32564,-3.68063,3.27861,4931.2914,1438.9449)"/>
<path d="m-681.29798,911.24371c-3.01252-.78136-4.74205-3.58555-3.86302-6.26334s4.03375-4.21516 7.04626-3.4338 4.74205,3.58556 3.86302,6.26335-4.03295,4.2148-7.04523,3.43406" fill="#fff" fill-opacity=".98431" filter="url(#filter12397-7)" transform="matrix(4.36622,0,0,4.50422,2895.0102,-2846.6364)"/>
<g transform="translate(454.56864,-6.06092)">
<path d="m-313.84264,1393.1122 13.94073-231.8127-39.03409-43.7166-97.58514,2.3009c-86.36775,34.46-134.81554,88.8335-139.40745,166.2379l-5.01862,87.4331 37.36118,35.6635 229.74339-16.1061z" fill="none" stroke="#f0f1f5" stroke-width="2.217"/>
<path d="m-457.33688,1381.6332 143.16424,11.441-18.35648-126.1621c-25.98285,48.1891-71.06422,90.4822-124.80776,114.7211z" fill="none" opacity=".90717" stroke="#f0f1f5" stroke-width="2.217"/>
<path d="m-574.63405,1268.4514 52.82062,134.5134 40.19073-103.5775 99.91351,27.8551-21.07495-113.1667 95.89128-13.3922-111.36067-79.8819c-61.38791,4.2829-135.68678,54.208-156.38052,147.6498z" fill="none" opacity=".8481" stroke="#f0f1f5" stroke-width="2.217"/>
<path d="m-717.07814,892.11086c-5.48947-3.47704-8.64107-15.95571-7.03928-27.87188s7.35038-18.75743 12.83985-15.28038 8.64106,15.95571 7.03928,27.87188c-1.60157,11.91457-7.34893,18.7559-12.83797,15.28157" fill="none" stroke="#f0f1f5" stroke-linecap="round" stroke-width=".4524" transform="matrix(2.46891,4.32564,-3.68063,3.27861,4481.1736,1442.5127)"/>
<path d="m-298.73574,1163.6773c-21.05526,128.9049-98.05441,213.8386-242.58012,245.6975" fill="none" stroke="#f0f1f5" stroke-width="2.217"/>
</g>
</g>
<path d="m-633.74446,939.47763 3.15673-50.88643-8.83884-9.59645-22.09708.50507c-19.55702,7.56449-30.52749,19.50031-31.56727,36.49176l-1.13642,19.1929 8.46003,7.82868 52.02285-3.53553z" fill="#d40000" filter="url(#filter12212-8)" transform="matrix(8.60942,0,0,9.20937,6069.69657,-7982.21567)"/>
<path d="m-826.21356,573.03978 28.78935.75762-3.03046-26.64278c-6.48256,10.3815-15.23717,18.86962-25.75889,25.88516z" fill="url(#linearGradient14231-3)" filter="url(#filter12271-9)" opacity=".90717" transform="matrix(8.51198,0,0,9.10573,7379.04459,-4603.42594)"/>
<path d="m-717.07814,892.11086c-5.48947-3.47704-8.64107-15.95571-7.03928-27.87188s7.35038-18.75743 12.83985-15.28038 8.64106,15.95571 7.03928,27.87188c-1.60157,11.91457-7.34893,18.7559-12.83797,15.28157" fill="url(#linearGradient14233-2)" filter="url(#filter12331-7)" transform="matrix(10.03018,10.92387,-10.81348,10.13257,16945.74661,-589.18971)"/>
<path d="m-661.90245,939.41451 28.78935.75762-3.03046-26.64278c-6.48256,10.3815-15.23717,18.86962-25.75889,25.88516z" fill="url(#linearGradient14235-2)" filter="url(#filter12246-3)" transform="matrix(12.01052,0,0,11.35901,8213.51695,-10011.89602)"/>
<path d="m-852.69553,556.40688 12.12183,25.12755 7.3236-23.23351 23.86486,6.81853-5.80838-25.75889 23.10724-.63135-20.07678-16.03617c-16.38231-8.56506-42.10759,13.06364-40.53237,33.71384z" fill="url(#linearGradient14237-7)" filter="url(#filter12435-0)" opacity=".8481" transform="matrix(8.51198,0,0,9.10573,7379.04459,-4603.42594)"/>
<path d="m-717.07814,892.11086c-5.48947-3.47704-8.64107-15.95571-7.03928-27.87188s7.35038-18.75743 12.83985-15.28038 8.64106,15.95571 7.03928,27.87188c-1.60157,11.91457-7.34893,18.7559-12.83797,15.28157" fill="#d40000" fill-opacity=".98431" filter="url(#filter12275-0)" transform="matrix(4.81317,8.7447,-7.17542,6.62802,9963.59906,769.65384)"/>
<path d="m-717.07814,892.11086c-5.48947-3.47704-8.64107-15.95571-7.03928-27.87188s7.35038-18.75743 12.83985-15.28038 8.64106,15.95571 7.03928,27.87188c-1.60157,11.91457-7.34893,18.7559-12.83797,15.28157" fill="#d40000" fill-opacity=".98431" opacity=".32068" transform="matrix(4.81317,8.7447,-7.17542,6.62802,9955.00056,777.70243)"/>
<path d="m-681.29798,911.24371c-3.01252-.78136-4.74205-3.58555-3.86302-6.26334s4.03375-4.21516 7.04626-3.4338 4.74205,3.58556 3.86302,6.26335-4.03295,4.2148-7.04523,3.43406" fill="#fff" fill-opacity=".98431" filter="url(#filter12397-7)" transform="matrix(8.51198,0,0,9.10573,5985.25183,-7886.02015)"/>
<g transform="matrix(1.94951,0,0,2.0216,1227.5888,-2143.51843)">
<path d="m-313.84264,1393.1122 13.94073-231.8127-39.03409-43.7166-97.58514,2.3009c-86.36775,34.46-134.81554,88.8335-139.40745,166.2379l-5.01862,87.4331 37.36118,35.6635 229.74339-16.1061z" fill="none" stroke="#f0f1f5" stroke-width="2.217"/>
<path d="m-457.33688,1381.6332 143.16424,11.441-18.35648-126.1621c-25.98285,48.1891-71.06422,90.4822-124.80776,114.7211z" fill="none" opacity=".90717" stroke="#f0f1f5" stroke-width="2.217"/>
<path d="m-574.63405,1268.4514 52.82062,134.5134 40.19073-103.5775 99.91351,27.8551-21.07495-113.1667 95.89128-13.3922-111.36067-79.8819c-61.38791,4.2829-135.68678,54.208-156.38052,147.6498z" fill="none" opacity=".8481" stroke="#f0f1f5" stroke-width="2.217"/>
<path d="m-717.07814,892.11086c-5.48947-3.47704-8.64107-15.95571-7.03928-27.87188s7.35038-18.75743 12.83985-15.28038 8.64106,15.95571 7.03928,27.87188c-1.60157,11.91457-7.34893,18.7559-12.83797,15.28157" fill="none" stroke="#f0f1f5" stroke-linecap="round" stroke-width=".4524" transform="matrix(2.46891,4.32564,-3.68063,3.27861,4481.1736,1442.5127)"/>
<path d="m-298.73574,1163.6773c-21.05526,128.9049-98.05441,213.8386-242.58012,245.6975" fill="none" stroke="#f0f1f5" stroke-width="2.217"/>
</g>
</svg>
