<?xml version="1.0" encoding="utf8" standalone="no"?>
<svg viewBox="0 0 127.39204 109.45065" xmlns="http://www.w3.org/2000/svg">
<defs>
<filter id="filter4729">
<feGaussianBlur stdDeviation=".44366"/>
</filter>
</defs>
<g transform="matrix(.05704,-.12641,.14708,.05109,6.40018,62.83709)">
<path d="m4.80891,140.04189 46.02821,14.42676 53.52411,126.22293-8.18289-6-91.36943-134.64969z" fill="#f98868" fill-rule="evenodd" stroke="#ea2121"/>
<path d="m208.8444,137.98093-87.93449,136.71065-6.86988,6 40.59327-127.53595 54.2111-15.1747z" fill="#f3714c" fill-rule="evenodd" stroke="#c80303"/>
<path d="m51.52411,154.46865 103.73521.68698-41.90628,125.53595h-9.67879l-52.15014-126.22293z" fill="#842b12" fill-rule="evenodd" stroke="#b71313"/>
<path d="m4.80891,140.04189 46.02821,14.42676 43.28026-58.394-15.80073-8.93085-73.50774,52.89809z" fill="#d0390f" fill-rule="evenodd" stroke="#ca1212"/>
<path d="m155.25932,153.78166-35.03639-60.45497 13.73976-6.86988 74.19472,51.52412-52.89809,15.80073z" fill="#db3a0d" fill-rule="evenodd" stroke="#bb0a0a"/>
<path d="m96.17834,95.38766 24.04459-.68699 34.34941,59.76798-102.36124-.68699 43.96724-58.394z" fill="#992f11" fill-rule="evenodd" stroke="#900707"/>
<path d="m79.69062,86.45681 17.17471-7.55687 17.1747-.68699 19.23567,7.55687-14.42675,9.55687-24.04459.06097-15.11374-8.93085z" fill="#f33e0c" fill-rule="evenodd" filter="url(#filter4729)" stroke="#b91212"/>
</g>
<g transform="matrix(.05704,-.12641,.14708,.05109,48.78906,39.12588)">
<path d="m4.80891,140.04189 46.02821,14.42676 53.52411,126.22293-8.18289-6-91.36943-134.64969z" fill="#f98868" fill-rule="evenodd" stroke="#ea2121"/>
<path d="m208.8444,137.98093-87.93449,136.71065-6.86988,6 40.59327-127.53595 54.2111-15.1747z" fill="#f3714c" fill-rule="evenodd" stroke="#c80303"/>
<path d="m51.52411,154.46865 103.73521.68698-41.90628,125.53595h-9.67879l-52.15014-126.22293z" fill="#842b12" fill-rule="evenodd" stroke="#b71313"/>
<path d="m4.80891,140.04189 46.02821,14.42676 43.28026-58.394-15.80073-8.93085-73.50774,52.89809z" fill="#d0390f" fill-rule="evenodd" stroke="#ca1212"/>
<path d="m155.25932,153.78166-35.03639-60.45497 13.73976-6.86988 74.19472,51.52412-52.89809,15.80073z" fill="#db3a0d" fill-rule="evenodd" stroke="#bb0a0a"/>
<path d="m96.17834,95.38766 24.04459-.68699 34.34941,59.76798-102.36124-.68699 43.96724-58.394z" fill="#992f11" fill-rule="evenodd" stroke="#900707"/>
<path d="m79.69062,86.45681 17.17471-7.55687 17.1747-.68699 19.23567,7.55687-14.42675,9.55687-24.04459.06097-15.11374-8.93085z" fill="#f33e0c" fill-rule="evenodd" filter="url(#filter4729)" stroke="#b91212"/>
</g>
<g transform="matrix(.12641,.05704,-.05109,.14708,65.81523,32.26815)">
<path d="m4.80891,140.04189 46.02821,14.42676 53.52411,126.22293-8.18289-6-91.36943-134.64969z" fill="#f98868" fill-rule="evenodd" stroke="#ea2121"/>
<path d="m208.8444,137.98093-87.93449,136.71065-6.86988,6 40.59327-127.53595 54.2111-15.1747z" fill="#f3714c" fill-rule="evenodd" stroke="#c80303"/>
<path d="m51.52411,154.46865 103.73521.68698-41.90628,125.53595h-9.67879l-52.15014-126.22293z" fill="#842b12" fill-rule="evenodd" stroke="#b71313"/>
<path d="m4.80891,140.04189 46.02821,14.42676 43.28026-58.394-15.80073-8.93085-73.50774,52.89809z" fill="#d0390f" fill-rule="evenodd" stroke="#ca1212"/>
<path d="m155.25932,153.78166-35.03639-60.45497 13.73976-6.86988 74.19472,51.52412-52.89809,15.80073z" fill="#db3a0d" fill-rule="evenodd" stroke="#bb0a0a"/>
<path d="m96.17834,95.38766 24.04459-.68699 34.34941,59.76798-102.36124-.68699 43.96724-58.394z" fill="#992f11" fill-rule="evenodd" stroke="#900707"/>
<path d="m79.69062,86.45681 17.17471-7.55687 17.1747-.68699 19.23567,7.55687-14.42675,9.55687-24.04459.06097-15.11374-8.93085z" fill="#f33e0c" fill-rule="evenodd" filter="url(#filter4729)" stroke="#b91212"/>
</g>
<g transform="matrix(-.05704,.12641,-.14708,-.05109,72.55859,81.94781)">
<path d="m4.80891,140.04189 46.02821,14.42676 53.52411,126.22293-8.18289-6-91.36943-134.64969z" fill="#f98868" fill-rule="evenodd" stroke="#ea2121"/>
<path d="m208.8444,137.98093-87.93449,136.71065-6.86988,6 40.59327-127.53595 54.2111-15.1747z" fill="#f3714c" fill-rule="evenodd" stroke="#c80303"/>
<path d="m51.52411,154.46865 103.73521.68698-41.90628,125.53595h-9.67879l-52.15014-126.22293z" fill="#842b12" fill-rule="evenodd" stroke="#b71313"/>
<path d="m4.80891,140.04189 46.02821,14.42676 43.28026-58.394-15.80073-8.93085-73.50774,52.89809z" fill="#d0390f" fill-rule="evenodd" stroke="#ca1212"/>
<path d="m155.25932,153.78166-35.03639-60.45497 13.73976-6.86988 74.19472,51.52412-52.89809,15.80073z" fill="#db3a0d" fill-rule="evenodd" stroke="#bb0a0a"/>
<path d="m96.17834,95.38766 24.04459-.68699 34.34941,59.76798-102.36124-.68699 43.96724-58.394z" fill="#992f11" fill-rule="evenodd" stroke="#900707"/>
<path d="m79.69062,86.45681 17.17471-7.55687 17.1747-.68699 19.23567,7.55687-14.42675,9.55687-24.04459.06097-15.11374-8.93085z" fill="#f33e0c" fill-rule="evenodd" filter="url(#filter4729)" stroke="#b91212"/>
</g>
<g transform="matrix(-.03877,.16792,-.18731,-.04324,232.64806,16.76141)">
<path d="m67.38433,590.57597 46.02821,14.42676 53.52411,126.22293-8.18288-6-91.36944-134.64969z" fill="#689df9" fill-rule="evenodd" stroke="#2184ea"/>
<path d="m271.41982,588.51501-87.93449,136.71065-6.86988,6 40.59327-127.53595 54.2111-15.1747z" fill="#4c70f3" fill-rule="evenodd" stroke="#035ac8"/>
<path d="m114.09953,605.00273 103.73521.68698-41.90628,125.53595h-9.67879l-52.15014-126.22293z" fill="#3266f5" fill-rule="evenodd" stroke="#15defd"/>
<path d="m67.38433,590.57597 46.02821,14.42676 43.28027-58.394-15.80074-8.93085-73.50774,52.89809z" fill="#5c9df3" fill-rule="evenodd" stroke="#127bca"/>
<path d="m217.83474,604.31574-35.03639-60.45497 13.73976-6.86988 74.19472,51.52412-52.89809,15.80073z" fill="#56a4f3" fill-rule="evenodd" stroke="#0a5fbb"/>
<path d="m158.75377,545.92174 24.04458-.68699 34.34941,59.76798-102.36124-.68699 43.96725-58.394z" fill="#0a3bee" fill-rule="evenodd" stroke="#0361b1"/>
<path d="m142.26604,536.99089 17.17472-7.55687 17.17469-.68699 19.23567,7.55687-14.42675,9.55687-24.04458.06097-15.11375-8.93085z" fill="#a9d0f7" fill-rule="evenodd" filter="url(#filter4729)" stroke="#5493f3"/>
</g>
<g transform="matrix(.16792,.03877,-.04324,.18731,88.43818,-34.44986)">
<path d="m67.38433,590.57597 46.02821,14.42676 53.52411,126.22293-8.18288-6-91.36944-134.64969z" fill="#689df9" fill-rule="evenodd" stroke="#2184ea"/>
<path d="m271.41982,588.51501-87.93449,136.71065-6.86988,6 40.59327-127.53595 54.2111-15.1747z" fill="#4c70f3" fill-rule="evenodd" stroke="#035ac8"/>
<path d="m114.09953,605.00273 103.73521.68698-41.90628,125.53595h-9.67879l-52.15014-126.22293z" fill="#3266f5" fill-rule="evenodd" stroke="#15defd"/>
<path d="m67.38433,590.57597 46.02821,14.42676 43.28027-58.394-15.80074-8.93085-73.50774,52.89809z" fill="#5c9df3" fill-rule="evenodd" stroke="#127bca"/>
<path d="m217.83474,604.31574-35.03639-60.45497 13.73976-6.86988 74.19472,51.52412-52.89809,15.80073z" fill="#56a4f3" fill-rule="evenodd" stroke="#0a5fbb"/>
<path d="m158.75377,545.92174 24.04458-.68699 34.34941,59.76798-102.36124-.68699 43.96725-58.394z" fill="#0a3bee" fill-rule="evenodd" stroke="#0361b1"/>
<path d="m142.26604,536.99089 17.17472-7.55687 17.17469-.68699 19.23567,7.55687-14.42675,9.55687-24.04458.06097-15.11375-8.93085z" fill="#a9d0f7" fill-rule="evenodd" filter="url(#filter4729)" stroke="#5493f3"/>
</g>
<g transform="matrix(.03877,-.16792,.18731,.04324,-105.25602,28.19239)">
<path d="m67.38433,590.57597 46.02821,14.42676 53.52411,126.22293-8.18288-6-91.36944-134.64969z" fill="#689df9" fill-rule="evenodd" stroke="#2184ea"/>
<path d="m271.41982,588.51501-87.93449,136.71065-6.86988,6 40.59327-127.53595 54.2111-15.1747z" fill="#4c70f3" fill-rule="evenodd" stroke="#035ac8"/>
<path d="m114.09953,605.00273 103.73521.68698-41.90628,125.53595h-9.67879l-52.15014-126.22293z" fill="#3266f5" fill-rule="evenodd" stroke="#15defd"/>
<path d="m67.38433,590.57597 46.02821,14.42676 43.28027-58.394-15.80074-8.93085-73.50774,52.89809z" fill="#5c9df3" fill-rule="evenodd" stroke="#127bca"/>
<path d="m217.83474,604.31574-35.03639-60.45497 13.73976-6.86988 74.19472,51.52412-52.89809,15.80073z" fill="#56a4f3" fill-rule="evenodd" stroke="#0a5fbb"/>
<path d="m158.75377,545.92174 24.04458-.68699 34.34941,59.76798-102.36124-.68699 43.96725-58.394z" fill="#0a3bee" fill-rule="evenodd" stroke="#0361b1"/>
<path d="m142.26604,536.99089 17.17472-7.55687 17.17469-.68699 19.23567,7.55687-14.42675,9.55687-24.04458.06097-15.11375-8.93085z" fill="#a9d0f7" fill-rule="evenodd" filter="url(#filter4729)" stroke="#5493f3"/>
</g>
<g transform="matrix(-.03877,.16792,-.18731,-.04324,231.22913,54.33617)">
<path d="m67.38433,590.57597 46.02821,14.42676 53.52411,126.22293-8.18288-6-91.36944-134.64969z" fill="#689df9" fill-rule="evenodd" stroke="#2184ea"/>
<path d="m271.41982,588.51501-87.93449,136.71065-6.86988,6 40.59327-127.53595 54.2111-15.1747z" fill="#4c70f3" fill-rule="evenodd" stroke="#035ac8"/>
<path d="m114.09953,605.00273 103.73521.68698-41.90628,125.53595h-9.67879l-52.15014-126.22293z" fill="#3266f5" fill-rule="evenodd" stroke="#15defd"/>
<path d="m67.38433,590.57597 46.02821,14.42676 43.28027-58.394-15.80074-8.93085-73.50774,52.89809z" fill="#5c9df3" fill-rule="evenodd" stroke="#127bca"/>
<path d="m217.83474,604.31574-35.03639-60.45497 13.73976-6.86988 74.19472,51.52412-52.89809,15.80073z" fill="#56a4f3" fill-rule="evenodd" stroke="#0a5fbb"/>
<path d="m158.75377,545.92174 24.04458-.68699 34.34941,59.76798-102.36124-.68699 43.96725-58.394z" fill="#0a3bee" fill-rule="evenodd" stroke="#0361b1"/>
<path d="m142.26604,536.99089 17.17472-7.55687 17.17469-.68699 19.23567,7.55687-14.42675,9.55687-24.04458.06097-15.11375-8.93085z" fill="#a9d0f7" fill-rule="evenodd" filter="url(#filter4729)" stroke="#5493f3"/>
</g>
<g transform="matrix(.16792,.03877,-.04324,.18731,57.62448,-105.25602)">
<path d="m67.38433,590.57597 46.02821,14.42676 53.52411,126.22293-8.18288-6-91.36944-134.64969z" fill="#689df9" fill-rule="evenodd" stroke="#2184ea"/>
<path d="m271.41982,588.51501-87.93449,136.71065-6.86988,6 40.59327-127.53595 54.2111-15.1747z" fill="#4c70f3" fill-rule="evenodd" stroke="#035ac8"/>
<path d="m114.09953,605.00273 103.73521.68698-41.90628,125.53595h-9.67879l-52.15014-126.22293z" fill="#3266f5" fill-rule="evenodd" stroke="#15defd"/>
<path d="m67.38433,590.57597 46.02821,14.42676 43.28027-58.394-15.80074-8.93085-73.50774,52.89809z" fill="#5c9df3" fill-rule="evenodd" stroke="#127bca"/>
<path d="m217.83474,604.31574-35.03639-60.45497 13.73976-6.86988 74.19472,51.52412-52.89809,15.80073z" fill="#56a4f3" fill-rule="evenodd" stroke="#0a5fbb"/>
<path d="m158.75377,545.92174 24.04458-.68699 34.34941,59.76798-102.36124-.68699 43.96725-58.394z" fill="#0a3bee" fill-rule="evenodd" stroke="#0361b1"/>
<path d="m142.26604,536.99089 17.17472-7.55687 17.17469-.68699 19.23567,7.55687-14.42675,9.55687-24.04458.06097-15.11375-8.93085z" fill="#a9d0f7" fill-rule="evenodd" filter="url(#filter4729)" stroke="#5493f3"/>
</g>
</svg>
