<?xml version="1.0" encoding="utf8" standalone="no"?>
<svg viewBox="0 0 100.844 178.01701" xmlns="http://www.w3.org/2000/svg" xmlns:xlink="http://www.w3.org/1999/xlink">
<defs>
<linearGradient gradientUnits="userSpaceOnUse" id="linearGradient3954" x1="326.54507" x2="322.85715" y1="679.50507" y2="685.21936">
<stop offset="0" stop-color="#fff"/>
<stop offset="1" stop-color="#fff" stop-opacity=".07759"/>
</linearGradient>
<linearGradient id="linearGradient3858">
<stop offset="0" stop-color="#fff"/>
<stop offset="1" stop-color="#fff" stop-opacity="0"/>
</linearGradient>
<linearGradient gradientUnits="userSpaceOnUse" id="linearGradient3952" x1="351.11993" x2="351.4718" xlink:href="#linearGradient3858" y1="686.2049" y2="691.93115"/>
<linearGradient gradientUnits="userSpaceOnUse" id="linearGradient3950" x1="123.52021" x2="87.29063" xlink:href="#linearGradient3858" y1="518.38196" y2="508.3118"/>
</defs>
<g transform="matrix(1,.00103,-.00103,1,-301.87765,-659.80984)">
<path d="m124.24876,512.68817a21.2132,21.46574 0 1,1 -42.4264,0 21.2132,21.46574 0 1,1 42.4264,0z" fill="#8f0000" opacity=".89224" stroke="#cd0000" transform="matrix(.38456,.60266,-1.38354,.1321,1022.047,543.20816)"/>
<path d="m337.30382,684.33848 14.41,30.73831 14.73649-30.17196c-9.65597,1.75256-19.49051,1.25188-29.14649-.56635z" fill="#8f0000" fill-rule="evenodd" opacity=".89224" stroke="#cd0000"/>
<path d="m351.20874,717.09709 3.03045,24.24366 18.18275-27.52665c-5.74914,1.97561-13.49485,2.62018-21.2132,3.28299z" fill="#8f0000" fill-rule="evenodd" opacity=".89224" stroke="#cd0000"/>
<path d="m351.57362,716.9864 1.9368,25.60427-23.76483-28.076c5.82028,1.75495 14.09002,2.10371 21.82803,2.47173z" fill="#d52020" fill-rule="evenodd" stroke="#cd0000"/>
<path d="m352.21889,716.08694 14.70849-30.97816 22.16208,22.13933c-7.29139,2.9873-24.29546,11.2867-36.87057,8.83883z" fill="#900" fill-rule="evenodd" opacity=".89224" stroke="#cd0000"/>
<path d="m367.0214,684.6992c10.71409-1.95652 14.91549-5.52299 16.60714-10.80357l5.62501,32.67857-22.23215-21.875z" fill="#be0e09" fill-rule="evenodd" opacity=".89224" stroke="#cd0000"/>
<path d="m384.5214,677.1992 15.26786,5.35714c1.12227,2.49264 3.32903,7.57048 1.51785,12.23215-2.08576,5.36841-6.22947,9.33086-11.33928,12.49999l-5.89286-30.35714" fill="#8f0000" fill-rule="evenodd" opacity=".89224" stroke="#cd0000"/>
<path d="m381.3964,668.4492c1.49417,1.97582 2.07404,3.92669 2.85714,8.03571l15.80358,5.625-18.66072-13.66071z" fill="#8f0000" fill-rule="evenodd" opacity=".80172" stroke="#cd0000"/>
<path d="m352.06383,716.31487-14.52992-31.51388-28.41208,19.99648c4.84581,4.44831 30.36649,13.96554 42.942,11.5174z" fill="#a60000" fill-rule="evenodd" opacity=".89224" stroke="#cd0000"/>
<path d="m336.96331,684.47373c-10.21403-3.78066-14.98504-7.48452-15.73758-12.97814l-11.88653,32.52572 27.62411-19.54758z" fill="#8f0000" fill-rule="evenodd" opacity=".89224" stroke="#cd0000"/>
<path d="m322.87828,668.13635-18.21429,15.625c-4.96494,10.52878 3.35546,19.11498 3.92857,20.70979l14.28572-36.33479z" fill="#ad0f0f" fill-rule="evenodd" opacity=".89224" stroke="#cd0000"/>
<path d="m308.37601,704.77765 45.25254,38.40369-23.92858-29.28571c-8.24314-1.90417-14.47904-5.81559-21.32396-9.11798z" fill="#8f0000" fill-rule="evenodd" opacity=".89224" stroke="#cd0000"/>
<path d="m389.78477,706.99262-36.51337,36.72444 18.92858-29.46428c6.28749-2.46865 11.95123-4.95499 17.58479-7.26016z" fill="#900" fill-rule="evenodd" opacity=".76724" stroke="#cd0000"/>
<path d="m124.24876,512.68817a21.2132,21.46574 0 1,1 -42.4264,0 21.2132,21.46574 0 1,1 42.4264,0z" fill="url(#linearGradient3950)" opacity=".40517" transform="matrix(.38456,.60266,-1.38354,.1321,1022.7503,542.72393)"/>
<path d="m337.96999,684.95487 14.41,30.73831 14.73649-30.17196c-9.65597,1.75256-19.49051,1.25188-29.14649-.56635z" fill="url(#linearGradient3952)" fill-rule="evenodd" opacity=".89224"/>
<path d="m336.66919,684.79175c-10.21403-3.78066-14.98504-7.48452-15.73758-12.97814l-11.88653,32.52572 27.62411-19.54758z" fill="url(#linearGradient3954)" fill-rule="evenodd" opacity=".89224"/>
</g>
<g opacity=".38362" transform="matrix(1,-.00103,-.00103,-1,-300.93861,837.82685)">
<path d="m124.24876,512.68817a21.2132,21.46574 0 1,1 -42.4264,0 21.2132,21.46574 0 1,1 42.4264,0z" fill="#8f0000" opacity=".89224" stroke="#cd0000" transform="matrix(.38456,.60266,-1.38354,.1321,1022.047,543.20816)"/>
<path d="m337.30382,684.33848 14.41,30.73831 14.73649-30.17196c-9.65597,1.75256-19.49051,1.25188-29.14649-.56635z" fill="#8f0000" fill-rule="evenodd" opacity=".89224" stroke="#cd0000"/>
<path d="m351.20874,717.09709 3.03045,24.24366 18.18275-27.52665c-5.74914,1.97561-13.49485,2.62018-21.2132,3.28299z" fill="#8f0000" fill-rule="evenodd" opacity=".89224" stroke="#cd0000"/>
<path d="m351.57362,716.9864 1.9368,25.60427-23.76483-28.076c5.82028,1.75495 14.09002,2.10371 21.82803,2.47173z" fill="#d52020" fill-rule="evenodd" stroke="#cd0000"/>
<path d="m352.21889,716.08694 14.70849-30.97816 22.16208,22.13933c-7.29139,2.9873-24.29546,11.2867-36.87057,8.83883z" fill="#900" fill-rule="evenodd" opacity=".89224" stroke="#cd0000"/>
<path d="m367.0214,684.6992c10.71409-1.95652 14.91549-5.52299 16.60714-10.80357l5.62501,32.67857-22.23215-21.875z" fill="#be0e09" fill-rule="evenodd" opacity=".89224" stroke="#cd0000"/>
<path d="m384.5214,677.1992 15.26786,5.35714c1.12227,2.49264 3.32903,7.57048 1.51785,12.23215-2.08576,5.36841-6.22947,9.33086-11.33928,12.49999l-5.89286-30.35714" fill="#8f0000" fill-rule="evenodd" opacity=".89224" stroke="#cd0000"/>
<path d="m381.3964,668.4492c1.49417,1.97582 2.07404,3.92669 2.85714,8.03571l15.80358,5.625-18.66072-13.66071z" fill="#8f0000" fill-rule="evenodd" opacity=".80172" stroke="#cd0000"/>
<path d="m352.06383,716.31487-14.52992-31.51388-28.41208,19.99648c4.84581,4.44831 30.36649,13.96554 42.942,11.5174z" fill="#a60000" fill-rule="evenodd" opacity=".89224" stroke="#cd0000"/>
<path d="m336.96331,684.47373c-10.21403-3.78066-14.98504-7.48452-15.73758-12.97814l-11.88653,32.52572 27.62411-19.54758z" fill="#8f0000" fill-rule="evenodd" opacity=".89224" stroke="#cd0000"/>
<path d="m322.87828,668.13635-18.21429,15.625c-4.96494,10.52878 3.35546,19.11498 3.92857,20.70979l14.28572-36.33479z" fill="#ad0f0f" fill-rule="evenodd" opacity=".89224" stroke="#cd0000"/>
<path d="m308.37601,704.77765 45.25254,38.40369-23.92858-29.28571c-8.24314-1.90417-14.47904-5.81559-21.32396-9.11798z" fill="#8f0000" fill-rule="evenodd" opacity=".89224" stroke="#cd0000"/>
<path d="m389.78477,706.99262-36.51337,36.72444 18.92858-29.46428c6.28749-2.46865 11.95123-4.95499 17.58479-7.26016z" fill="#900" fill-rule="evenodd" opacity=".76724" stroke="#cd0000"/>
<path d="m124.24876,512.68817a21.2132,21.46574 0 1,1 -42.4264,0 21.2132,21.46574 0 1,1 42.4264,0z" fill="url(#linearGradient3950)" opacity=".40517" transform="matrix(.38456,.60266,-1.38354,.1321,1022.7503,542.72393)"/>
<path d="m337.96999,684.95487 14.41,30.73831 14.73649-30.17196c-9.65597,1.75256-19.49051,1.25188-29.14649-.56635z" fill="url(#linearGradient3952)" fill-rule="evenodd" opacity=".89224"/>
<path d="m336.66919,684.79175c-10.21403-3.78066-14.98504-7.48452-15.73758-12.97814l-11.88653,32.52572 27.62411-19.54758z" fill="url(#linearGradient3954)" fill-rule="evenodd" opacity=".89224"/>
</g>
</svg>
