<?xml version="1.0" encoding="utf8" standalone="no"?>
<svg height="780.23132" viewBox="0 0 780.23132 402.58102" width="780.23132" xmlns="http://www.w3.org/2000/svg">
<defs>
<clipPath id="clipPath4328">
<path d="m-783.41619,4035.4387h446.38588a30.47614,30.47614 0 0,1 30.47614,30.47614v157.75886a30.47614,30.47614 0 0,1 -30.47614,30.47614h-446.38588a30.47614,30.47614 0 0,1 -30.47614-30.47614v-157.75886a30.47614,30.47614 0 0,1 30.47614-30.47614" transform="matrix(.97689,-.21376,.21376,.97689,0,0)"/>
</clipPath>
<clipPath id="clipPath4320">
<path d="m-783.41619,4035.4387h446.38588a30.47614,30.47614 0 0,1 30.47614,30.47614v157.75886a30.47614,30.47614 0 0,1 -30.47614,30.47614h-446.38588a30.47614,30.47614 0 0,1 -30.47614-30.47614v-157.75886a30.47614,30.47614 0 0,1 30.47614-30.47614"/>
</clipPath>
<filter id="filter4046">
<feGaussianBlur stdDeviation="1.58067"/>
</filter>
<filter id="filter3835">
<feGaussianBlur stdDeviation="2.42844"/>
</filter>
<linearGradient gradientUnits="userSpaceOnUse" id="linearGradient4024" x1="-920.30701" x2="-774.52838" y1="3705.5337" y2="4212.5898">
<stop offset="0" stop-color="#fff"/>
<stop offset="1" stop-color="#fff" stop-opacity="0"/>
</linearGradient>
<linearGradient gradientTransform="matrix(.98172,0,0,-.16353,6.13231,4903.4591)" gradientUnits="userSpaceOnUse" id="linearGradient4702" x1="-838.99036" x2="-822.8559" y1="3567.5405" y2="4015.719">
<stop offset="0" stop-color="#f9f9f9"/>
<stop offset="1" stop-color="#f9f9f9" stop-opacity="0"/>
</linearGradient>
</defs>
<g transform="matrix(.79127,0,0,.79127,1022.79796,-2994.80133)">
<path d="m-1240.9039,3802.386h900.63356c18.67871,0 33.71608,15.0374 33.71608,33.7161v423.7716c0,18.6787-15.03737,33.7161-33.71608,33.7161h-900.63356c-18.6787,0-33.7161-15.0374-33.7161-33.7161v-423.7716c0-18.6787 15.0374-33.7161 33.7161-33.7161z" fill="#1a1a1a"/>
<path clip-path="url(#clipPath4328)" d="m147.32607,4126.1978h460.1535v12.5071h-460.1535z" fill="#fe3035" filter="url(#filter4046)" transform="rotate(12.34281)"/>
<path clip-path="url(#clipPath4328)" d="m147.32607,4138.5791h460.1535v12.5071h-460.1535z" fill="#f3bb1c" filter="url(#filter4046)" transform="rotate(12.34281)"/>
<path clip-path="url(#clipPath4320)" d="m-738.66547,4073.1872 446.04011,97.6017c3.89228-7.8052.011-10.628-7.85171-10.899l-436.27124-95.4641-1.91716,8.7614z" fill="#fe3035"/>
<path clip-path="url(#clipPath4328)" d="m147.32607,4150.9604h460.1535v12.5072h-460.1535z" fill="#ffff26" filter="url(#filter4046)" transform="rotate(12.34281)"/>
<path clip-path="url(#clipPath4320)" d="m-741.31075,4085.2762 446.04011,97.6016c3.90463-7.8043-.0225-10.589-7.85838-10.8685l-436.27125-95.464-1.91048,8.7309z" fill="#f3bb1c"/>
<path clip-path="url(#clipPath4328)" d="m147.32607,4161.5723h460.1535v12.5071h-460.1535z" fill="#75bf2a" filter="url(#filter4046)" transform="rotate(12.34281)"/>
<path clip-path="url(#clipPath4320)" d="m-743.95603,4097.3652 446.0401,97.6016c3.90464-7.8043-.0225-10.5891-7.85838-10.8685l-436.27124-95.4641-1.91048,8.731z" fill="#ffff26"/>
<path clip-path="url(#clipPath4328)" d="m147.32607,4172.1846h460.1535v12.5071h-460.1535z" fill="#48a0f9" filter="url(#filter4046)" transform="rotate(12.34281)"/>
<path clip-path="url(#clipPath4320)" d="m-746.22724,4107.7446 446.04011,97.6016c3.89228-7.8052.011-10.628-7.85171-10.899l-436.27125-95.464-1.91715,8.7614z" fill="#75bf2a"/>
<path clip-path="url(#clipPath4328)" d="m147.32607,4184.5659h460.1535v12.5071h-460.1535z" fill="#907ac5" filter="url(#filter4046)" transform="rotate(12.34281)"/>
<path d="m-2964.0109,4065.896h416.7113c2.2903,0 4.1341,1.8438 4.1341,4.1341s-1.8438,4.1342-4.1341,4.1342h-416.7113c-2.2903,0-4.1341-1.8439-4.1341-4.1342s1.8438-4.1341 4.1341-4.1341z" fill="#fff" transform="matrix(.98764,-.15674,.41218,.9111,0,0)"/>
<path clip-path="url(#clipPath4320)" d="m-748.49175,4118.0934 446.04011,97.6016c3.90463-7.8043-.0226-10.5889-7.8584-10.8684l-436.27125-95.464-1.91046,8.7308z" fill="#48a0f9"/>
<path d="m-200.28719,4340.6218-127.98902-59.2078-127.98901-59.2077 115.26993-81.2379 115.26993-81.2379 12.71908,140.4457z" fill="#ececec" transform="matrix(.90844,-.41802,.41802,.90844,-2267.4075,210.40352)"/>
<path clip-path="url(#clipPath4320)" d="m-751.13703,4130.1824 446.0401,97.6016c3.90464-7.8043-.0226-10.589-7.8584-10.8684l-436.27124-95.464-1.91046,8.7308z" fill="#907ac5"/>
<path d="m-966.21516,4319.461-65.25004,112.4376 260.15629.5937-129.625-225.5313-65.28125,112.5z" fill="#fff" filter="url(#filter3835)" transform="matrix(1.14022,0,0,1.14022,251.88639,-814.9685)"/>
<path d="m-776.53125,3997.1875c-46.04538,79.3953-92.11951,158.774-138.1875,238.1563 92.55117.4641 185.10423.4722 277.65625.7187-46.12187-80.2622-92.25313-160.519-138.375-240.7813l-1.09375,1.9063z" fill="#1a1a1a"/>
<path d="m-776.53125,4008.9688c-23.05457,41.0972-46.94615,81.7172-70.65625,122.4374 27.54674,37.0058 85.85345,45.7168 122.68434,17.854 7.7452-4.3131 15.13197-9.2472 22.69066-13.7602-24.75276-42.7114-49.63438-85.3533-73.625-128.5l-1.09375,1.9688z" fill="url(#linearGradient4024)"/>
<path d="m-776.53125,4008.9688c-23.05457,41.0972-46.94615,81.7172-70.65625,122.4374 27.54674,37.0058 85.85345,45.7168 122.68434,17.854 7.7452-4.3131 15.13197-9.2472 22.69066-13.7602-24.75276-42.7114-49.63438-85.3533-73.625-128.5l-1.09375,1.9688z" fill="url(#linearGradient4024)"/>
<path d="m-372.59766,4279.4805c-72.50135-.1807-145.0304-.1306-217.54347-.1711-214.32221-.029-428.64767.1432-642.96667-.203-20.9006-.123-32.7242-21.9546 1.2272-24.2857 271.87167-6.2169 546.83744-3.636 817.00845,5.1335 25.62441,1.0388 52.01711,1.766 76.35865,3.9615 22.79347,3.6553 16.75321,13.008-9.90216,14.9607-7.81162.5249-16.04272.6235-24.182.6041z" fill="url(#linearGradient4702)"/>
</g>
</svg>
