<?xml version="1.0" encoding="utf8" standalone="no"?>
<svg viewBox="0 0 259.35626 274.01251" xmlns="http://www.w3.org/2000/svg">
<g transform="translate(-227.46473,-141.07022)">
<path d="m357.68277,151.15331-32.19045,11.11928 31.66513,11.70296 32.01533-11.8197-31.49001-11.00254z" fill="#c00" fill-rule="evenodd" stroke="#000" stroke-linecap="round" stroke-linejoin="round" stroke-width="2.05458"/>
<path d="m391.30325,162.88546-32.07371,11.84889 40.30372,14.88406 31.51921-12.84115-39.74922-13.8918z" fill="#c00" fill-rule="evenodd" stroke="#000" stroke-linecap="round" stroke-linejoin="round" stroke-width="2.05458"/>
<path d="m323.36186,163.0022-39.95351,13.83343 31.37328,12.78278 40.30372-14.88406-31.72349-11.73215z" fill="#c00" fill-rule="evenodd" stroke="#000" stroke-linecap="round" stroke-linejoin="round" stroke-width="2.05458"/>
<path d="m357.15745,175.49314-40.42046,14.91325 40.42046,16.46003 40.42046-16.46003-40.42046-14.91325z" fill="#c00" fill-rule="evenodd" stroke="#000" stroke-linecap="round" stroke-linejoin="round" stroke-width="2.05458"/>
<path d="m433.06619,177.47768-31.54838,12.87034 43.36808,16.02227 30.78959-14.00854-42.60929-14.88407z" fill="#c00" fill-rule="evenodd" stroke="#000" stroke-linecap="round" stroke-linejoin="round" stroke-width="2.05458"/>
<path d="m281.36544,177.53605-42.81358,14.79652 30.73122,14.0669 43.54319-16.05145-31.46083-12.81197z" fill="#c00" fill-rule="evenodd" stroke="#000" stroke-linecap="round" stroke-linejoin="round" stroke-width="2.05458"/>
<path d="m314.78163,191.136-43.63075,16.10982 40.04106,18.35702 44.0977-17.97762-40.50801-16.48922z" fill="#c00" fill-rule="evenodd" stroke="#000" stroke-linecap="round" stroke-linejoin="round" stroke-width="2.05458"/>
<path d="m399.56245,191.136-40.50801,16.48922 43.77667,17.86088 40.21616-18.29865-43.48482-16.05145z" fill="#c00" fill-rule="evenodd" stroke="#000" stroke-linecap="round" stroke-linejoin="round" stroke-width="2.05458"/>
<path d="m237.06345,193.2081 4.37767,49.81785 29.59303,15.64286-3.21029-51.18952 .35021-.02918-31.11062-14.24201z" fill="#fce94f" fill-rule="evenodd" stroke="#000" stroke-linecap="round" stroke-linejoin="round" stroke-width="2.05458"/>
<path d="m477.22226,193.2081-31.31491,14.24201 .58369.05837-4.78625,52.1526 29.41792-15.55531 6.09955-50.89767z" fill="#3465a4" fill-rule="evenodd" stroke="#000" stroke-linecap="round" stroke-linejoin="round" stroke-width="2.05458"/>
<path d="m444.94426,207.88788-41.0917,18.70723 .52532.02918-1.89699,53.81612 37.73549-19.99135 4.81543-52.532-.08755-.02918z" fill="#3465a4" fill-rule="evenodd" stroke="#000" stroke-linecap="round" stroke-linejoin="round" stroke-width="2.05458"/>
<path d="m269.28308,207.97543 3.23947,51.48136 39.13635,20.69178-1.72189-53.52428h.05837l-40.7123-18.64886z" fill="#fce94f" fill-rule="evenodd" stroke="#000" stroke-linecap="round" stroke-linejoin="round" stroke-width="2.05458"/>
<path d="m357.18663,208.4132-44.21443,18.0068 43.74748,20.04971 44.36036-20.19563-43.89341-17.86088z" fill="#c00" fill-rule="evenodd" stroke="#000" stroke-linecap="round" stroke-linejoin="round" stroke-width="2.05458"/>
<path d="m402.88947,227.03287-45.41099,20.66259 .49613,56.32598 43.07624-22.82223 1.89699-54.13715-.05837-.02919z" fill="#3465a4" fill-rule="evenodd" stroke="#000" stroke-linecap="round" stroke-linejoin="round" stroke-width="2.05458"/>
<path d="m311.39624,227.26635 1.69269,53.64101 43.48483,22.96816-.49614-56.12169-44.68138-20.48748z" fill="#fce94f" fill-rule="evenodd" stroke="#000" stroke-linecap="round" stroke-linejoin="round" stroke-width="2.05458"/>
<path d="m241.58704,244.68946 4.08582,46.37409 28.48402,17.56904-3.03518-48.32945-29.53466-15.61368z" fill="#fce94f" fill-rule="evenodd" stroke="#000" stroke-linecap="round" stroke-linejoin="round" stroke-width="2.05458"/>
<path d="m470.91842,245.79847-29.35955,15.55531-4.52359,49.26335 28.22136-17.62741 5.66178-47.19125z" fill="#3465a4" fill-rule="evenodd" stroke="#000" stroke-linecap="round" stroke-linejoin="round" stroke-width="2.05458"/>
<path d="m272.61011,261.09112 3.03518,48.44618 37.67712,23.26001-1.63433-51.01442-39.07797-20.69177z" fill="#fce94f" fill-rule="evenodd" stroke="#000" stroke-linecap="round" stroke-linejoin="round" stroke-width="2.05458"/>
<path d="m440.07046,262.14176-37.64794,19.93298-1.80943,51.33544 34.93378-21.85915 4.52359-49.40927z" fill="#3465a4" fill-rule="evenodd" stroke="#000" stroke-linecap="round" stroke-linejoin="round" stroke-width="2.05458"/>
<path d="m313.1473,282.54169 1.63433,51.13115 42.25908,26.09089-.46695-54.25388-43.42646-22.96816z" fill="#fce94f" fill-rule="evenodd" stroke="#000" stroke-linecap="round" stroke-linejoin="round" stroke-width="2.05458"/>
<path d="m400.99249,282.83353-43.01788,22.76387 .46695,54.16633 40.71231-25.44883 1.83862-51.48137z" fill="#3465a4" fill-rule="evenodd" stroke="#000" stroke-linecap="round" stroke-linejoin="round" stroke-width="2.05458"/>
<path d="m245.81878,292.78543 3.79398,43.13461 27.34583,17.51067-2.71415-43.10543-28.42566-17.53985z" fill="#fce94f" fill-rule="evenodd" stroke="#000" stroke-linecap="round" stroke-linejoin="round" stroke-width="2.05458"/>
<path d="m465.02316,294.79916-28.13381,17.59822-3.5605,38.75694 27.31664-19.72868 4.37767-36.62648z" fill="#3465a4" fill-rule="evenodd" stroke="#000" stroke-linecap="round" stroke-linejoin="round" stroke-width="2.05458"/>
<path d="m275.76203,311.25919 2.68497,43.13461 36.30545,23.26-1.37167-43.19298-37.61875-23.20163z" fill="#fce94f" fill-rule="evenodd" stroke="#000" stroke-linecap="round" stroke-linejoin="round" stroke-width="2.05458"/>
<path d="m435.37176,313.33128-34.81704,21.80078-1.43004,40.7123 32.68658-23.61021 3.5605-38.90287z" fill="#3465a4" fill-rule="evenodd" stroke="#000" stroke-linecap="round" stroke-linejoin="round" stroke-width="2.05458"/>
<path d="m314.81082,335.36554 1.37166,43.22216 41.23763,26.41193-.35022-43.60157-42.25907-26.03252z" fill="#fce94f" fill-rule="evenodd" stroke="#000" stroke-linecap="round" stroke-linejoin="round" stroke-width="2.05458"/>
<path d="m399.0955,336.03678-40.62475,25.41965 .35021,43.45564 38.8445-28.01707 1.43004-40.85822z" fill="#3465a4" fill-rule="evenodd" stroke="#000" stroke-linecap="round" stroke-linejoin="round" stroke-width="2.05458"/>
</g>
</svg>
